<svg width="450" height="682" viewBox="0 0 450 682" fill="none" xmlns="http://www.w3.org/2000/svg">
<path d="M113.826 236.723C113.826 236.723 113.826 236.724 113.826 237.033L114.442 238.573C115.367 240.847 116.33 243.159 117.023 245.317C121.247 253.138 123.231 261.972 122.755 270.847C122.279 279.723 119.361 288.295 114.325 295.619C109.288 302.943 102.328 308.734 94.2108 312.355C86.0932 315.975 77.1338 317.285 68.3195 316.139C66.401 315.918 64.4699 315.815 62.5387 315.831H61.8838C58.4424 315.822 55.0091 316.158 51.6345 316.833C76.0833 356.013 114.747 384.21 159.524 395.515C158.331 393.448 157.288 391.298 156.404 389.081C153.061 381.414 150.793 373.324 149.661 365.037C148.452 358.431 148.729 351.64 150.472 345.155C152.215 338.669 155.38 332.653 159.737 327.543C164.094 322.433 169.534 318.358 175.663 315.612C181.791 312.866 188.454 311.52 195.167 311.669C201.353 311.143 207.575 311.246 213.74 311.977C216.108 312.244 218.461 312.629 220.791 313.133C196.739 273.04 157.917 243.986 112.669 232.216L113.826 236.723Z" fill="url(#paint0_linear_121_1076)"/>
<path d="M436.688 656.718C426.789 670.047 412 678.899 395.576 681.327C379.151 683.755 362.436 679.56 349.104 669.665L25.1247 428.799C15.3462 421.494 7.91744 411.488 3.75365 400.014C-0.410133 388.54 -1.12763 376.099 1.68993 364.222C4.50749 352.346 10.7367 341.553 19.6108 333.172C28.4849 324.792 39.6165 319.19 51.6344 317.055C55.009 316.381 58.4423 316.045 61.8837 316.053H62.5386C64.4697 316.038 66.4009 316.141 68.3194 316.362C79.6991 317.382 90.5704 321.543 99.7221 328.383L149.353 365.258L423.702 569.249C430.305 574.134 435.88 580.273 440.107 587.316C444.335 594.358 447.131 602.165 448.338 610.29C449.544 618.414 449.135 626.697 447.136 634.664C445.137 642.631 441.587 650.126 436.688 656.718Z" fill="url(#paint1_linear_121_1076)"/>
<path d="M389.023 378.1C384.125 384.699 377.975 390.269 370.925 394.49C363.874 398.712 356.06 401.503 347.931 402.705C339.801 403.908 331.515 403.497 323.545 401.496C315.574 399.496 308.076 395.946 301.478 391.047L136.135 268.322C126.34 261.026 118.896 251.022 114.722 239.544C110.547 228.066 109.825 215.616 112.644 203.732C115.463 191.848 121.7 181.05 130.586 172.671C139.472 164.291 150.618 158.697 162.646 156.578C166.016 155.872 169.452 155.523 172.895 155.537H173.55C175.481 155.541 177.41 155.644 179.33 155.846C190.704 156.891 201.569 161.051 210.734 167.868L260.363 204.782L375.96 290.594C382.574 295.473 388.161 301.61 392.399 308.653C396.637 315.696 399.443 323.506 400.656 331.635C401.87 339.765 401.467 348.054 399.471 356.027C397.475 364.001 393.924 371.502 389.023 378.1Z" fill="url(#paint2_linear_121_1076)"/>
<path d="M232.91 29.2509L232.887 29.282C212.255 57.0349 218.029 96.258 245.781 116.889L294.61 153.188C322.363 173.82 361.586 168.047 382.217 140.294L382.24 140.263C402.871 112.51 397.098 73.2868 369.346 52.6555L320.517 16.3564C292.764 -4.275 253.541 1.49809 232.91 29.2509Z" fill="url(#paint3_linear_121_1076)"/>
<defs>
<linearGradient id="paint0_linear_121_1076" x1="51.7501" y1="314.174" x2="220.714" y2="314.174" gradientUnits="userSpaceOnUse">
<stop stop-color="#00A4CC"/>
<stop offset="1" stop-color="#4DD3A0"/>
</linearGradient>
<linearGradient id="paint1_linear_121_1076" x1="0.00121029" y1="499.121" x2="449.249" y2="499.121" gradientUnits="userSpaceOnUse">
<stop stop-color="#00A4CC"/>
<stop offset="1" stop-color="#4DD3A0"/>
</linearGradient>
<linearGradient id="paint2_linear_121_1076" x1="111.051" y1="279.419" x2="401.469" y2="279.419" gradientUnits="userSpaceOnUse">
<stop stop-color="#00A4CC"/>
<stop offset="1" stop-color="#4DD3A0"/>
</linearGradient>
<linearGradient id="paint3_linear_121_1076" x1="220.651" y1="84.6904" x2="394.701" y2="84.6905" gradientUnits="userSpaceOnUse">
<stop stop-color="#00A4CC"/>
<stop offset="1" stop-color="#4DD3A0"/>
</linearGradient>
</defs>
</svg>
