<svg width="53" height="81" viewBox="0 0 53 81" fill="none" xmlns="http://www.w3.org/2000/svg">
<path d="M13.3772 27.7817C13.3772 27.7817 13.3772 27.7818 13.3772 27.818L13.4496 27.9991C13.5583 28.2662 13.6714 28.538 13.7529 28.7916C14.2494 29.7107 14.4825 30.749 14.4265 31.7921C14.3706 32.8352 14.0277 33.8427 13.4358 34.7034C12.8439 35.5641 12.0259 36.2447 11.0719 36.6702C10.1179 37.0958 9.06491 37.2496 8.02902 37.115C7.80355 37.089 7.57659 37.0769 7.34963 37.0788H7.27266C6.86821 37.0778 6.46472 37.1172 6.06812 37.1965C8.94145 41.8012 13.4854 45.115 18.7479 46.4437C18.6076 46.2007 18.4851 45.948 18.3811 45.6875C17.9883 44.7864 17.7217 43.8356 17.5887 42.8617C17.4466 42.0854 17.4792 41.2872 17.684 40.525C17.8889 39.7629 18.2608 39.0557 18.7729 38.4552C19.285 37.8547 19.9243 37.3757 20.6445 37.0531C21.3647 36.7304 22.1478 36.5721 22.9368 36.5897C23.6638 36.5278 24.3951 36.5399 25.1195 36.6259C25.3979 36.6572 25.6744 36.7025 25.9482 36.7617C23.1216 32.0498 18.5589 28.6352 13.2412 27.252L13.3772 27.7817Z" fill="url(#paint0_linear_121_968)"/>
<path d="M51.3215 77.1413C50.1581 78.7078 48.42 79.7481 46.4898 80.0334C44.5595 80.3187 42.595 79.8257 41.0281 78.6629L2.95253 50.3551C1.80332 49.4965 0.930252 48.3206 0.440904 46.9721C-0.048445 45.6236 -0.132769 44.1615 0.198365 42.7657C0.529498 41.37 1.26159 40.1015 2.30452 39.1166C3.34745 38.1316 4.65568 37.4733 6.06809 37.2224C6.46469 37.1431 6.86818 37.1037 7.27263 37.1047H7.34961C7.57656 37.1028 7.80352 37.1149 8.02899 37.1409C9.36639 37.2608 10.644 37.7498 11.7196 38.5537L17.5524 42.8875L49.7953 66.8615C50.5714 67.4356 51.2266 68.1571 51.7234 68.9848C52.2202 69.8124 52.5489 70.7299 52.6906 71.6848C52.8324 72.6396 52.7843 73.6131 52.5494 74.5494C52.3144 75.4857 51.8972 76.3665 51.3215 77.1413Z" fill="url(#paint1_linear_121_968)"/>
<path d="M45.7197 44.397C45.1441 45.1725 44.4213 45.8271 43.5927 46.3232C42.7641 46.8194 41.8458 47.1474 40.8904 47.2887C39.935 47.43 38.9611 47.3817 38.0244 47.1466C37.0877 46.9115 36.2064 46.4943 35.431 45.9186L15.9991 31.4953C14.8479 30.6378 13.9731 29.4621 13.4825 28.1131C12.9919 26.7641 12.9069 25.301 13.2383 23.9044C13.5696 22.5077 14.3026 21.2387 15.3469 20.2539C16.3912 19.269 17.7011 18.6116 19.1148 18.3626C19.5109 18.2796 19.9146 18.2386 20.3193 18.2403H20.3963C20.6232 18.2407 20.8499 18.2528 21.0755 18.2765C22.4122 18.3994 23.6892 18.8883 24.7663 19.6894L30.599 24.0278L44.1845 34.1128C44.9618 34.6862 45.6184 35.4075 46.1165 36.2352C46.6146 37.0629 46.9443 37.9808 47.0869 38.9362C47.2296 39.8916 47.1823 40.8658 46.9476 41.8029C46.713 42.7399 46.2957 43.6215 45.7197 44.397Z" fill="url(#paint2_linear_121_968)"/>
<path d="M27.3725 3.39822L27.3698 3.40188C24.9451 6.66353 25.6236 11.2732 28.8852 13.6979L34.6238 17.964C37.8854 20.3887 42.4951 19.7102 44.9198 16.4485L44.9225 16.4449C47.3472 13.1832 46.6687 8.57354 43.4071 6.14884L37.6685 1.88279C34.4069 -0.54191 29.7972 0.136571 27.3725 3.39822Z" fill="url(#paint3_linear_121_968)"/>
<defs>
<linearGradient id="paint0_linear_121_968" x1="6.0817" y1="36.8841" x2="25.9391" y2="36.8841" gradientUnits="userSpaceOnUse">
<stop stop-color="#00A4CC"/>
<stop offset="1" stop-color="#4DD3A0"/>
</linearGradient>
<linearGradient id="paint1_linear_121_968" x1="-0.000101901" y1="58.6197" x2="52.7977" y2="58.6197" gradientUnits="userSpaceOnUse">
<stop stop-color="#00A4CC"/>
<stop offset="1" stop-color="#4DD3A0"/>
</linearGradient>
<linearGradient id="paint2_linear_121_968" x1="13.051" y1="32.7995" x2="47.1824" y2="32.7995" gradientUnits="userSpaceOnUse">
<stop stop-color="#00A4CC"/>
<stop offset="1" stop-color="#4DD3A0"/>
</linearGradient>
<linearGradient id="paint3_linear_121_968" x1="25.9317" y1="9.91375" x2="46.387" y2="9.91375" gradientUnits="userSpaceOnUse">
<stop stop-color="#00A4CC"/>
<stop offset="1" stop-color="#4DD3A0"/>
</linearGradient>
</defs>
</svg>
