<svg width="45" height="67" viewBox="0 0 45 67" fill="none" xmlns="http://www.w3.org/2000/svg">
<path d="M11.8537 23.222C11.8537 23.222 11.8537 23.2221 11.8537 23.2524L11.9143 23.4038C12.0052 23.6273 12.0998 23.8546 12.168 24.0666C12.5831 24.8352 12.7781 25.7035 12.7313 26.5758C12.6845 27.4481 12.3978 28.2906 11.9028 29.0104C11.4078 29.7302 10.7237 30.2993 9.92592 30.6552C9.12811 31.011 8.24756 31.1397 7.38129 31.0271C7.19273 31.0054 7.00293 30.9953 6.81314 30.9968H6.74877C6.41054 30.996 6.07312 31.029 5.74146 31.0953C8.14432 34.946 11.9442 37.7172 16.3451 38.8283C16.2278 38.6252 16.1253 38.4138 16.0383 38.1959C15.7098 37.4425 15.4869 36.6473 15.3756 35.8329C15.2569 35.1837 15.2841 34.5162 15.4554 33.8788C15.6267 33.2414 15.9377 32.6501 16.366 32.1479C16.7942 31.6457 17.3288 31.2452 17.9311 30.9753C18.5334 30.7055 19.1883 30.5731 19.8481 30.5878C20.456 30.5361 21.0676 30.5462 21.6734 30.6181C21.9062 30.6443 22.1374 30.6822 22.3664 30.7317C20.0026 26.7913 16.187 23.9358 11.74 22.7791L11.8537 23.222Z" fill="url(#paint0_linear_121_1338)"/>
<path d="M43.5851 64.5006C42.6122 65.8106 41.1588 66.6806 39.5446 66.9192C37.9304 67.1578 36.2875 66.7455 34.9772 65.7731L3.13604 42.1004C2.175 41.3824 1.44489 40.399 1.03566 39.2713C0.62644 38.1437 0.555923 36.9209 0.832837 35.7537C1.10975 34.5865 1.72197 33.5257 2.59413 32.7021C3.46629 31.8784 4.56032 31.3278 5.74146 31.1181C6.07312 31.0517 6.41055 31.0188 6.74878 31.0196H6.81315C7.00294 31.0181 7.19274 31.0282 7.38129 31.0499C8.49971 31.1501 9.56816 31.5591 10.4676 32.2314L15.3454 35.8555L42.3089 55.904C42.9579 56.3841 43.5058 56.9875 43.9212 57.6797C44.3367 58.3718 44.6116 59.1391 44.7301 59.9376C44.8486 60.7361 44.8085 61.5501 44.612 62.3331C44.4155 63.1161 44.0666 63.8527 43.5851 64.5006Z" fill="url(#paint1_linear_121_1338)"/>
<path d="M38.9005 37.1167C38.4191 37.7652 37.8147 38.3126 37.1218 38.7275C36.4288 39.1424 35.6609 39.4167 34.8619 39.5349C34.0629 39.653 33.2486 39.6126 32.4652 39.4161C31.6818 39.2195 30.9449 38.8705 30.2964 38.3891L14.0463 26.3275C13.0836 25.6104 12.352 24.6272 11.9417 23.4991C11.5314 22.371 11.4604 21.1475 11.7375 19.9795C12.0146 18.8115 12.6276 17.7503 13.5009 16.9267C14.3742 16.1031 15.4696 15.5533 16.6518 15.3451C16.9831 15.2757 17.3207 15.2414 17.6591 15.2428H17.7235C17.9132 15.2432 18.1028 15.2533 18.2915 15.2731C19.4093 15.3759 20.4772 15.7848 21.3779 16.4547L26.2556 20.0827L37.6166 28.5164C38.2667 28.9959 38.8158 29.5991 39.2323 30.2913C39.6488 30.9835 39.9246 31.751 40.0439 32.55C40.1631 33.349 40.1236 34.1636 39.9274 34.9473C39.7312 35.7309 39.3822 36.4681 38.9005 37.1167Z" fill="url(#paint2_linear_121_1338)"/>
<path d="M23.5575 2.83128L23.5552 2.83434C21.5275 5.56193 22.0949 9.41683 24.8225 11.4445L29.6215 15.012C32.3491 17.0397 36.204 16.4723 38.2316 13.7447L38.2339 13.7417C40.2616 11.0141 39.6942 7.15919 36.9666 5.13151L32.1677 1.56398C29.4401 -0.463696 25.5852 0.103691 23.5575 2.83128Z" fill="url(#paint3_linear_121_1338)"/>
<defs>
<linearGradient id="paint0_linear_121_1338" x1="5.75282" y1="30.834" x2="22.3588" y2="30.834" gradientUnits="userSpaceOnUse">
<stop stop-color="#00A4CC"/>
<stop offset="1" stop-color="#4DD3A0"/>
</linearGradient>
<linearGradient id="paint1_linear_121_1338" x1="0.666867" y1="49.0117" x2="44.8197" y2="49.0117" gradientUnits="userSpaceOnUse">
<stop stop-color="#00A4CC"/>
<stop offset="1" stop-color="#4DD3A0"/>
</linearGradient>
<linearGradient id="paint2_linear_121_1338" x1="11.5809" y1="27.4181" x2="40.1237" y2="27.4181" gradientUnits="userSpaceOnUse">
<stop stop-color="#00A4CC"/>
<stop offset="1" stop-color="#4DD3A0"/>
</linearGradient>
<linearGradient id="paint3_linear_121_1338" x1="22.3526" y1="8.27996" x2="39.4586" y2="8.27996" gradientUnits="userSpaceOnUse">
<stop stop-color="#00A4CC"/>
<stop offset="1" stop-color="#4DD3A0"/>
</linearGradient>
</defs>
</svg>
