<svg width="34" height="51" viewBox="0 0 34 51" fill="none" xmlns="http://www.w3.org/2000/svg">
<path d="M8.39025 17.4165C8.39025 17.4165 8.39025 17.4166 8.39025 17.4393L8.43567 17.5529C8.50384 17.7204 8.5748 17.8909 8.62593 18.05C8.93728 18.6264 9.0835 19.2776 9.0484 19.9318C9.01329 20.5861 8.79825 21.218 8.427 21.7578C8.05575 22.2976 7.54273 22.7245 6.94438 22.9914C6.34602 23.2583 5.68561 23.3548 5.0359 23.2703C4.89449 23.254 4.75214 23.2465 4.60979 23.2476H4.56151C4.30785 23.247 4.05478 23.2717 3.80603 23.3215C5.60818 26.2095 8.45812 28.2879 11.7587 29.1213C11.6708 28.9689 11.5939 28.8104 11.5287 28.647C11.2823 28.0818 11.1151 27.4855 11.0317 26.8747C10.9426 26.3877 10.963 25.8871 11.0915 25.4091C11.22 24.9311 11.4532 24.4876 11.7744 24.1109C12.0956 23.7343 12.4966 23.4339 12.9483 23.2315C13.4 23.0291 13.8912 22.9298 14.386 22.9409C14.8419 22.9021 15.3006 22.9097 15.755 22.9636C15.9296 22.9832 16.103 23.0116 16.2747 23.0488C14.5019 20.0935 11.6402 17.9519 8.30496 17.0843L8.39025 17.4165Z" fill="url(#paint0_linear_6_54)"/>
<path d="M32.1888 48.3755C31.4591 49.358 30.369 50.0104 29.1584 50.1894C27.9477 50.3684 26.7156 50.0592 25.7329 49.3298L1.85197 31.5753C1.13119 31.0368 0.583604 30.2993 0.276686 29.4535C-0.0302314 28.6078 -0.0831191 27.6907 0.124567 26.8153C0.332252 25.9399 0.791416 25.1443 1.44554 24.5266C2.09966 23.9088 2.92018 23.4959 3.80604 23.3386C4.05478 23.2888 4.30785 23.2641 4.56152 23.2647H4.6098C4.75214 23.2635 4.8945 23.2711 5.03591 23.2874C5.87472 23.3626 6.67606 23.6693 7.35064 24.1735L11.009 26.8917L31.2316 41.928C31.7183 42.2881 32.1293 42.7407 32.4409 43.2597C32.7525 43.7788 32.9586 44.3543 33.0475 44.9532C33.1364 45.5521 33.1063 46.1626 32.9589 46.7498C32.8116 47.3371 32.5499 47.8895 32.1888 48.3755Z" fill="url(#paint1_linear_6_54)"/>
<path d="M28.6754 27.8375C28.3144 28.3239 27.8611 28.7344 27.3414 29.0456C26.8217 29.3568 26.2457 29.5625 25.6465 29.6511C25.0473 29.7398 24.4365 29.7095 23.849 29.562C23.2614 29.4146 22.7087 29.1529 22.2224 28.7918L10.0348 19.7456C9.31276 19.2078 8.76407 18.4704 8.45636 17.6243C8.14864 16.7783 8.09538 15.8606 8.3032 14.9846C8.51101 14.1087 8.97076 13.3127 9.62573 12.695C10.2807 12.0774 11.1023 11.665 11.9889 11.5088C12.2374 11.4568 12.4906 11.4311 12.7444 11.4321H12.7927C12.935 11.4324 13.0772 11.44 13.2187 11.4548C14.0571 11.5319 14.858 11.8386 15.5335 12.341L19.1918 15.062L27.7125 21.3873C28.2001 21.7469 28.6119 22.1993 28.9243 22.7185C29.2367 23.2376 29.4435 23.8133 29.533 24.4125C29.6224 25.0117 29.5927 25.6227 29.4456 26.2105C29.2984 26.7982 29.0367 27.3511 28.6754 27.8375Z" fill="url(#paint2_linear_6_54)"/>
<path d="M17.1681 2.12346L17.1664 2.12575C15.6457 4.17144 16.0712 7.06262 18.1169 8.58338L21.7161 11.259C23.7618 12.7798 26.653 12.3543 28.1737 10.3086L28.1754 10.3063C29.6962 8.26057 29.2707 5.3694 27.225 3.84864L23.6257 1.17299C21.5801 -0.347772 18.6889 0.0777681 17.1681 2.12346Z" fill="url(#paint3_linear_6_54)"/>
<defs>
<linearGradient id="paint0_linear_6_54" x1="3.81455" y1="23.1255" x2="16.2691" y2="23.1255" gradientUnits="userSpaceOnUse">
<stop stop-color="#00A4CC"/>
<stop offset="1" stop-color="#4DD3A0"/>
</linearGradient>
<linearGradient id="paint1_linear_6_54" x1="8.92123e-05" y1="36.7588" x2="33.1147" y2="36.7588" gradientUnits="userSpaceOnUse">
<stop stop-color="#00A4CC"/>
<stop offset="1" stop-color="#4DD3A0"/>
</linearGradient>
<linearGradient id="paint2_linear_6_54" x1="8.18577" y1="20.5636" x2="29.5928" y2="20.5636" gradientUnits="userSpaceOnUse">
<stop stop-color="#00A4CC"/>
<stop offset="1" stop-color="#4DD3A0"/>
</linearGradient>
<linearGradient id="paint3_linear_6_54" x1="16.2645" y1="6.20997" x2="29.094" y2="6.20997" gradientUnits="userSpaceOnUse">
<stop stop-color="#00A4CC"/>
<stop offset="1" stop-color="#4DD3A0"/>
</linearGradient>
</defs>
</svg>
