<svg width="45" height="67" viewBox="0 0 45 67" fill="none" xmlns="http://www.w3.org/2000/svg">
<path d="M11.8535 23.222C11.8535 23.222 11.8535 23.2221 11.8535 23.2524L11.9141 23.4038C12.005 23.6273 12.0996 23.8546 12.1677 24.0666C12.5829 24.8352 12.7778 25.7035 12.731 26.5758C12.6842 27.4481 12.3975 28.2906 11.9025 29.0104C11.4075 29.7302 10.7235 30.2993 9.92567 30.6552C9.12787 31.011 8.24732 31.1397 7.38104 31.0271C7.19249 31.0054 7.00269 30.9953 6.8129 30.9968H6.74852C6.4103 30.996 6.07287 31.029 5.74121 31.0953C8.14407 34.946 11.944 37.7172 16.3448 38.8283C16.2275 38.6252 16.125 38.4138 16.0381 38.1959C15.7096 37.4425 15.4866 36.6473 15.3754 35.8329C15.2566 35.1837 15.2838 34.5162 15.4551 33.8788C15.6264 33.2414 15.9375 32.6501 16.3657 32.1479C16.794 31.6457 17.3286 31.2452 17.9309 30.9753C18.5332 30.7055 19.188 30.5731 19.8479 30.5878C20.4558 30.5361 21.0673 30.5462 21.6732 30.6181C21.906 30.6443 22.1372 30.6822 22.3661 30.7317C20.0024 26.7913 16.1868 23.9358 11.7398 22.7791L11.8535 23.222Z" fill="url(#paint0_linear_126_1501)"/>
<path d="M43.5849 64.5006C42.612 65.8106 41.1585 66.6806 39.5443 66.9192C37.9301 67.1578 36.2873 66.7455 34.977 65.7731L3.1358 42.1004C2.17475 41.3824 1.44464 40.399 1.03542 39.2713C0.626195 38.1437 0.555678 36.9209 0.832593 35.7537C1.10951 34.5865 1.72173 33.5257 2.59389 32.7021C3.46605 31.8784 4.56008 31.3278 5.74122 31.1181C6.07288 31.0517 6.41031 31.0188 6.74853 31.0196H6.8129C7.0027 31.0181 7.1925 31.0282 7.38105 31.0499C8.49946 31.1501 9.56791 31.5591 10.4674 32.2314L15.3451 35.8555L42.3087 55.904C42.9576 56.3841 43.5055 56.9875 43.921 57.6797C44.3364 58.3718 44.6113 59.1391 44.7299 59.9376C44.8484 60.7361 44.8082 61.5501 44.6117 62.3331C44.4153 63.1161 44.0664 63.8527 43.5849 64.5006Z" fill="url(#paint1_linear_126_1501)"/>
<path d="M38.9003 37.1167C38.4189 37.7652 37.8145 38.3126 37.1215 38.7275C36.4286 39.1424 35.6606 39.4167 34.8617 39.5349C34.0627 39.653 33.2483 39.6126 32.465 39.4161C31.6816 39.2195 30.9447 38.8705 30.2962 38.3891L14.046 26.3275C13.0834 25.6104 12.3518 24.6272 11.9415 23.4991C11.5312 22.371 11.4602 21.1475 11.7373 19.9795C12.0144 18.8115 12.6273 17.7503 13.5006 16.9267C14.3739 16.1031 15.4694 15.5533 16.6516 15.3451C16.9828 15.2757 17.3204 15.2414 17.6589 15.2428H17.7232C17.913 15.2432 18.1026 15.2533 18.2913 15.2731C19.4091 15.3759 20.477 15.7848 21.3777 16.4547L26.2554 20.0827L37.6164 28.5164C38.2665 28.9959 38.8156 29.5991 39.2321 30.2913C39.6486 30.9835 39.9243 31.751 40.0436 32.55C40.1629 33.349 40.1233 34.1636 39.9271 34.9473C39.7309 35.7309 39.382 36.4681 38.9003 37.1167Z" fill="url(#paint2_linear_126_1501)"/>
<path d="M23.5575 2.83128L23.5552 2.83434C21.5275 5.56193 22.0949 9.41683 24.8225 11.4445L29.6215 15.012C32.3491 17.0397 36.204 16.4723 38.2316 13.7447L38.2339 13.7417C40.2616 11.0141 39.6942 7.15919 36.9666 5.13151L32.1677 1.56398C29.4401 -0.463696 25.5852 0.103691 23.5575 2.83128Z" fill="url(#paint3_linear_126_1501)"/>
<defs>
<linearGradient id="paint0_linear_126_1501" x1="5.75257" y1="30.834" x2="22.3586" y2="30.834" gradientUnits="userSpaceOnUse">
<stop stop-color="#00A4CC"/>
<stop offset="1" stop-color="#4DD3A0"/>
</linearGradient>
<linearGradient id="paint1_linear_126_1501" x1="0.666623" y1="49.0117" x2="44.8194" y2="49.0117" gradientUnits="userSpaceOnUse">
<stop stop-color="#00A4CC"/>
<stop offset="1" stop-color="#4DD3A0"/>
</linearGradient>
<linearGradient id="paint2_linear_126_1501" x1="11.5807" y1="27.4181" x2="40.1235" y2="27.4181" gradientUnits="userSpaceOnUse">
<stop stop-color="#00A4CC"/>
<stop offset="1" stop-color="#4DD3A0"/>
</linearGradient>
<linearGradient id="paint3_linear_126_1501" x1="22.3526" y1="8.27996" x2="39.4586" y2="8.27996" gradientUnits="userSpaceOnUse">
<stop stop-color="#00A4CC"/>
<stop offset="1" stop-color="#4DD3A0"/>
</linearGradient>
</defs>
</svg>
