<svg width="53" height="81" viewBox="0 0 53 81" fill="none" xmlns="http://www.w3.org/2000/svg">
<path d="M13.3774 27.7814C13.3774 27.7814 13.3774 27.7815 13.3774 27.8178L13.4498 27.9988C13.5585 28.266 13.6717 28.5378 13.7532 28.7914C14.2496 29.7105 14.4827 30.7487 14.4268 31.7918C14.3708 32.8349 14.0279 33.8424 13.436 34.7031C12.8441 35.5639 12.0261 36.2445 11.0721 36.67C10.1181 37.0955 9.06516 37.2494 8.02926 37.1147C7.80379 37.0887 7.57683 37.0767 7.34988 37.0785H7.2729C6.86845 37.0775 6.46496 37.117 6.06836 37.1963C8.9417 41.8009 13.4856 45.1148 18.7481 46.4435C18.6079 46.2005 18.4853 45.9478 18.3813 45.6872C17.9885 44.7862 17.7219 43.8353 17.5889 42.8615C17.4469 42.0851 17.4794 41.287 17.6843 40.5248C17.8891 39.7626 18.2611 39.0555 18.7731 38.455C19.2852 37.8544 19.9245 37.3755 20.6448 37.0528C21.365 36.7301 22.1481 36.5718 22.9371 36.5894C23.664 36.5276 24.3953 36.5397 25.1198 36.6256C25.3981 36.6569 25.6746 36.7023 25.9484 36.7615C23.1218 32.0496 18.5592 28.635 13.2414 27.2517L13.3774 27.7814Z" fill="url(#paint0_linear_126_1871)"/>
<path d="M51.3217 77.1415C50.1583 78.708 48.4203 79.7483 46.49 80.0336C44.5597 80.319 42.5953 79.826 41.0284 78.6631L2.95278 50.3553C1.80356 49.4968 0.930497 48.3208 0.441148 46.9724C-0.0482009 45.6239 -0.132525 44.1617 0.198609 42.766C0.529742 41.3702 1.26183 40.1018 2.30476 39.1168C3.34769 38.1319 4.65593 37.4735 6.06833 37.2227C6.46493 37.1434 6.86843 37.1039 7.27288 37.1049H7.34985C7.57681 37.1031 7.80377 37.1152 8.02924 37.1411C9.36664 37.261 10.6443 37.7501 11.7198 38.5539L17.5527 42.8877L49.7956 66.8617C50.5716 67.4358 51.2268 68.1574 51.7236 68.985C52.2204 69.8127 52.5491 70.7302 52.6909 71.685C52.8326 72.6399 52.7846 73.6133 52.5496 74.5496C52.3147 75.4859 51.8975 76.3667 51.3217 77.1415Z" fill="url(#paint1_linear_126_1871)"/>
<path d="M45.72 44.3968C45.1443 45.1722 44.4216 45.8268 43.593 46.323C42.7644 46.8191 41.846 47.1472 40.8906 47.2884C39.9352 47.4297 38.9614 47.3815 38.0246 47.1464C37.0879 46.9113 36.2067 46.494 35.4312 45.9183L15.9993 31.495C14.8482 30.6376 13.9733 29.4618 13.4827 28.1129C12.9921 26.7639 12.9072 25.3008 13.2385 23.9041C13.5699 22.5075 14.3029 21.2384 15.3472 20.2536C16.3914 19.2688 17.7014 18.6113 19.115 18.3623C19.5111 18.2794 19.9148 18.2383 20.3196 18.24H20.3965C20.6234 18.2405 20.8501 18.2525 21.0758 18.2762C22.4125 18.3991 23.6895 18.8881 24.7665 19.6892L30.5992 24.0276L44.1847 34.1125C44.9621 34.686 45.6187 35.4073 46.1167 36.235C46.6148 37.0627 46.9446 37.9805 47.0872 38.9359C47.2298 39.8914 47.1825 40.8655 46.9479 41.8026C46.7133 42.7397 46.296 43.6213 45.72 44.3968Z" fill="url(#paint2_linear_126_1871)"/>
<path d="M27.3725 3.39846L27.3698 3.40212C24.9451 6.66377 25.6236 11.2735 28.8852 13.6982L34.6238 17.9642C37.8854 20.3889 42.4951 19.7104 44.9198 16.4488L44.9225 16.4451C47.3472 13.1835 46.6687 8.57379 43.4071 6.14909L37.6685 1.88303C34.4069 -0.541665 29.7972 0.136816 27.3725 3.39846Z" fill="url(#paint3_linear_126_1871)"/>
<defs>
<linearGradient id="paint0_linear_126_1871" x1="6.08194" y1="36.8838" x2="25.9394" y2="36.8838" gradientUnits="userSpaceOnUse">
<stop stop-color="#00A4CC"/>
<stop offset="1" stop-color="#4DD3A0"/>
</linearGradient>
<linearGradient id="paint1_linear_126_1871" x1="0.00014224" y1="58.6199" x2="52.798" y2="58.6199" gradientUnits="userSpaceOnUse">
<stop stop-color="#00A4CC"/>
<stop offset="1" stop-color="#4DD3A0"/>
</linearGradient>
<linearGradient id="paint2_linear_126_1871" x1="13.0513" y1="32.7992" x2="47.1827" y2="32.7992" gradientUnits="userSpaceOnUse">
<stop stop-color="#00A4CC"/>
<stop offset="1" stop-color="#4DD3A0"/>
</linearGradient>
<linearGradient id="paint3_linear_126_1871" x1="25.9317" y1="9.91399" x2="46.387" y2="9.914" gradientUnits="userSpaceOnUse">
<stop stop-color="#00A4CC"/>
<stop offset="1" stop-color="#4DD3A0"/>
</linearGradient>
</defs>
</svg>
