<svg width="53" height="81" viewBox="0 0 53 81" fill="none" xmlns="http://www.w3.org/2000/svg">
<path d="M13.3773 28.2817C13.3773 28.2817 13.3773 28.2818 13.3773 28.318L13.4497 28.4991C13.5584 28.7662 13.6716 29.038 13.7531 29.2916C14.2495 30.2107 14.4826 31.249 14.4267 32.2921C14.3707 33.3352 14.0278 34.3427 13.4359 35.2034C12.844 36.0641 12.026 36.7447 11.072 37.1702C10.118 37.5958 9.06503 37.7496 8.02914 37.615C7.80367 37.589 7.57671 37.5769 7.34976 37.5788H7.27278C6.86833 37.5778 6.46484 37.6172 6.06824 37.6965C8.94158 42.3012 13.4855 45.615 18.748 46.9437C18.6078 46.7007 18.4852 46.448 18.3812 46.1875C17.9884 45.2864 17.7218 44.3356 17.5888 43.3617C17.4467 42.5854 17.4793 41.7872 17.6841 41.025C17.889 40.2629 18.2609 39.5557 18.773 38.9552C19.2851 38.3547 19.9244 37.8757 20.6446 37.5531C21.3649 37.2304 22.1479 37.0721 22.9369 37.0897C23.6639 37.0278 24.3952 37.0399 25.1197 37.1259C25.398 37.1572 25.6745 37.2025 25.9483 37.2617C23.1217 32.5498 18.5591 29.1352 13.2413 27.752L13.3773 28.2817Z" fill="url(#paint0_linear_115_3492)"/>
<path d="M51.3216 77.6413C50.1582 79.2078 48.4202 80.2481 46.4899 80.5334C44.5596 80.8187 42.5951 80.3257 41.0283 79.1629L2.95265 50.8551C1.80344 49.9965 0.930375 48.8206 0.441026 47.4721C-0.0483229 46.1236 -0.132647 44.6615 0.198487 43.2657C0.52962 41.87 1.26171 40.6015 2.30464 39.6166C3.34757 38.6316 4.6558 37.9733 6.06821 37.7224C6.46481 37.6431 6.86831 37.6037 7.27275 37.6047H7.34973C7.57668 37.6028 7.80365 37.6149 8.02912 37.6409C9.36651 37.7608 10.6442 38.2498 11.7197 39.0537L17.5525 43.3875L49.7955 67.3615C50.5715 67.9356 51.2267 68.6571 51.7235 69.4848C52.2203 70.3124 52.549 71.2299 52.6907 72.1848C52.8325 73.1396 52.7844 74.1131 52.5495 75.0494C52.3146 75.9857 51.8974 76.8665 51.3216 77.6413Z" fill="url(#paint1_linear_115_3492)"/>
<path d="M45.7199 44.897C45.1442 45.6725 44.4214 46.3271 43.5928 46.8232C42.7642 47.3194 41.8459 47.6474 40.8905 47.7887C39.9351 47.93 38.9613 47.8817 38.0245 47.6466C37.0878 47.4115 36.2066 46.9943 35.4311 46.4186L15.9992 31.9953C14.848 31.1378 13.9732 29.9621 13.4826 28.6131C12.992 27.2641 12.9071 25.801 13.2384 24.4044C13.5697 23.0077 14.3028 21.7387 15.347 20.7539C16.3913 19.769 17.7012 19.1116 19.1149 18.8626C19.511 18.7796 19.9147 18.7386 20.3194 18.7403H20.3964C20.6233 18.7407 20.85 18.7528 21.0757 18.7765C22.4124 18.8994 23.6894 19.3883 24.7664 20.1894L30.5991 24.5278L44.1846 34.6128C44.962 35.1862 45.6186 35.9075 46.1166 36.7352C46.6147 37.5629 46.9444 38.4808 47.0871 39.4362C47.2297 40.3916 47.1824 41.3658 46.9478 42.3029C46.7131 43.2399 46.2958 44.1215 45.7199 44.897Z" fill="url(#paint2_linear_115_3492)"/>
<path d="M27.3725 3.89822L27.3698 3.90188C24.9451 7.16353 25.6236 11.7732 28.8852 14.1979L34.6238 18.464C37.8854 20.8887 42.4951 20.2102 44.9198 16.9485L44.9225 16.9449C47.3472 13.6832 46.6687 9.07354 43.4071 6.64884L37.6685 2.38279C34.4069 -0.0419096 29.7972 0.636571 27.3725 3.89822Z" fill="url(#paint3_linear_115_3492)"/>
<defs>
<linearGradient id="paint0_linear_115_3492" x1="6.08182" y1="37.3841" x2="25.9392" y2="37.3841" gradientUnits="userSpaceOnUse">
<stop stop-color="#00A4CC"/>
<stop offset="1" stop-color="#4DD3A0"/>
</linearGradient>
<linearGradient id="paint1_linear_115_3492" x1="2.01695e-05" y1="59.1197" x2="52.7979" y2="59.1197" gradientUnits="userSpaceOnUse">
<stop stop-color="#00A4CC"/>
<stop offset="1" stop-color="#4DD3A0"/>
</linearGradient>
<linearGradient id="paint2_linear_115_3492" x1="13.0512" y1="33.2995" x2="47.1825" y2="33.2995" gradientUnits="userSpaceOnUse">
<stop stop-color="#00A4CC"/>
<stop offset="1" stop-color="#4DD3A0"/>
</linearGradient>
<linearGradient id="paint3_linear_115_3492" x1="25.9317" y1="10.4138" x2="46.387" y2="10.4138" gradientUnits="userSpaceOnUse">
<stop stop-color="#00A4CC"/>
<stop offset="1" stop-color="#4DD3A0"/>
</linearGradient>
</defs>
</svg>
