<svg width="45" height="67" viewBox="0 0 45 67" fill="none" xmlns="http://www.w3.org/2000/svg">
<path d="M11.8536 23.222C11.8536 23.222 11.8536 23.2221 11.8536 23.2524L11.9142 23.4038C12.005 23.6273 12.0997 23.8546 12.1678 24.0666C12.583 24.8352 12.7779 25.7035 12.7311 26.5758C12.6843 27.4481 12.3976 28.2906 11.9026 29.0104C11.4076 29.7302 10.7236 30.2993 9.92576 30.6552C9.12796 31.011 8.24741 31.1397 7.38113 31.0271C7.19258 31.0054 7.00278 30.9953 6.81299 30.9968H6.74862C6.41039 30.996 6.07296 31.029 5.7413 31.0953C8.14417 34.946 11.9441 37.7172 16.3449 38.8283C16.2276 38.6252 16.1251 38.4138 16.0382 38.1959C15.7097 37.4425 15.4867 36.6473 15.3755 35.8329C15.2567 35.1837 15.2839 34.5162 15.4552 33.8788C15.6265 33.2414 15.9376 32.6501 16.3658 32.1479C16.794 31.6457 17.3287 31.2452 17.931 30.9753C18.5333 30.7055 19.1881 30.5731 19.848 30.5878C20.4559 30.5361 21.0674 30.5462 21.6733 30.6181C21.906 30.6443 22.1373 30.6822 22.3662 30.7317C20.0025 26.7913 16.1869 23.9358 11.7399 22.7791L11.8536 23.222Z" fill="url(#paint0_linear_121_1283)"/>
<path d="M43.585 64.5006C42.6121 65.8106 41.1586 66.6806 39.5444 66.9192C37.9302 67.1578 36.2874 66.7455 34.9771 65.7731L3.13589 42.1004C2.17485 41.3824 1.44473 40.399 1.03551 39.2713C0.626287 38.1437 0.55577 36.9209 0.832684 35.7537C1.1096 34.5865 1.72182 33.5257 2.59398 32.7021C3.46614 31.8784 4.56017 31.3278 5.74131 31.1181C6.07297 31.0517 6.4104 31.0188 6.74862 31.0196H6.813C7.00279 31.0181 7.19259 31.0282 7.38114 31.0499C8.49955 31.1501 9.568 31.5591 10.4675 32.2314L15.3452 35.8555L42.3087 55.904C42.9577 56.3841 43.5056 56.9875 43.9211 57.6797C44.3365 58.3718 44.6114 59.1391 44.7299 59.9376C44.8485 60.7361 44.8083 61.5501 44.6118 62.3331C44.4154 63.1161 44.0665 63.8527 43.585 64.5006Z" fill="url(#paint1_linear_121_1283)"/>
<path d="M38.9005 37.1167C38.4191 37.7652 37.8146 38.3126 37.1217 38.7275C36.4288 39.1424 35.6608 39.4167 34.8618 39.5349C34.0629 39.653 33.2485 39.6126 32.4651 39.4161C31.6818 39.2195 30.9448 38.8705 30.2963 38.3891L14.0462 26.3275C13.0835 25.6104 12.352 24.6272 11.9417 23.4991C11.5314 22.371 11.4604 21.1475 11.7375 19.9795C12.0145 18.8115 12.6275 17.7503 13.5008 16.9267C14.3741 16.1031 15.4696 15.5533 16.6517 15.3451C16.983 15.2757 17.3206 15.2414 17.6591 15.2428H17.7234C17.9132 15.2432 18.1028 15.2533 18.2915 15.2731C19.4093 15.3759 20.4772 15.7848 21.3779 16.4547L26.2555 20.0827L37.6166 28.5164C38.2667 28.9959 38.8158 29.5991 39.2323 30.2913C39.6488 30.9835 39.9245 31.751 40.0438 32.55C40.1631 33.349 40.1235 34.1636 39.9273 34.9473C39.7311 35.7309 39.3821 36.4681 38.9005 37.1167Z" fill="url(#paint2_linear_121_1283)"/>
<path d="M23.5573 2.83128L23.5551 2.83434C21.5274 5.56193 22.0948 9.41683 24.8224 11.4445L29.6213 15.012C32.3489 17.0397 36.2038 16.4723 38.2315 13.7447L38.2338 13.7417C40.2614 11.0141 39.6941 7.15919 36.9665 5.13151L32.1675 1.56398C29.4399 -0.463696 25.585 0.103691 23.5573 2.83128Z" fill="url(#paint3_linear_121_1283)"/>
<defs>
<linearGradient id="paint0_linear_121_1283" x1="5.75266" y1="30.834" x2="22.3587" y2="30.834" gradientUnits="userSpaceOnUse">
<stop stop-color="#00A4CC"/>
<stop offset="1" stop-color="#4DD3A0"/>
</linearGradient>
<linearGradient id="paint1_linear_121_1283" x1="0.666714" y1="49.0117" x2="44.8195" y2="49.0117" gradientUnits="userSpaceOnUse">
<stop stop-color="#00A4CC"/>
<stop offset="1" stop-color="#4DD3A0"/>
</linearGradient>
<linearGradient id="paint2_linear_121_1283" x1="11.5809" y1="27.4181" x2="40.1236" y2="27.4181" gradientUnits="userSpaceOnUse">
<stop stop-color="#00A4CC"/>
<stop offset="1" stop-color="#4DD3A0"/>
</linearGradient>
<linearGradient id="paint3_linear_121_1283" x1="22.3525" y1="8.27996" x2="39.4585" y2="8.27996" gradientUnits="userSpaceOnUse">
<stop stop-color="#00A4CC"/>
<stop offset="1" stop-color="#4DD3A0"/>
</linearGradient>
</defs>
</svg>
