<svg width="45" height="67" viewBox="0 0 45 67" fill="none" xmlns="http://www.w3.org/2000/svg">
<path d="M11.8545 23.222C11.8545 23.222 11.8545 23.2221 11.8545 23.2524L11.915 23.4038C12.0059 23.6273 12.1006 23.8546 12.1687 24.0666C12.5839 24.8352 12.7788 25.7035 12.732 26.5758C12.6852 27.4481 12.3985 28.2906 11.9035 29.0104C11.4085 29.7302 10.7245 30.2993 9.92665 30.6552C9.12885 31.011 8.24829 31.1397 7.38202 31.0271C7.19347 31.0054 7.00367 30.9953 6.81387 30.9968H6.7495C6.41128 30.996 6.07385 31.029 5.74219 31.0953C8.14505 34.946 11.945 37.7172 16.3458 38.8283C16.2285 38.6252 16.126 38.4138 16.0391 38.1959C15.7106 37.4425 15.4876 36.6473 15.3764 35.8329C15.2576 35.1837 15.2848 34.5162 15.4561 33.8788C15.6274 33.2414 15.9385 32.6501 16.3667 32.1479C16.7949 31.6457 17.3296 31.2452 17.9319 30.9753C18.5342 30.7055 19.189 30.5731 19.8488 30.5878C20.4567 30.5361 21.0683 30.5462 21.6742 30.6181C21.9069 30.6443 22.1382 30.6822 22.3671 30.7317C20.0033 26.7913 16.1878 23.9358 11.7408 22.7791L11.8545 23.222Z" fill="url(#paint0_linear_126_2525)"/>
<path d="M43.5854 64.5006C42.6125 65.8106 41.159 66.6806 39.5448 66.9192C37.9306 67.1578 36.2878 66.7455 34.9775 65.7731L3.13629 42.1004C2.17524 41.3824 1.44513 40.399 1.03591 39.2713C0.626684 38.1437 0.556167 36.9209 0.833081 35.7537C1.11 34.5865 1.72221 33.5257 2.59438 32.7021C3.46654 31.8784 4.56057 31.3278 5.74171 31.1181C6.07337 31.0517 6.4108 31.0188 6.74902 31.0196H6.81339C7.00319 31.0181 7.19299 31.0282 7.38154 31.0499C8.49995 31.1501 9.5684 31.5591 10.4678 32.2314L15.3456 35.8555L42.3091 55.904C42.9581 56.3841 43.506 56.9875 43.9215 57.6797C44.3369 58.3718 44.6118 59.1391 44.7303 59.9376C44.8489 60.7361 44.8087 61.5501 44.6122 62.3331C44.4158 63.1161 44.0669 63.8527 43.5854 64.5006Z" fill="url(#paint1_linear_126_2525)"/>
<path d="M38.9012 37.1167C38.4198 37.7652 37.8154 38.3126 37.1225 38.7275C36.4296 39.1424 35.6616 39.4167 34.8626 39.5349C34.0637 39.653 33.2493 39.6126 32.4659 39.4161C31.6826 39.2195 30.9456 38.8705 30.2971 38.3891L14.047 26.3275C13.0843 25.6104 12.3527 24.6272 11.9425 23.4991C11.5322 22.371 11.4612 21.1475 11.7382 19.9795C12.0153 18.8115 12.6283 17.7503 13.5016 16.9267C14.3749 16.1031 15.4704 15.5533 16.6525 15.3451C16.9838 15.2757 17.3214 15.2414 17.6598 15.2428H17.7242C17.914 15.2432 18.1035 15.2533 18.2923 15.2731C19.4101 15.3759 20.478 15.7848 21.3787 16.4547L26.2563 20.0827L37.6174 28.5164C38.2675 28.9959 38.8165 29.5991 39.233 30.2913C39.6496 30.9835 39.9253 31.751 40.0446 32.55C40.1639 33.349 40.1243 34.1636 39.9281 34.9473C39.7319 35.7309 39.3829 36.4681 38.9012 37.1167Z" fill="url(#paint2_linear_126_2525)"/>
<path d="M23.5575 2.83128L23.5552 2.83434C21.5275 5.56193 22.0949 9.41683 24.8225 11.4445L29.6215 15.012C32.3491 17.0397 36.204 16.4723 38.2316 13.7447L38.2339 13.7417C40.2616 11.0141 39.6942 7.15919 36.9666 5.13151L32.1677 1.56398C29.4401 -0.463696 25.5852 0.103691 23.5575 2.83128Z" fill="url(#paint3_linear_126_2525)"/>
<defs>
<linearGradient id="paint0_linear_126_2525" x1="5.75355" y1="30.834" x2="22.3595" y2="30.834" gradientUnits="userSpaceOnUse">
<stop stop-color="#00A4CC"/>
<stop offset="1" stop-color="#4DD3A0"/>
</linearGradient>
<linearGradient id="paint1_linear_126_2525" x1="0.667111" y1="49.0117" x2="44.8199" y2="49.0117" gradientUnits="userSpaceOnUse">
<stop stop-color="#00A4CC"/>
<stop offset="1" stop-color="#4DD3A0"/>
</linearGradient>
<linearGradient id="paint2_linear_126_2525" x1="11.5817" y1="27.4181" x2="40.1244" y2="27.4181" gradientUnits="userSpaceOnUse">
<stop stop-color="#00A4CC"/>
<stop offset="1" stop-color="#4DD3A0"/>
</linearGradient>
<linearGradient id="paint3_linear_126_2525" x1="22.3526" y1="8.27996" x2="39.4586" y2="8.27996" gradientUnits="userSpaceOnUse">
<stop stop-color="#00A4CC"/>
<stop offset="1" stop-color="#4DD3A0"/>
</linearGradient>
</defs>
</svg>
