<svg width="53" height="81" viewBox="0 0 53 81" fill="none" xmlns="http://www.w3.org/2000/svg">
<path d="M13.3774 28.2814C13.3774 28.2814 13.3774 28.2815 13.3774 28.3178L13.4498 28.4988C13.5585 28.766 13.6717 29.0378 13.7532 29.2914C14.2496 30.2105 14.4827 31.2487 14.4268 32.2918C14.3708 33.3349 14.0279 34.3424 13.436 35.2031C12.8441 36.0639 12.0261 36.7445 11.0721 37.17C10.1181 37.5955 9.06516 37.7494 8.02926 37.6147C7.80379 37.5887 7.57683 37.5767 7.34988 37.5785H7.2729C6.86845 37.5775 6.46496 37.617 6.06836 37.6963C8.9417 42.3009 13.4856 45.6148 18.7481 46.9435C18.6079 46.7005 18.4853 46.4478 18.3813 46.1872C17.9885 45.2862 17.7219 44.3353 17.5889 43.3615C17.4469 42.5851 17.4794 41.787 17.6843 41.0248C17.8891 40.2626 18.2611 39.5555 18.7731 38.955C19.2852 38.3544 19.9245 37.8755 20.6448 37.5528C21.365 37.2301 22.1481 37.0718 22.9371 37.0894C23.664 37.0276 24.3953 37.0397 25.1198 37.1256C25.3981 37.1569 25.6746 37.2023 25.9484 37.2615C23.1218 32.5496 18.5592 29.135 13.2414 27.7517L13.3774 28.2814Z" fill="url(#paint0_linear_121_3264)"/>
<path d="M51.3217 77.6415C50.1583 79.208 48.4203 80.2483 46.49 80.5336C44.5597 80.819 42.5953 80.326 41.0284 79.1631L2.95278 50.8553C1.80356 49.9968 0.930497 48.8208 0.441148 47.4724C-0.0482009 46.1239 -0.132525 44.6617 0.198609 43.266C0.529742 41.8702 1.26183 40.6018 2.30476 39.6168C3.34769 38.6319 4.65593 37.9735 6.06833 37.7227C6.46493 37.6434 6.86843 37.6039 7.27288 37.6049H7.34985C7.57681 37.6031 7.80377 37.6152 8.02924 37.6411C9.36664 37.761 10.6443 38.2501 11.7198 39.0539L17.5527 43.3877L49.7956 67.3617C50.5716 67.9358 51.2268 68.6574 51.7236 69.485C52.2204 70.3127 52.5491 71.2302 52.6909 72.185C52.8326 73.1399 52.7846 74.1133 52.5496 75.0496C52.3147 75.9859 51.8975 76.8667 51.3217 77.6415Z" fill="url(#paint1_linear_121_3264)"/>
<path d="M45.72 44.8968C45.1443 45.6722 44.4216 46.3268 43.593 46.823C42.7644 47.3191 41.846 47.6472 40.8906 47.7884C39.9352 47.9297 38.9614 47.8815 38.0246 47.6464C37.0879 47.4113 36.2067 46.994 35.4312 46.4183L15.9993 31.995C14.8482 31.1376 13.9733 29.9618 13.4827 28.6129C12.9921 27.2639 12.9072 25.8008 13.2385 24.4041C13.5699 23.0075 14.3029 21.7384 15.3472 20.7536C16.3914 19.7688 17.7014 19.1113 19.115 18.8623C19.5111 18.7794 19.9148 18.7383 20.3196 18.74H20.3965C20.6234 18.7405 20.8501 18.7525 21.0758 18.7762C22.4125 18.8991 23.6895 19.3881 24.7665 20.1892L30.5992 24.5276L44.1847 34.6125C44.9621 35.186 45.6187 35.9073 46.1167 36.735C46.6148 37.5627 46.9446 38.4805 47.0872 39.4359C47.2298 40.3914 47.1825 41.3655 46.9479 42.3026C46.7133 43.2397 46.296 44.1213 45.72 44.8968Z" fill="url(#paint2_linear_121_3264)"/>
<path d="M27.3725 3.89846L27.3698 3.90212C24.9451 7.16377 25.6236 11.7735 28.8852 14.1982L34.6238 18.4642C37.8854 20.8889 42.4951 20.2104 44.9198 16.9488L44.9225 16.9451C47.3472 13.6835 46.6687 9.07379 43.4071 6.64909L37.6685 2.38303C34.4069 -0.0416655 29.7972 0.636816 27.3725 3.89846Z" fill="url(#paint3_linear_121_3264)"/>
<defs>
<linearGradient id="paint0_linear_121_3264" x1="6.08194" y1="37.3838" x2="25.9394" y2="37.3838" gradientUnits="userSpaceOnUse">
<stop stop-color="#00A4CC"/>
<stop offset="1" stop-color="#4DD3A0"/>
</linearGradient>
<linearGradient id="paint1_linear_121_3264" x1="0.00014224" y1="59.1199" x2="52.798" y2="59.1199" gradientUnits="userSpaceOnUse">
<stop stop-color="#00A4CC"/>
<stop offset="1" stop-color="#4DD3A0"/>
</linearGradient>
<linearGradient id="paint2_linear_121_3264" x1="13.0513" y1="33.2992" x2="47.1827" y2="33.2992" gradientUnits="userSpaceOnUse">
<stop stop-color="#00A4CC"/>
<stop offset="1" stop-color="#4DD3A0"/>
</linearGradient>
<linearGradient id="paint3_linear_121_3264" x1="25.9317" y1="10.414" x2="46.387" y2="10.414" gradientUnits="userSpaceOnUse">
<stop stop-color="#00A4CC"/>
<stop offset="1" stop-color="#4DD3A0"/>
</linearGradient>
</defs>
</svg>
