<svg width="40" height="61" viewBox="0 0 40 61" fill="none" xmlns="http://www.w3.org/2000/svg">
<path d="M10.033 21.3358C10.033 21.3358 10.033 21.3359 10.033 21.363L10.0873 21.4988C10.1688 21.6992 10.2537 21.903 10.3148 22.0932C10.6871 22.7826 10.862 23.5612 10.82 24.3436C10.778 25.1259 10.5209 25.8815 10.077 26.5271C9.63302 27.1726 9.01955 27.6831 8.30404 28.0022C7.58853 28.3213 6.79881 28.4367 6.02189 28.3357C5.85279 28.3163 5.68256 28.3072 5.51235 28.3086H5.45462C5.15128 28.3078 4.84866 28.3374 4.55121 28.3969C6.70621 31.8504 10.1142 34.3358 14.061 35.3323C13.9559 35.1501 13.8639 34.9605 13.7859 34.7651C13.4913 34.0893 13.2914 33.3762 13.1916 32.6458C13.0851 32.0635 13.1095 31.4649 13.2631 30.8933C13.4168 30.3217 13.6957 29.7913 14.0798 29.3409C14.4638 28.8905 14.9433 28.5313 15.4835 28.2893C16.0237 28.0473 16.611 27.9286 17.2027 27.9418C17.7479 27.8954 18.2964 27.9045 18.8398 27.9689C19.0485 27.9924 19.2559 28.0264 19.4613 28.0708C17.3413 24.5369 13.9193 21.9759 9.93102 20.9385L10.033 21.3358Z" fill="url(#paint0_linear_115_3032)"/>
<path d="M38.4912 58.3557C37.6186 59.5306 36.3151 60.3108 34.8674 60.5248C33.4197 60.7388 31.9463 60.3691 30.7712 59.4969L2.21446 38.2661C1.35255 37.6222 0.69775 36.7402 0.330739 35.7288C-0.0362727 34.7175 -0.0995157 33.6209 0.148834 32.5741C0.397185 31.5272 0.946252 30.5759 1.72845 29.8372C2.51065 29.0985 3.49182 28.6047 4.55113 28.4166C4.84858 28.3571 5.1512 28.3275 5.45453 28.3283H5.51227C5.68248 28.3269 5.8527 28.3359 6.02181 28.3554C7.02485 28.4453 7.98309 28.8121 8.78976 29.415L13.1644 32.6654L37.3466 50.6459C37.9286 51.0765 38.42 51.6176 38.7926 52.2383C39.1652 52.8591 39.4117 53.5472 39.518 54.2633C39.6243 54.9795 39.5883 55.7096 39.4121 56.4118C39.2359 57.114 38.923 57.7746 38.4912 58.3557Z" fill="url(#paint1_linear_115_3032)"/>
<path d="M34.2899 33.7973C33.8581 34.3789 33.316 34.8698 32.6946 35.2419C32.0731 35.614 31.3844 35.8601 30.6678 35.966C29.9513 36.072 29.2209 36.0358 28.5184 35.8595C27.8158 35.6832 27.1549 35.3702 26.5733 34.9384L11.9994 24.121C11.136 23.4779 10.4799 22.5961 10.1119 21.5843C9.74395 20.5726 9.68026 19.4753 9.92877 18.4278C10.1773 17.3803 10.727 16.4285 11.5102 15.6899C12.2935 14.9513 13.2759 14.4582 14.3361 14.2715C14.6332 14.2092 14.936 14.1784 15.2395 14.1797H15.2973C15.4675 14.18 15.6375 14.1891 15.8067 14.2069C16.8092 14.2991 17.767 14.6657 18.5748 15.2666L22.9493 18.5204L33.1384 26.0841C33.7214 26.5142 34.2139 27.0551 34.5874 27.6759C34.961 28.2967 35.2083 28.9851 35.3153 29.7017C35.4222 30.4182 35.3867 31.1488 35.2108 31.8517C35.0348 32.5545 34.7219 33.2156 34.2899 33.7973Z" fill="url(#paint2_linear_115_3032)"/>
<path d="M20.5294 3.04842L20.5273 3.05117C18.7088 5.4974 19.2177 8.95467 21.6639 10.7732L25.9678 13.9727C28.4141 15.7913 31.8713 15.2824 33.6899 12.8362L33.6919 12.8334C35.5104 10.3872 35.0016 6.92991 32.5553 5.11139L28.2514 1.91185C25.8052 0.0933234 22.3479 0.602184 20.5294 3.04842Z" fill="url(#paint3_linear_115_3032)"/>
<defs>
<linearGradient id="paint0_linear_115_3032" x1="4.5614" y1="28.1626" x2="19.4545" y2="28.1626" gradientUnits="userSpaceOnUse">
<stop stop-color="#00A4CC"/>
<stop offset="1" stop-color="#4DD3A0"/>
</linearGradient>
<linearGradient id="paint1_linear_115_3032" x1="-1.53905e-05" y1="44.4645" x2="39.5984" y2="44.4645" gradientUnits="userSpaceOnUse">
<stop stop-color="#00A4CC"/>
<stop offset="1" stop-color="#4DD3A0"/>
</linearGradient>
<linearGradient id="paint2_linear_115_3032" x1="9.78834" y1="25.0991" x2="35.3869" y2="25.0991" gradientUnits="userSpaceOnUse">
<stop stop-color="#00A4CC"/>
<stop offset="1" stop-color="#4DD3A0"/>
</linearGradient>
<linearGradient id="paint3_linear_115_3032" x1="19.4488" y1="7.93507" x2="34.7903" y2="7.93507" gradientUnits="userSpaceOnUse">
<stop stop-color="#00A4CC"/>
<stop offset="1" stop-color="#4DD3A0"/>
</linearGradient>
</defs>
</svg>
