<svg width="34" height="50" viewBox="0 0 34 50" fill="none" xmlns="http://www.w3.org/2000/svg">
<path d="M8.38988 17.1665C8.38988 17.1665 8.38988 17.1666 8.38988 17.1893L8.4353 17.3029C8.50347 17.4704 8.57444 17.6409 8.62556 17.8C8.93692 18.3764 9.08313 19.0276 9.04803 19.6818C9.01293 20.3361 8.79789 20.968 8.42664 21.5078C8.05539 22.0476 7.54236 22.4745 6.94401 22.7414C6.34566 23.0083 5.68524 23.1048 5.03554 23.0203C4.89412 23.004 4.75177 22.9965 4.60943 22.9976H4.56115C4.30748 22.997 4.05441 23.0217 3.80566 23.0715C5.60781 25.9595 8.45776 28.0379 11.7584 28.8713C11.6704 28.7189 11.5935 28.5604 11.5283 28.397C11.282 27.8318 11.1147 27.2355 11.0313 26.6247C10.9422 26.1377 10.9626 25.6371 11.0911 25.1591C11.2196 24.6811 11.4529 24.2376 11.774 23.8609C12.0952 23.4843 12.4962 23.1839 12.9479 22.9815C13.3997 22.7791 13.8908 22.6798 14.3857 22.6909C14.8416 22.6521 15.3003 22.6597 15.7546 22.7136C15.9292 22.7332 16.1027 22.7616 16.2744 22.7988C14.5015 19.8435 11.6399 17.7019 8.30459 16.8343L8.38988 17.1665Z" fill="url(#paint0_linear_36_255)"/>
<path d="M32.1888 48.1255C31.4591 49.108 30.369 49.7604 29.1584 49.9394C27.9477 50.1184 26.7156 49.8092 25.7329 49.0798L1.85197 31.3253C1.13119 30.7868 0.583604 30.0493 0.276686 29.2035C-0.0302314 28.3578 -0.0831191 27.4407 0.124567 26.5653C0.332252 25.6899 0.791416 24.8943 1.44554 24.2766C2.09966 23.6588 2.92018 23.2459 3.80604 23.0886C4.05478 23.0388 4.30785 23.0141 4.56152 23.0147H4.6098C4.75214 23.0135 4.8945 23.0211 5.03591 23.0374C5.87472 23.1126 6.67606 23.4193 7.35064 23.9235L11.009 26.6417L31.2316 41.678C31.7183 42.0381 32.1293 42.4906 32.4409 43.0097C32.7525 43.5288 32.9586 44.1043 33.0475 44.7032C33.1364 45.3021 33.1063 45.9126 32.9589 46.4998C32.8116 47.0871 32.5499 47.6395 32.1888 48.1255Z" fill="url(#paint1_linear_36_255)"/>
<path d="M28.6754 27.5875C28.3144 28.0739 27.8611 28.4844 27.3414 28.7956C26.8217 29.1068 26.2457 29.3125 25.6465 29.4011C25.0473 29.4898 24.4365 29.4595 23.849 29.312C23.2614 29.1646 22.7087 28.9029 22.2224 28.5418L10.0348 19.4956C9.31276 18.9578 8.76407 18.2204 8.45636 17.3743C8.14864 16.5283 8.09538 15.6106 8.3032 14.7346C8.51101 13.8587 8.97076 13.0627 9.62573 12.445C10.2807 11.8274 11.1023 11.415 11.9889 11.2588C12.2374 11.2068 12.4906 11.1811 12.7444 11.1821H12.7927C12.935 11.1824 13.0772 11.19 13.2187 11.2048C14.0571 11.2819 14.858 11.5886 15.5335 12.091L19.1918 14.812L27.7125 21.1373C28.2001 21.4969 28.6119 21.9493 28.9243 22.4685C29.2367 22.9876 29.4435 23.5633 29.533 24.1625C29.6224 24.7617 29.5927 25.3727 29.4456 25.9605C29.2984 26.5482 29.0367 27.1011 28.6754 27.5875Z" fill="url(#paint2_linear_36_255)"/>
<path d="M17.1684 1.87346L17.1667 1.87575C15.6459 3.92144 16.0714 6.81262 18.1171 8.33338L21.7163 11.009C23.762 12.5298 26.6532 12.1043 28.174 10.0586L28.1757 10.0563C29.6964 8.01057 29.2709 5.1194 27.2252 3.59864L23.626 0.922988C21.5803 -0.597772 18.6891 -0.172232 17.1684 1.87346Z" fill="url(#paint3_linear_36_255)"/>
<defs>
<linearGradient id="paint0_linear_36_255" x1="3.81418" y1="22.8755" x2="16.2687" y2="22.8755" gradientUnits="userSpaceOnUse">
<stop stop-color="#00A4CC"/>
<stop offset="1" stop-color="#4DD3A0"/>
</linearGradient>
<linearGradient id="paint1_linear_36_255" x1="8.92123e-05" y1="36.5088" x2="33.1147" y2="36.5088" gradientUnits="userSpaceOnUse">
<stop stop-color="#00A4CC"/>
<stop offset="1" stop-color="#4DD3A0"/>
</linearGradient>
<linearGradient id="paint2_linear_36_255" x1="8.18577" y1="20.3136" x2="29.5928" y2="20.3136" gradientUnits="userSpaceOnUse">
<stop stop-color="#00A4CC"/>
<stop offset="1" stop-color="#4DD3A0"/>
</linearGradient>
<linearGradient id="paint3_linear_36_255" x1="16.2647" y1="5.95997" x2="29.0942" y2="5.95997" gradientUnits="userSpaceOnUse">
<stop stop-color="#00A4CC"/>
<stop offset="1" stop-color="#4DD3A0"/>
</linearGradient>
</defs>
</svg>
