<svg width="119" height="214" viewBox="0 0 119 214" fill="none" xmlns="http://www.w3.org/2000/svg">
<rect width="119" height="214" fill="#B7B7B7"/>
<g clip-path="url(#clip0_0_1)">
<rect width="1440" height="10135" transform="translate(-276 -4061)" fill="white"/>
<g filter="url(#filter0_d_0_1)">
<rect x="-176" y="0.712646" width="295" height="342.471" rx="16.954" fill="white"/>
</g>
<mask id="mask0_0_1" style="mask-type:alpha" maskUnits="userSpaceOnUse" x="-176" y="0" width="295" height="344">
<rect x="-176" y="0.712646" width="295" height="342.471" rx="16.954" fill="white"/>
</mask>
<g mask="url(#mask0_0_1)">
<path opacity="0.07" fill-rule="evenodd" clip-rule="evenodd" d="M78.3684 -6.48843L78.3762 -6.49891C85.3188 -15.838 98.5177 -17.7807 107.857 -10.838L124.288 1.37693C133.627 8.31956 135.57 21.5185 128.627 30.8575L128.619 30.868C121.677 40.207 108.478 42.1497 99.1388 35.2071L82.7075 22.9922C73.3685 16.0495 71.4258 2.85062 78.3684 -6.48843ZM130.91 110.892C129.262 113.112 127.192 114.986 124.82 116.407C122.447 117.828 119.818 118.767 117.082 119.171C114.346 119.576 111.558 119.438 108.876 118.765C106.194 118.092 103.67 116.897 101.45 115.248L65.4584 88.5337C63.2728 88.5162 61.1081 88.9695 59.112 89.8638C57.0498 90.7877 55.2192 92.1591 53.753 93.8786C52.2868 95.5981 51.2217 97.6228 50.6352 99.8051C50.0487 101.987 49.9555 104.273 50.3622 106.496L50.3691 106.546L50.3864 106.669L142.58 175.219C144.802 176.862 146.678 178.928 148.1 181.298C149.523 183.668 150.464 186.295 150.87 189.029C151.276 191.763 151.138 194.55 150.465 197.231C149.793 199.912 148.598 202.434 146.949 204.653C143.618 209.138 138.642 212.117 133.115 212.934C127.588 213.751 121.963 212.339 117.477 209.009L8.45468 127.956C5.16414 125.498 2.66429 122.131 1.26314 118.269C-0.138013 114.408 -0.379458 110.222 0.568676 106.225C1.51681 102.229 3.613 98.597 6.59922 95.7768C9.58543 92.9566 13.3313 91.0715 17.3754 90.3532L17.4192 90.3446L17.3754 90.2745C18.511 90.0475 19.6663 89.9345 20.8244 89.9374H21.0448C21.6946 89.9321 22.3445 89.9667 22.9901 90.0411C25.9562 90.4267 28.9711 89.9861 31.7027 88.7677C34.4343 87.5493 36.7764 85.6005 38.4713 83.136C40.1661 80.6715 41.1478 77.7868 41.3081 74.8001C41.4683 71.8134 40.8008 68.8406 39.3794 66.2089C39.3446 66.1007 39.3078 65.9913 39.2693 65.881C39.0263 65.3535 38.8045 64.8148 38.605 64.2662C38.5249 64.0462 38.4487 63.8251 38.3762 63.6031L38.3035 63.4212V63.3758C37.17 59.765 37.0295 55.909 37.9057 52.2154C38.8545 48.2163 40.9533 44.5826 43.9434 41.7628C46.9335 38.943 50.6842 37.0605 54.7319 36.3476C55.8661 36.1099 57.0221 35.9925 58.1809 35.9974H58.4013C59.051 35.9986 59.7001 36.0331 60.3462 36.101C64.1735 36.4529 67.8299 37.8528 70.9139 40.1467L87.6146 52.5687L126.514 81.4449C128.74 83.0869 130.62 85.1522 132.046 87.5221C133.472 89.8921 134.416 92.5202 134.825 95.2558C135.233 97.9915 135.097 100.781 134.426 103.464C133.754 106.147 132.559 108.671 130.91 110.892Z" fill="url(#paint0_linear_0_1)"/>
</g>
<path d="M-135.978 151.846C-137.155 151.846 -138.209 151.655 -139.142 151.273C-140.074 150.891 -140.823 150.326 -141.388 149.577C-141.938 148.828 -142.229 147.926 -142.259 146.872H-138.087C-138.026 147.468 -137.82 147.926 -137.468 148.247C-137.117 148.553 -136.658 148.706 -136.093 148.706C-135.512 148.706 -135.053 148.576 -134.717 148.316C-134.381 148.041 -134.213 147.666 -134.213 147.193C-134.213 146.795 -134.35 146.467 -134.625 146.207C-134.885 145.947 -135.214 145.733 -135.611 145.565C-135.993 145.397 -136.543 145.206 -137.262 144.992C-138.301 144.671 -139.149 144.35 -139.806 144.029C-140.464 143.708 -141.029 143.234 -141.503 142.608C-141.977 141.981 -142.213 141.163 -142.213 140.155C-142.213 138.657 -141.671 137.488 -140.586 136.647C-139.501 135.791 -138.087 135.363 -136.345 135.363C-134.572 135.363 -133.143 135.791 -132.058 136.647C-130.973 137.488 -130.392 138.664 -130.315 140.178H-134.557C-134.587 139.658 -134.778 139.253 -135.13 138.962C-135.481 138.657 -135.932 138.504 -136.482 138.504C-136.956 138.504 -137.338 138.634 -137.628 138.894C-137.919 139.138 -138.064 139.497 -138.064 139.971C-138.064 140.491 -137.82 140.896 -137.33 141.186C-136.841 141.477 -136.077 141.79 -135.038 142.126C-133.999 142.478 -133.158 142.814 -132.516 143.135C-131.859 143.456 -131.294 143.922 -130.82 144.533C-130.346 145.145 -130.109 145.932 -130.109 146.894C-130.109 147.811 -130.346 148.644 -130.82 149.393C-131.278 150.142 -131.951 150.738 -132.837 151.181C-133.724 151.625 -134.771 151.846 -135.978 151.846ZM-115.638 145.083C-115.638 145.45 -115.661 145.832 -115.707 146.23H-124.579C-124.518 147.024 -124.266 147.636 -123.822 148.064C-123.364 148.476 -122.806 148.683 -122.149 148.683C-121.171 148.683 -120.491 148.27 -120.109 147.445H-115.936C-116.15 148.285 -116.54 149.042 -117.105 149.714C-117.656 150.387 -118.351 150.914 -119.192 151.296C-120.032 151.678 -120.972 151.869 -122.011 151.869C-123.265 151.869 -124.38 151.602 -125.358 151.067C-126.336 150.532 -127.101 149.768 -127.651 148.774C-128.201 147.781 -128.476 146.619 -128.476 145.29C-128.476 143.96 -128.209 142.799 -127.674 141.805C-127.124 140.812 -126.359 140.048 -125.381 139.513C-124.403 138.978 -123.28 138.71 -122.011 138.71C-120.773 138.71 -119.673 138.97 -118.71 139.49C-117.747 140.009 -116.998 140.751 -116.463 141.713C-115.913 142.676 -115.638 143.8 -115.638 145.083ZM-119.65 144.052C-119.65 143.379 -119.879 142.844 -120.338 142.447C-120.796 142.05 -121.369 141.851 -122.057 141.851C-122.714 141.851 -123.272 142.042 -123.731 142.424C-124.174 142.806 -124.449 143.349 -124.556 144.052H-119.65ZM-114.35 145.267C-114.35 143.952 -114.105 142.799 -113.616 141.805C-113.112 140.812 -112.431 140.048 -111.576 139.513C-110.72 138.978 -109.765 138.71 -108.71 138.71C-107.808 138.71 -107.021 138.894 -106.349 139.261C-105.661 139.627 -105.134 140.109 -104.767 140.705V138.894H-100.847V151.686H-104.767V149.875C-105.149 150.471 -105.684 150.952 -106.372 151.319C-107.044 151.686 -107.831 151.869 -108.733 151.869C-109.772 151.869 -110.72 151.602 -111.576 151.067C-112.431 150.517 -113.112 149.745 -113.616 148.751C-114.105 147.743 -114.35 146.581 -114.35 145.267ZM-104.767 145.29C-104.767 144.312 -105.042 143.54 -105.592 142.974C-106.127 142.409 -106.784 142.126 -107.564 142.126C-108.343 142.126 -109.008 142.409 -109.558 142.974C-110.093 143.525 -110.361 144.289 -110.361 145.267C-110.361 146.245 -110.093 147.024 -109.558 147.605C-109.008 148.171 -108.343 148.453 -107.564 148.453C-106.784 148.453 -106.127 148.171 -105.592 147.605C-105.042 147.04 -104.767 146.268 -104.767 145.29ZM-94.0906 141.026C-93.6321 140.323 -93.059 139.772 -92.3712 139.375C-91.6835 138.962 -90.9193 138.756 -90.0787 138.756V142.906H-91.1562C-92.1343 142.906 -92.8679 143.12 -93.357 143.547C-93.846 143.96 -94.0906 144.694 -94.0906 145.748V151.686H-98.0107V138.894H-94.0906V141.026ZM-88.9844 145.29C-88.9844 143.96 -88.717 142.799 -88.182 141.805C-87.6318 140.812 -86.8753 140.048 -85.9125 139.513C-84.9344 138.978 -83.8187 138.71 -82.5654 138.71C-80.9607 138.71 -79.6234 139.131 -78.5536 139.971C-77.4685 140.812 -76.7578 141.996 -76.4216 143.525H-80.5939C-80.9454 142.546 -81.6255 142.057 -82.6342 142.057C-83.3525 142.057 -83.9257 142.34 -84.3536 142.906C-84.7815 143.456 -84.9955 144.25 -84.9955 145.29C-84.9955 146.329 -84.7815 147.131 -84.3536 147.697C-83.9257 148.247 -83.3525 148.522 -82.6342 148.522C-81.6255 148.522 -80.9454 148.033 -80.5939 147.055H-76.4216C-76.7578 148.553 -77.4685 149.73 -78.5536 150.585C-79.6387 151.441 -80.976 151.869 -82.5654 151.869C-83.8187 151.869 -84.9344 151.602 -85.9125 151.067C-86.8753 150.532 -87.6318 149.768 -88.182 148.774C-88.717 147.781 -88.9844 146.619 -88.9844 145.29ZM-66.4614 138.756C-64.9942 138.756 -63.8174 139.245 -62.931 140.223C-62.0446 141.186 -61.6014 142.516 -61.6014 144.212V151.686H-65.4986V144.74C-65.4986 143.884 -65.7202 143.219 -66.1634 142.745C-66.6066 142.271 -67.2027 142.034 -67.9516 142.034C-68.7004 142.034 -69.2965 142.271 -69.7397 142.745C-70.1829 143.219 -70.4045 143.884 -70.4045 144.74V151.686H-74.3247V134.721H-70.4045V140.613C-70.0072 140.048 -69.4646 139.597 -68.7769 139.261C-68.0891 138.924 -67.3173 138.756 -66.4614 138.756ZM-50.099 138.733V141.989H-44.8492V145.015H-50.099V148.545H-44.1614V151.686H-54.0191V135.593H-44.1614V138.733H-50.099ZM-33.822 138.756C-32.3242 138.756 -31.1321 139.245 -30.2457 140.223C-29.344 141.186 -28.8931 142.516 -28.8931 144.212V151.686H-32.7903V144.74C-32.7903 143.884 -33.012 143.219 -33.4552 142.745C-33.8984 142.271 -34.4944 142.034 -35.2433 142.034C-35.9922 142.034 -36.5882 142.271 -37.0314 142.745C-37.4747 143.219 -37.6963 143.884 -37.6963 144.74V151.686H-41.6164V138.894H-37.6963V140.59C-37.2989 140.025 -36.764 139.581 -36.0915 139.261C-35.4191 138.924 -34.6625 138.756 -33.822 138.756ZM-21.3089 138.71C-20.4072 138.71 -19.6201 138.894 -18.9477 139.261C-18.2599 139.627 -17.7326 140.109 -17.3658 140.705V138.894H-13.4457V151.663C-13.4457 152.84 -13.6826 153.902 -14.1564 154.849C-14.6149 155.812 -15.3255 156.576 -16.2884 157.142C-17.2359 157.707 -18.4204 157.99 -19.8417 157.99C-21.7369 157.99 -23.2728 157.539 -24.4496 156.638C-25.6264 155.751 -26.2989 154.544 -26.467 153.015H-22.5927C-22.4705 153.504 -22.1801 153.887 -21.7216 154.162C-21.2631 154.452 -20.6976 154.597 -20.0251 154.597C-19.2151 154.597 -18.5732 154.36 -18.0994 153.887C-17.6104 153.428 -17.3658 152.687 -17.3658 151.663V149.852C-17.7479 150.448 -18.2752 150.937 -18.9477 151.319C-19.6201 151.686 -20.4072 151.869 -21.3089 151.869C-22.3635 151.869 -23.3187 151.602 -24.1745 151.067C-25.0304 150.517 -25.7105 149.745 -26.2148 148.751C-26.7039 147.743 -26.9484 146.581 -26.9484 145.267C-26.9484 143.952 -26.7039 142.799 -26.2148 141.805C-25.7105 140.812 -25.0304 140.048 -24.1745 139.513C-23.3187 138.978 -22.3635 138.71 -21.3089 138.71ZM-17.3658 145.29C-17.3658 144.312 -17.6409 143.54 -18.1911 142.974C-18.7261 142.409 -19.3832 142.126 -20.1627 142.126C-20.9421 142.126 -21.6069 142.409 -22.1571 142.974C-22.6921 143.525 -22.9595 144.289 -22.9595 145.267C-22.9595 146.245 -22.6921 147.024 -22.1571 147.605C-21.6069 148.171 -20.9421 148.453 -20.1627 148.453C-19.3832 148.453 -18.7261 148.171 -18.1911 147.605C-17.6409 147.04 -17.3658 146.268 -17.3658 145.29ZM-8.63809 137.564C-9.32584 137.564 -9.89132 137.365 -10.3345 136.968C-10.7625 136.555 -10.9764 136.051 -10.9764 135.455C-10.9764 134.844 -10.7625 134.339 -10.3345 133.942C-9.89132 133.529 -9.32584 133.323 -8.63809 133.323C-7.96563 133.323 -7.41543 133.529 -6.9875 133.942C-6.54429 134.339 -6.32268 134.844 -6.32268 135.455C-6.32268 136.051 -6.54429 136.555 -6.9875 136.968C-7.41543 137.365 -7.96563 137.564 -8.63809 137.564ZM-6.68948 138.894V151.686H-10.6096V138.894H-6.68948ZM3.94587 138.756C5.44363 138.756 6.63573 139.245 7.52215 140.223C8.42387 141.186 8.87472 142.516 8.87472 144.212V151.686H4.97749V144.74C4.97749 143.884 4.75589 143.219 4.31267 142.745C3.86946 142.271 3.27341 142.034 2.52453 142.034C1.77565 142.034 1.1796 142.271 0.73639 142.745C0.293176 143.219 0.0715686 143.884 0.0715686 144.74V151.686H-3.84859V138.894H0.0715686V140.59C0.468933 140.025 1.00385 139.581 1.67631 139.261C2.34877 138.924 3.10529 138.756 3.94587 138.756ZM23.6573 145.083C23.6573 145.45 23.6344 145.832 23.5886 146.23H14.7166C14.7778 147.024 15.0299 147.636 15.4732 148.064C15.9316 148.476 16.4895 148.683 17.1467 148.683C18.1248 148.683 18.8049 148.27 19.187 147.445H23.3593C23.1453 148.285 22.7556 149.042 22.1901 149.714C21.6399 150.387 20.9446 150.914 20.104 151.296C19.2634 151.678 18.3235 151.869 17.2842 151.869C16.031 151.869 14.9153 151.602 13.9372 151.067C12.9591 150.532 12.1949 149.768 11.6447 148.774C11.0945 147.781 10.8194 146.619 10.8194 145.29C10.8194 143.96 11.0869 142.799 11.6218 141.805C12.172 140.812 12.9361 140.048 13.9143 139.513C14.8924 138.978 16.0157 138.71 17.2842 138.71C18.5222 138.71 19.6226 138.97 20.5854 139.49C21.5482 140.009 22.2971 140.751 22.832 141.713C23.3822 142.676 23.6573 143.8 23.6573 145.083ZM19.6455 144.052C19.6455 143.379 19.4162 142.844 18.9577 142.447C18.4992 142.05 17.9261 141.851 17.2384 141.851C16.5812 141.851 16.0233 142.042 15.5649 142.424C15.1216 142.806 14.8465 143.349 14.7396 144.052H19.6455ZM-134.19 180.846C-135.703 180.846 -137.094 180.495 -138.362 179.792C-139.615 179.089 -140.616 178.111 -141.365 176.857C-142.099 175.589 -142.466 174.167 -142.466 172.593C-142.466 171.019 -142.099 169.605 -141.365 168.352C-140.616 167.099 -139.615 166.121 -138.362 165.418C-137.094 164.715 -135.703 164.363 -134.19 164.363C-132.677 164.363 -131.294 164.715 -130.04 165.418C-128.772 166.121 -127.778 167.099 -127.06 168.352C-126.327 169.605 -125.96 171.019 -125.96 172.593C-125.96 174.167 -126.327 175.589 -127.06 176.857C-127.794 178.111 -128.787 179.089 -130.04 179.792C-131.294 180.495 -132.677 180.846 -134.19 180.846ZM-134.19 177.27C-132.906 177.27 -131.882 176.842 -131.118 175.986C-130.338 175.13 -129.949 173.999 -129.949 172.593C-129.949 171.172 -130.338 170.041 -131.118 169.2C-131.882 168.345 -132.906 167.917 -134.19 167.917C-135.489 167.917 -136.528 168.337 -137.308 169.178C-138.072 170.018 -138.454 171.157 -138.454 172.593C-138.454 174.015 -138.072 175.153 -137.308 176.009C-136.528 176.85 -135.489 177.27 -134.19 177.27ZM-119.859 169.705C-119.477 169.109 -118.949 168.627 -118.277 168.261C-117.604 167.894 -116.817 167.71 -115.916 167.71C-114.861 167.71 -113.906 167.978 -113.05 168.513C-112.194 169.048 -111.522 169.812 -111.033 170.805C-110.528 171.799 -110.276 172.952 -110.276 174.267C-110.276 175.581 -110.528 176.743 -111.033 177.751C-111.522 178.745 -112.194 179.517 -113.05 180.067C-113.906 180.602 -114.861 180.869 -115.916 180.869C-116.802 180.869 -117.589 180.686 -118.277 180.319C-118.949 179.952 -119.477 179.478 -119.859 178.898V186.784H-123.779V167.894H-119.859V169.705ZM-114.265 174.267C-114.265 173.289 -114.54 172.525 -115.09 171.974C-115.625 171.409 -116.29 171.126 -117.085 171.126C-117.864 171.126 -118.529 171.409 -119.079 171.974C-119.614 172.54 -119.882 173.312 -119.882 174.29C-119.882 175.268 -119.614 176.04 -119.079 176.605C-118.529 177.171 -117.864 177.453 -117.085 177.453C-116.305 177.453 -115.64 177.171 -115.09 176.605C-114.54 176.024 -114.265 175.245 -114.265 174.267ZM-101.09 177.362V180.686H-103.084C-104.506 180.686 -105.614 180.342 -106.408 179.654C-107.203 178.951 -107.6 177.813 -107.6 176.238V171.149H-109.159V167.894H-107.6V164.776H-103.68V167.894H-101.113V171.149H-103.68V176.284C-103.68 176.666 -103.589 176.941 -103.405 177.11C-103.222 177.278 -102.916 177.362 -102.488 177.362H-101.09ZM-96.9347 166.564C-97.6224 166.564 -98.1879 166.365 -98.6311 165.968C-99.0591 165.555 -99.273 165.051 -99.273 164.455C-99.273 163.844 -99.0591 163.339 -98.6311 162.942C-98.1879 162.529 -97.6224 162.323 -96.9347 162.323C-96.2622 162.323 -95.712 162.529 -95.2841 162.942C-94.8409 163.339 -94.6193 163.844 -94.6193 164.455C-94.6193 165.051 -94.8409 165.555 -95.2841 165.968C-95.712 166.365 -96.2622 166.564 -96.9347 166.564ZM-94.9861 167.894V180.686H-98.9062V167.894H-94.9861ZM-75.8227 167.756C-74.2332 167.756 -72.9723 168.238 -72.0401 169.2C-71.0925 170.163 -70.6187 171.501 -70.6187 173.212V180.686H-74.516V173.74C-74.516 172.914 -74.7376 172.28 -75.1808 171.837C-75.6087 171.378 -76.2047 171.149 -76.9689 171.149C-77.7331 171.149 -78.3368 171.378 -78.78 171.837C-79.2079 172.28 -79.4219 172.914 -79.4219 173.74V180.686H-83.3191V173.74C-83.3191 172.914 -83.5407 172.28 -83.9839 171.837C-84.4119 171.378 -85.0079 171.149 -85.7721 171.149C-86.5362 171.149 -87.1399 171.378 -87.5831 171.837C-88.0111 172.28 -88.225 172.914 -88.225 173.74V180.686H-92.1452V167.894H-88.225V169.498C-87.8277 168.964 -87.308 168.543 -86.6661 168.238C-86.0242 167.917 -85.2983 167.756 -84.4883 167.756C-83.5254 167.756 -82.6696 167.962 -81.9207 168.375C-81.1565 168.788 -80.5605 169.376 -80.1325 170.14C-79.6893 169.437 -79.0856 168.864 -78.3215 168.421C-77.5573 167.978 -76.7244 167.756 -75.8227 167.756ZM-65.9055 166.564C-66.5933 166.564 -67.1587 166.365 -67.602 165.968C-68.0299 165.555 -68.2438 165.051 -68.2438 164.455C-68.2438 163.844 -68.0299 163.339 -67.602 162.942C-67.1587 162.529 -66.5933 162.323 -65.9055 162.323C-65.233 162.323 -64.6829 162.529 -64.2549 162.942C-63.8117 163.339 -63.5901 163.844 -63.5901 164.455C-63.5901 165.051 -63.8117 165.555 -64.2549 165.968C-64.6829 166.365 -65.233 166.564 -65.9055 166.564ZM-63.9569 167.894V180.686H-67.8771V167.894H-63.9569ZM-57.448 177.453H-51.9002V180.686H-61.8267V177.568L-56.5081 171.126H-61.7808V167.894H-52.0148V171.011L-57.448 177.453ZM-50.5226 174.267C-50.5226 172.952 -50.278 171.799 -49.789 170.805C-49.2846 169.812 -48.6045 169.048 -47.7487 168.513C-46.8928 167.978 -45.9376 167.71 -44.883 167.71C-43.9813 167.71 -43.1942 167.894 -42.5218 168.261C-41.834 168.627 -41.3068 169.109 -40.94 169.705V167.894H-37.0198V180.686H-40.94V178.875C-41.322 179.471 -41.857 179.952 -42.5447 180.319C-43.2172 180.686 -44.0043 180.869 -44.906 180.869C-45.9452 180.869 -46.8928 180.602 -47.7487 180.067C-48.6045 179.517 -49.2846 178.745 -49.789 177.751C-50.278 176.743 -50.5226 175.581 -50.5226 174.267ZM-40.94 174.29C-40.94 173.312 -41.2151 172.54 -41.7653 171.974C-42.3002 171.409 -42.9574 171.126 -43.7368 171.126C-44.5162 171.126 -45.1811 171.409 -45.7313 171.974C-46.2662 172.525 -46.5336 173.289 -46.5336 174.267C-46.5336 175.245 -46.2662 176.024 -45.7313 176.605C-45.1811 177.171 -44.5162 177.453 -43.7368 177.453C-42.9574 177.453 -42.3002 177.171 -41.7653 176.605C-41.2151 176.04 -40.94 175.268 -40.94 174.29ZM-27.0541 177.362V180.686H-29.0486C-30.4699 180.686 -31.578 180.342 -32.3727 179.654C-33.1674 178.951 -33.5648 177.813 -33.5648 176.238V171.149H-35.1237V167.894H-33.5648V164.776H-29.6446V167.894H-27.077V171.149H-29.6446V176.284C-29.6446 176.666 -29.5529 176.941 -29.3695 177.11C-29.1861 177.278 -28.8805 177.362 -28.4525 177.362H-27.0541ZM-22.899 166.564C-23.5867 166.564 -24.1522 166.365 -24.5954 165.968C-25.0234 165.555 -25.2373 165.051 -25.2373 164.455C-25.2373 163.844 -25.0234 163.339 -24.5954 162.942C-24.1522 162.529 -23.5867 162.323 -22.899 162.323C-22.2265 162.323 -21.6763 162.529 -21.2484 162.942C-20.8052 163.339 -20.5836 163.844 -20.5836 164.455C-20.5836 165.051 -20.8052 165.555 -21.2484 165.968C-21.6763 166.365 -22.2265 166.564 -22.899 166.564ZM-20.9504 167.894V180.686H-24.8705V167.894H-20.9504ZM-12.2866 180.869C-13.5398 180.869 -14.6707 180.602 -15.6794 180.067C-16.6728 179.532 -17.4599 178.768 -18.0407 177.774C-18.6062 176.781 -18.8889 175.619 -18.8889 174.29C-18.8889 172.975 -18.5985 171.822 -18.0178 170.828C-17.437 169.819 -16.6423 169.048 -15.6336 168.513C-14.6249 167.978 -13.4939 167.71 -12.2407 167.71C-10.9875 167.71 -9.85652 167.978 -8.84782 168.513C-7.83913 169.048 -7.0444 169.819 -6.46363 170.828C-5.88287 171.822 -5.59249 172.975 -5.59249 174.29C-5.59249 175.604 -5.89051 176.766 -6.48656 177.774C-7.06732 178.768 -7.86969 179.532 -8.89367 180.067C-9.90237 180.602 -11.0333 180.869 -12.2866 180.869ZM-12.2866 177.476C-11.5377 177.476 -10.9034 177.201 -10.3838 176.651C-9.84887 176.101 -9.58142 175.314 -9.58142 174.29C-9.58142 173.266 -9.84123 172.479 -10.3609 171.928C-10.8652 171.378 -11.4918 171.103 -12.2407 171.103C-13.0049 171.103 -13.6391 171.378 -14.1435 171.928C-14.6478 172.463 -14.9 173.25 -14.9 174.29C-14.9 175.314 -14.6555 176.101 -14.1664 176.651C-13.662 177.201 -13.0354 177.476 -12.2866 177.476ZM4.28169 167.756C5.77945 167.756 6.97154 168.245 7.85797 169.223C8.75968 170.186 9.21054 171.516 9.21054 173.212V180.686H5.31331V173.74C5.31331 172.884 5.0917 172.219 4.64849 171.745C4.20527 171.271 3.60923 171.034 2.86035 171.034C2.11147 171.034 1.51542 171.271 1.07221 171.745C0.628991 172.219 0.407384 172.884 0.407384 173.74V180.686H-3.51277V167.894H0.407384V169.59C0.804748 169.025 1.33966 168.581 2.01213 168.261C2.68459 167.924 3.44111 167.756 4.28169 167.756Z" fill="black"/>
<path d="M-136.282 213.153L-138.877 208.698H-140.596V213.153H-142.019V202.259H-138.502C-137.679 202.259 -136.986 202.399 -136.423 202.681C-135.85 202.962 -135.422 203.342 -135.141 203.822C-134.86 204.301 -134.719 204.848 -134.719 205.463C-134.719 206.213 -134.938 206.875 -135.376 207.448C-135.803 208.021 -136.449 208.401 -137.314 208.589L-134.578 213.153H-136.282ZM-140.596 207.557H-138.502C-137.731 207.557 -137.152 207.37 -136.767 206.995C-136.381 206.609 -136.188 206.098 -136.188 205.463C-136.188 204.817 -136.381 204.317 -136.767 203.962C-137.142 203.608 -137.72 203.431 -138.502 203.431H-140.596V207.557ZM-133.04 208.839C-133.04 207.964 -132.863 207.198 -132.509 206.541C-132.155 205.874 -131.67 205.359 -131.055 204.994C-130.43 204.629 -129.737 204.447 -128.976 204.447C-128.226 204.447 -127.575 204.608 -127.023 204.931C-126.47 205.254 -126.059 205.661 -125.788 206.151V204.588H-124.35V213.153H-125.788V211.559C-126.069 212.059 -126.491 212.476 -127.054 212.809C-127.606 213.132 -128.252 213.294 -128.992 213.294C-129.753 213.294 -130.441 213.106 -131.055 212.731C-131.67 212.356 -132.155 211.83 -132.509 211.152C-132.863 210.475 -133.04 209.704 -133.04 208.839ZM-125.788 208.855C-125.788 208.209 -125.918 207.646 -126.179 207.167C-126.439 206.687 -126.793 206.323 -127.241 206.072C-127.679 205.812 -128.164 205.682 -128.695 205.682C-129.227 205.682 -129.711 205.807 -130.149 206.057C-130.586 206.307 -130.936 206.672 -131.196 207.151C-131.457 207.63 -131.587 208.193 -131.587 208.839C-131.587 209.496 -131.457 210.069 -131.196 210.558C-130.936 211.038 -130.586 211.408 -130.149 211.668C-129.711 211.918 -129.227 212.043 -128.695 212.043C-128.164 212.043 -127.679 211.918 -127.241 211.668C-126.793 211.408 -126.439 211.038 -126.179 210.558C-125.918 210.069 -125.788 209.501 -125.788 208.855ZM-120.211 205.76V210.808C-120.211 211.225 -120.123 211.522 -119.945 211.699C-119.768 211.866 -119.461 211.95 -119.023 211.95H-117.976V213.153H-119.258C-120.05 213.153 -120.644 212.971 -121.04 212.606C-121.436 212.241 -121.634 211.642 -121.634 210.808V205.76H-122.743V204.588H-121.634V202.43H-120.211V204.588H-117.976V205.76H-120.211ZM-112.001 204.431C-111.355 204.431 -110.771 204.572 -110.25 204.853C-109.729 205.124 -109.323 205.536 -109.031 206.088C-108.729 206.64 -108.578 207.312 -108.578 208.104V213.153H-109.985V208.308C-109.985 207.453 -110.198 206.802 -110.626 206.354C-111.053 205.895 -111.636 205.666 -112.376 205.666C-113.126 205.666 -113.726 205.9 -114.174 206.369C-114.611 206.838 -114.83 207.521 -114.83 208.417V213.153H-116.253V201.586H-114.83V205.807C-114.549 205.369 -114.163 205.03 -113.673 204.791C-113.173 204.551 -112.616 204.431 -112.001 204.431ZM-98.4392 208.542C-98.4392 208.813 -98.4548 209.1 -98.4861 209.402H-105.332C-105.28 210.246 -104.994 210.907 -104.473 211.387C-103.941 211.856 -103.3 212.09 -102.55 212.09C-101.935 212.09 -101.425 211.95 -101.018 211.668C-100.601 211.376 -100.31 210.991 -100.143 210.512H-98.6111C-98.8403 211.335 -99.2988 212.007 -99.9866 212.528C-100.674 213.038 -101.529 213.294 -102.55 213.294C-103.363 213.294 -104.092 213.111 -104.738 212.747C-105.374 212.382 -105.874 211.866 -106.239 211.199C-106.604 210.522 -106.786 209.74 -106.786 208.855C-106.786 207.969 -106.609 207.193 -106.254 206.526C-105.9 205.859 -105.405 205.348 -104.77 204.994C-104.123 204.629 -103.384 204.447 -102.55 204.447C-101.737 204.447 -101.018 204.624 -100.393 204.978C-99.7678 205.333 -99.2884 205.822 -98.955 206.448C-98.6111 207.062 -98.4392 207.761 -98.4392 208.542ZM-99.9084 208.245C-99.9084 207.703 -100.028 207.239 -100.268 206.854C-100.508 206.458 -100.836 206.161 -101.253 205.963C-101.659 205.755 -102.112 205.65 -102.613 205.65C-103.332 205.65 -103.946 205.88 -104.457 206.338C-104.957 206.797 -105.244 207.432 -105.317 208.245H-99.9084ZM-95.1393 205.979C-94.8892 205.489 -94.5349 205.109 -94.0764 204.838C-93.6075 204.567 -93.0396 204.431 -92.3727 204.431V205.9H-92.7478C-94.3421 205.9 -95.1393 206.765 -95.1393 208.495V213.153H-96.5617V204.588H-95.1393V205.979ZM-84.8286 205.76V210.808C-84.8286 211.225 -84.74 211.522 -84.5629 211.699C-84.3857 211.866 -84.0783 211.95 -83.6407 211.95H-82.5934V213.153H-83.8751C-84.6671 213.153 -85.261 212.971 -85.657 212.606C-86.053 212.241 -86.251 211.642 -86.251 210.808V205.76H-87.3607V204.588H-86.251V202.43H-84.8286V204.588H-82.5934V205.76H-84.8286ZM-76.6185 204.431C-75.9724 204.431 -75.3889 204.572 -74.8679 204.853C-74.3468 205.124 -73.9404 205.536 -73.6487 206.088C-73.3465 206.64 -73.1954 207.312 -73.1954 208.104V213.153H-74.6021V208.308C-74.6021 207.453 -74.8158 206.802 -75.243 206.354C-75.6702 205.895 -76.2538 205.666 -76.9936 205.666C-77.7439 205.666 -78.3431 205.9 -78.7911 206.369C-79.2288 206.838 -79.4476 207.521 -79.4476 208.417V213.153H-80.87V201.586H-79.4476V205.807C-79.1663 205.369 -78.7807 205.03 -78.291 204.791C-77.7908 204.551 -77.2333 204.431 -76.6185 204.431ZM-71.4034 208.839C-71.4034 207.964 -71.2262 207.198 -70.8719 206.541C-70.5176 205.874 -70.0331 205.359 -69.4183 204.994C-68.7931 204.629 -68.1001 204.447 -67.3394 204.447C-66.5891 204.447 -65.9379 204.608 -65.3856 204.931C-64.8333 205.254 -64.4217 205.661 -64.1508 206.151V204.588H-62.7127V213.153H-64.1508V211.559C-64.4321 212.059 -64.8541 212.476 -65.4168 212.809C-65.9691 213.132 -66.6152 213.294 -67.355 213.294C-68.1157 213.294 -68.8035 213.106 -69.4183 212.731C-70.0331 212.356 -70.5176 211.83 -70.8719 211.152C-71.2262 210.475 -71.4034 209.704 -71.4034 208.839ZM-64.1508 208.855C-64.1508 208.209 -64.281 207.646 -64.5415 207.167C-64.802 206.687 -65.1563 206.323 -65.6044 206.072C-66.0421 205.812 -66.5266 205.682 -67.0581 205.682C-67.5895 205.682 -68.074 205.807 -68.5117 206.057C-68.9494 206.307 -69.2984 206.672 -69.559 207.151C-69.8195 207.63 -69.9497 208.193 -69.9497 208.839C-69.9497 209.496 -69.8195 210.069 -69.559 210.558C-69.2984 211.038 -68.9494 211.408 -68.5117 211.668C-68.074 211.918 -67.5895 212.043 -67.0581 212.043C-66.5266 212.043 -66.0421 211.918 -65.6044 211.668C-65.1563 211.408 -64.802 211.038 -64.5415 210.558C-64.281 210.069 -64.1508 209.501 -64.1508 208.855ZM-56.1357 204.431C-55.0936 204.431 -54.2496 204.749 -53.6035 205.385C-52.9575 206.01 -52.6344 206.916 -52.6344 208.104V213.153H-54.0412V208.308C-54.0412 207.453 -54.2548 206.802 -54.682 206.354C-55.1093 205.895 -55.6928 205.666 -56.4327 205.666C-57.1829 205.666 -57.7821 205.9 -58.2302 206.369C-58.6678 206.838 -58.8867 207.521 -58.8867 208.417V213.153H-60.3091V204.588H-58.8867V205.807C-58.6053 205.369 -58.225 205.03 -57.7456 204.791C-57.2559 204.551 -56.7192 204.431 -56.1357 204.431ZM-46.6753 208.839C-46.6753 207.964 -46.4981 207.198 -46.1438 206.541C-45.7895 205.874 -45.305 205.359 -44.6902 204.994C-44.065 204.629 -43.372 204.447 -42.6113 204.447C-41.861 204.447 -41.2098 204.608 -40.6575 204.931C-40.1052 205.254 -39.6936 205.661 -39.4227 206.151V204.588H-37.9847V213.153H-39.4227V211.559C-39.704 212.059 -40.126 212.476 -40.6887 212.809C-41.241 213.132 -41.8871 213.294 -42.6269 213.294C-43.3876 213.294 -44.0754 213.106 -44.6902 212.731C-45.305 212.356 -45.7895 211.83 -46.1438 211.152C-46.4981 210.475 -46.6753 209.704 -46.6753 208.839ZM-39.4227 208.855C-39.4227 208.209 -39.5529 207.646 -39.8134 207.167C-40.0739 206.687 -40.4282 206.323 -40.8763 206.072C-41.314 205.812 -41.7985 205.682 -42.33 205.682C-42.8614 205.682 -43.3459 205.807 -43.7836 206.057C-44.2213 206.307 -44.5703 206.672 -44.8309 207.151C-45.0914 207.63 -45.2216 208.193 -45.2216 208.839C-45.2216 209.496 -45.0914 210.069 -44.8309 210.558C-44.5703 211.038 -44.2213 211.408 -43.7836 211.668C-43.3459 211.918 -42.8614 212.043 -42.33 212.043C-41.7985 212.043 -41.314 211.918 -40.8763 211.668C-40.4282 211.408 -40.0739 211.038 -39.8134 210.558C-39.5529 210.069 -39.4227 209.501 -39.4227 208.855ZM-27.6781 213.294C-28.4805 213.294 -29.2099 213.111 -29.8664 212.747C-30.5125 212.382 -31.0231 211.866 -31.3982 211.199C-31.7629 210.522 -31.9453 209.74 -31.9453 208.855C-31.9453 207.979 -31.7577 207.208 -31.3826 206.541C-30.997 205.864 -30.476 205.348 -29.8195 204.994C-29.163 204.629 -28.4284 204.447 -27.6156 204.447C-26.8028 204.447 -26.0682 204.629 -25.4117 204.994C-24.7552 205.348 -24.2394 205.859 -23.8642 206.526C-23.4787 207.193 -23.2859 207.969 -23.2859 208.855C-23.2859 209.74 -23.4839 210.522 -23.8799 211.199C-24.2654 211.866 -24.7917 212.382 -25.4586 212.747C-26.1255 213.111 -26.8653 213.294 -27.6781 213.294ZM-27.6781 212.043C-27.1675 212.043 -26.6882 211.923 -26.2401 211.684C-25.792 211.444 -25.4325 211.085 -25.1616 210.605C-24.8802 210.126 -24.7396 209.542 -24.7396 208.855C-24.7396 208.167 -24.875 207.583 -25.146 207.104C-25.4169 206.625 -25.7712 206.27 -26.2088 206.041C-26.6465 205.801 -27.1206 205.682 -27.6312 205.682C-28.1522 205.682 -28.6316 205.801 -29.0692 206.041C-29.4965 206.27 -29.8403 206.625 -30.1009 207.104C-30.3614 207.583 -30.4916 208.167 -30.4916 208.855C-30.4916 209.553 -30.3666 210.142 -30.1165 210.621C-29.856 211.1 -29.5121 211.46 -29.0849 211.699C-28.6576 211.929 -28.1887 212.043 -27.6781 212.043ZM-17.2424 204.431C-16.2003 204.431 -15.3563 204.749 -14.7102 205.385C-14.0641 206.01 -13.7411 206.916 -13.7411 208.104V213.153H-15.1479V208.308C-15.1479 207.453 -15.3615 206.802 -15.7887 206.354C-16.216 205.895 -16.7995 205.666 -17.5393 205.666C-18.2896 205.666 -18.8888 205.9 -19.3369 206.369C-19.7745 206.838 -19.9934 207.521 -19.9934 208.417V213.153H-21.4157V204.588H-19.9934V205.807C-19.712 205.369 -19.3317 205.03 -18.8523 204.791C-18.3626 204.551 -17.8259 204.431 -17.2424 204.431ZM-3.60235 208.542C-3.60235 208.813 -3.61798 209.1 -3.64924 209.402H-10.4954C-10.4433 210.246 -10.1568 210.907 -9.63576 211.387C-9.10432 211.856 -8.46346 212.09 -7.71319 212.09C-7.09839 212.09 -6.58779 211.95 -6.18139 211.668C-5.76458 211.376 -5.47281 210.991 -5.30608 210.512H-3.77428C-4.00353 211.335 -4.46203 212.007 -5.14977 212.528C-5.83752 213.038 -6.69199 213.294 -7.71319 213.294C-8.52598 213.294 -9.25541 213.111 -9.90148 212.747C-10.5371 212.382 -11.0373 211.866 -11.402 211.199C-11.7667 210.522 -11.9491 209.74 -11.9491 208.855C-11.9491 207.969 -11.7719 207.193 -11.4176 206.526C-11.0634 205.859 -10.5684 205.348 -9.93274 204.994C-9.28667 204.629 -8.54682 204.447 -7.71319 204.447C-6.9004 204.447 -6.18139 204.624 -5.55617 204.978C-4.93095 205.333 -4.45161 205.822 -4.11816 206.448C-3.77428 207.062 -3.60235 207.761 -3.60235 208.542ZM-5.07162 208.245C-5.07162 207.703 -5.19146 207.239 -5.43113 206.854C-5.67079 206.458 -5.99904 206.161 -6.41585 205.963C-6.82225 205.755 -7.27554 205.65 -7.77572 205.65C-8.49472 205.65 -9.10953 205.88 -9.62013 206.338C-10.1203 206.797 -10.4069 207.432 -10.4798 208.245H-5.07162ZM4.21478 206.823V208.026H-2.02183V206.823H4.21478ZM9.91653 213.294C9.26004 213.294 8.67129 213.184 8.15027 212.966C7.62925 212.736 7.21764 212.424 6.91545 212.028C6.61326 211.621 6.44653 211.158 6.41527 210.637H7.88455C7.92623 211.064 8.12422 211.413 8.47851 211.684C8.84322 211.955 9.31735 212.09 9.90089 212.09C10.4428 212.09 10.87 211.97 11.1826 211.731C11.4952 211.491 11.6515 211.189 11.6515 210.824C11.6515 210.449 11.4848 210.173 11.1513 209.996C10.8179 209.808 10.3021 209.626 9.60391 209.449C8.96827 209.282 8.44725 209.115 8.04085 208.948C7.64488 208.771 7.30101 208.516 7.00923 208.183C6.72788 207.839 6.58721 207.391 6.58721 206.838C6.58721 206.401 6.71746 205.999 6.97797 205.635C7.23848 205.27 7.60841 204.983 8.08775 204.775C8.56708 204.556 9.11415 204.447 9.72896 204.447C10.6772 204.447 11.4431 204.687 12.0267 205.166C12.6102 205.645 12.9228 206.302 12.9645 207.135H11.5421C11.5108 206.687 11.3285 206.328 10.995 206.057C10.672 205.786 10.2343 205.65 9.68207 205.65C9.17147 205.65 8.76507 205.76 8.46288 205.979C8.16069 206.197 8.00959 206.484 8.00959 206.838C8.00959 207.12 8.09817 207.354 8.27531 207.542C8.46288 207.719 8.69213 207.865 8.96306 207.979C9.24441 208.084 9.62996 208.203 10.1197 208.339C10.7345 208.506 11.2347 208.672 11.6203 208.839C12.0058 208.995 12.3341 209.235 12.605 209.558C12.8863 209.881 13.0322 210.303 13.0426 210.824C13.0426 211.293 12.9124 211.715 12.6519 212.09C12.3914 212.465 12.0214 212.762 11.5421 212.981C11.0732 213.19 10.5313 213.294 9.91653 213.294ZM15.7852 203.196C15.5143 203.196 15.285 203.103 15.0975 202.915C14.9099 202.727 14.8161 202.498 14.8161 202.227C14.8161 201.956 14.9099 201.727 15.0975 201.54C15.285 201.352 15.5143 201.258 15.7852 201.258C16.0457 201.258 16.2645 201.352 16.4417 201.54C16.6293 201.727 16.723 201.956 16.723 202.227C16.723 202.498 16.6293 202.727 16.4417 202.915C16.2645 203.103 16.0457 203.196 15.7852 203.196ZM16.473 204.588V213.153H15.0506V204.588H16.473ZM19.96 211.981H24.1647V213.153H18.3345V211.981L22.4922 205.744H18.3657V204.588H24.1334V205.744L19.96 211.981ZM33.8256 208.542C33.8256 208.813 33.81 209.1 33.7787 209.402H26.9325C26.9846 210.246 27.2712 210.907 27.7922 211.387C28.3236 211.856 28.9645 212.09 29.7148 212.09C30.3296 212.09 30.8402 211.95 31.2466 211.668C31.6634 211.376 31.9551 210.991 32.1219 210.512H33.6537C33.4244 211.335 32.9659 212.007 32.2782 212.528C31.5904 213.038 30.736 213.294 29.7148 213.294C28.902 213.294 28.1725 213.111 27.5265 212.747C26.8908 212.382 26.3906 211.866 26.0259 211.199C25.6612 210.522 25.4789 209.74 25.4789 208.855C25.4789 207.969 25.656 207.193 26.0103 206.526C26.3646 205.859 26.8596 205.348 27.4952 204.994C28.1413 204.629 28.8811 204.447 29.7148 204.447C30.5275 204.447 31.2466 204.624 31.8718 204.978C32.497 205.333 32.9763 205.822 33.3098 206.448C33.6537 207.062 33.8256 207.761 33.8256 208.542ZM32.3563 208.245C32.3563 207.703 32.2365 207.239 31.9968 206.854C31.7572 206.458 31.4289 206.161 31.0121 205.963C30.6057 205.755 30.1524 205.65 29.6522 205.65C28.9332 205.65 28.3184 205.88 27.8078 206.338C27.3076 206.797 27.0211 207.432 26.9481 208.245H32.3563ZM41.6427 206.823V208.026H35.4061V206.823H41.6427ZM47.7978 205.76H46.0003V213.153H44.5779V205.76H43.4681V204.588H44.5779V203.978C44.5779 203.019 44.8228 202.321 45.3125 201.883C45.8127 201.435 46.6099 201.211 47.704 201.211V202.399C47.0788 202.399 46.6359 202.524 46.3754 202.774C46.1253 203.014 46.0003 203.415 46.0003 203.978V204.588H47.7978V205.76ZM50.1908 203.196C49.9199 203.196 49.6907 203.103 49.5031 202.915C49.3155 202.727 49.2217 202.498 49.2217 202.227C49.2217 201.956 49.3155 201.727 49.5031 201.54C49.6907 201.352 49.9199 201.258 50.1908 201.258C50.4513 201.258 50.6702 201.352 50.8473 201.54C51.0349 201.727 51.1287 201.956 51.1287 202.227C51.1287 202.498 51.0349 202.727 50.8473 202.915C50.6702 203.103 50.4513 203.196 50.1908 203.196ZM50.8786 204.588V213.153H49.4562V204.588H50.8786ZM55.0378 205.76V210.808C55.0378 211.225 55.1264 211.522 55.3035 211.699C55.4807 211.866 55.7881 211.95 56.2257 211.95H57.273V213.153H55.9913C55.1993 213.153 54.6053 212.971 54.2094 212.606C53.8134 212.241 53.6154 211.642 53.6154 210.808V205.76H52.5056V204.588H53.6154V202.43H55.0378V204.588H57.273V205.76H55.0378ZM62.0287 213.294C61.3722 213.294 60.7835 213.184 60.2624 212.966C59.7414 212.736 59.3298 212.424 59.0276 212.028C58.7254 211.621 58.5587 211.158 58.5274 210.637H59.9967C60.0384 211.064 60.2364 211.413 60.5907 211.684C60.9554 211.955 61.4295 212.09 62.0131 212.09C62.5549 212.09 62.9822 211.97 63.2948 211.731C63.6074 211.491 63.7637 211.189 63.7637 210.824C63.7637 210.449 63.597 210.173 63.2635 209.996C62.9301 209.808 62.4142 209.626 61.7161 209.449C61.0804 209.282 60.5594 209.115 60.153 208.948C59.757 208.771 59.4132 208.516 59.1214 208.183C58.8401 207.839 58.6994 207.391 58.6994 206.838C58.6994 206.401 58.8296 205.999 59.0901 205.635C59.3507 205.27 59.7206 204.983 60.1999 204.775C60.6793 204.556 61.2263 204.447 61.8411 204.447C62.7894 204.447 63.5553 204.687 64.1388 205.166C64.7224 205.645 65.035 206.302 65.0767 207.135H63.6543C63.623 206.687 63.4407 206.328 63.1072 206.057C62.7842 205.786 62.3465 205.65 61.7942 205.65C61.2836 205.65 60.8772 205.76 60.575 205.979C60.2729 206.197 60.1218 206.484 60.1218 206.838C60.1218 207.12 60.2103 207.354 60.3875 207.542C60.575 207.719 60.8043 207.865 61.0752 207.979C61.3566 208.084 61.7421 208.203 62.2319 208.339C62.8467 208.506 63.3469 208.672 63.7324 208.839C64.118 208.995 64.4462 209.235 64.7172 209.558C64.9985 209.881 65.1444 210.303 65.1548 210.824C65.1548 211.293 65.0246 211.715 64.764 212.09C64.5035 212.465 64.1336 212.762 63.6543 212.981C63.1854 213.19 62.6435 213.294 62.0287 213.294ZM73.1024 206.823V208.026H66.8658V206.823H73.1024ZM-142.55 228.839C-142.55 227.964 -142.373 227.198 -142.019 226.541C-141.664 225.874 -141.18 225.359 -140.565 224.994C-139.94 224.629 -139.247 224.447 -138.486 224.447C-137.736 224.447 -137.085 224.608 -136.532 224.931C-135.98 225.254 -135.568 225.661 -135.297 226.151V224.588H-133.859V233.153H-135.297V231.559C-135.579 232.059 -136.001 232.476 -136.564 232.809C-137.116 233.132 -137.762 233.294 -138.502 233.294C-139.262 233.294 -139.95 233.106 -140.565 232.731C-141.18 232.356 -141.664 231.83 -142.019 231.152C-142.373 230.475 -142.55 229.704 -142.55 228.839ZM-135.297 228.855C-135.297 228.209 -135.428 227.646 -135.688 227.167C-135.949 226.687 -136.303 226.323 -136.751 226.072C-137.189 225.812 -137.673 225.682 -138.205 225.682C-138.736 225.682 -139.221 225.807 -139.658 226.057C-140.096 226.307 -140.445 226.672 -140.706 227.151C-140.966 227.63 -141.096 228.193 -141.096 228.839C-141.096 229.496 -140.966 230.069 -140.706 230.558C-140.445 231.038 -140.096 231.408 -139.658 231.668C-139.221 231.918 -138.736 232.043 -138.205 232.043C-137.673 232.043 -137.189 231.918 -136.751 231.668C-136.303 231.408 -135.949 231.038 -135.688 230.558C-135.428 230.069 -135.297 229.501 -135.297 228.855ZM-130.033 221.586V233.153H-131.456V221.586H-130.033ZM-126.187 221.586V233.153H-127.609V221.586H-126.187ZM-120.127 228.839C-120.127 227.964 -119.95 227.198 -119.595 226.541C-119.241 225.874 -118.757 225.359 -118.142 224.994C-117.517 224.629 -116.824 224.447 -116.063 224.447C-115.313 224.447 -114.661 224.608 -114.109 224.931C-113.557 225.254 -113.145 225.661 -112.874 226.151V224.588H-111.436V233.153H-112.874V231.559C-113.156 232.059 -113.578 232.476 -114.14 232.809C-114.693 233.132 -115.339 233.294 -116.079 233.294C-116.839 233.294 -117.527 233.106 -118.142 232.731C-118.757 232.356 -119.241 231.83 -119.595 231.152C-119.95 230.475 -120.127 229.704 -120.127 228.839ZM-112.874 228.855C-112.874 228.209 -113.005 227.646 -113.265 227.167C-113.526 226.687 -113.88 226.323 -114.328 226.072C-114.766 225.812 -115.25 225.682 -115.782 225.682C-116.313 225.682 -116.798 225.807 -117.235 226.057C-117.673 226.307 -118.022 226.672 -118.282 227.151C-118.543 227.63 -118.673 228.193 -118.673 228.839C-118.673 229.496 -118.543 230.069 -118.282 230.558C-118.022 231.038 -117.673 231.408 -117.235 231.668C-116.798 231.918 -116.313 232.043 -115.782 232.043C-115.25 232.043 -114.766 231.918 -114.328 231.668C-113.88 231.408 -113.526 231.038 -113.265 230.558C-113.005 230.069 -112.874 229.501 -112.874 228.855ZM-107.61 226.166C-107.329 225.676 -106.912 225.27 -106.36 224.947C-105.797 224.614 -105.146 224.447 -104.406 224.447C-103.645 224.447 -102.957 224.629 -102.343 224.994C-101.717 225.359 -101.228 225.874 -100.873 226.541C-100.519 227.198 -100.342 227.964 -100.342 228.839C-100.342 229.704 -100.519 230.475 -100.873 231.152C-101.228 231.83 -101.717 232.356 -102.343 232.731C-102.957 233.106 -103.645 233.294 -104.406 233.294C-105.135 233.294 -105.781 233.132 -106.344 232.809C-106.896 232.476 -107.318 232.064 -107.61 231.574V237.217H-109.033V224.588H-107.61V226.166ZM-101.796 228.839C-101.796 228.193 -101.926 227.63 -102.186 227.151C-102.447 226.672 -102.801 226.307 -103.249 226.057C-103.687 225.807 -104.171 225.682 -104.703 225.682C-105.224 225.682 -105.708 225.812 -106.157 226.072C-106.594 226.323 -106.948 226.692 -107.219 227.182C-107.48 227.662 -107.61 228.219 -107.61 228.855C-107.61 229.501 -107.48 230.069 -107.219 230.558C-106.948 231.038 -106.594 231.408 -106.157 231.668C-105.708 231.918 -105.224 232.043 -104.703 232.043C-104.171 232.043 -103.687 231.918 -103.249 231.668C-102.801 231.408 -102.447 231.038 -102.186 230.558C-101.926 230.069 -101.796 229.496 -101.796 228.839ZM-97.0473 226.166C-96.766 225.676 -96.3491 225.27 -95.7969 224.947C-95.2342 224.614 -94.5829 224.447 -93.843 224.447C-93.0823 224.447 -92.3946 224.629 -91.7798 224.994C-91.1546 225.359 -90.6648 225.874 -90.3105 226.541C-89.9562 227.198 -89.7791 227.964 -89.7791 228.839C-89.7791 229.704 -89.9562 230.475 -90.3105 231.152C-90.6648 231.83 -91.1546 232.356 -91.7798 232.731C-92.3946 233.106 -93.0823 233.294 -93.843 233.294C-94.5725 233.294 -95.2185 233.132 -95.7812 232.809C-96.3335 232.476 -96.7555 232.064 -97.0473 231.574V237.217H-98.4697V224.588H-97.0473V226.166ZM-91.2327 228.839C-91.2327 228.193 -91.363 227.63 -91.6235 227.151C-91.884 226.672 -92.2383 226.307 -92.6864 226.057C-93.124 225.807 -93.6086 225.682 -94.14 225.682C-94.661 225.682 -95.1456 225.812 -95.5937 226.072C-96.0313 226.323 -96.3856 226.692 -96.6565 227.182C-96.9171 227.662 -97.0473 228.219 -97.0473 228.855C-97.0473 229.501 -96.9171 230.069 -96.6565 230.558C-96.3856 231.038 -96.0313 231.408 -95.5937 231.668C-95.1456 231.918 -94.661 232.043 -94.14 232.043C-93.6086 232.043 -93.124 231.918 -92.6864 231.668C-92.2383 231.408 -91.884 231.038 -91.6235 230.558C-91.363 230.069 -91.2327 229.496 -91.2327 228.839ZM-86.4844 225.979C-86.2344 225.489 -85.8801 225.109 -85.4216 224.838C-84.9526 224.567 -84.3847 224.431 -83.7178 224.431V225.9H-84.093C-85.6873 225.9 -86.4844 226.765 -86.4844 228.495V233.153H-87.9068V224.588H-86.4844V225.979ZM-78.3402 233.294C-79.1425 233.294 -79.872 233.111 -80.5285 232.747C-81.1745 232.382 -81.6851 231.866 -82.0603 231.199C-82.425 230.522 -82.6073 229.74 -82.6073 228.855C-82.6073 227.979 -82.4198 227.208 -82.0446 226.541C-81.6591 225.864 -81.138 225.348 -80.4816 224.994C-79.8251 224.629 -79.0904 224.447 -78.2776 224.447C-77.4649 224.447 -76.7302 224.629 -76.0737 224.994C-75.4172 225.348 -74.9014 225.859 -74.5263 226.526C-74.1407 227.193 -73.948 227.969 -73.948 228.855C-73.948 229.74 -74.146 230.522 -74.5419 231.199C-74.9275 231.866 -75.4537 232.382 -76.1206 232.747C-76.7875 233.111 -77.5274 233.294 -78.3402 233.294ZM-78.3402 232.043C-77.8296 232.043 -77.3502 231.923 -76.9022 231.684C-76.4541 231.444 -76.0946 231.085 -75.8236 230.605C-75.5423 230.126 -75.4016 229.542 -75.4016 228.855C-75.4016 228.167 -75.5371 227.583 -75.808 227.104C-76.0789 226.625 -76.4332 226.27 -76.8709 226.041C-77.3085 225.801 -77.7827 225.682 -78.2933 225.682C-78.8143 225.682 -79.2936 225.801 -79.7313 226.041C-80.1585 226.27 -80.5024 226.625 -80.7629 227.104C-81.0234 227.583 -81.1537 228.167 -81.1537 228.855C-81.1537 229.553 -81.0286 230.142 -80.7785 230.621C-80.518 231.1 -80.1742 231.46 -79.7469 231.699C-79.3197 231.929 -78.8508 232.043 -78.3402 232.043ZM-72.6092 228.839C-72.6092 227.964 -72.4321 227.198 -72.0778 226.541C-71.7235 225.874 -71.239 225.359 -70.6241 224.994C-69.9989 224.629 -69.306 224.447 -68.5453 224.447C-67.795 224.447 -67.1437 224.608 -66.5915 224.931C-66.0392 225.254 -65.6276 225.661 -65.3566 226.151V224.588H-63.9186V233.153H-65.3566V231.559C-65.638 232.059 -66.06 232.476 -66.6227 232.809C-67.175 233.132 -67.8211 233.294 -68.5609 233.294C-69.3216 233.294 -70.0093 233.106 -70.6241 232.731C-71.239 232.356 -71.7235 231.83 -72.0778 231.152C-72.4321 230.475 -72.6092 229.704 -72.6092 228.839ZM-65.3566 228.855C-65.3566 228.209 -65.4869 227.646 -65.7474 227.167C-66.0079 226.687 -66.3622 226.323 -66.8103 226.072C-67.2479 225.812 -67.7325 225.682 -68.2639 225.682C-68.7954 225.682 -69.2799 225.807 -69.7176 226.057C-70.1552 226.307 -70.5043 226.672 -70.7648 227.151C-71.0253 227.63 -71.1556 228.193 -71.1556 228.839C-71.1556 229.496 -71.0253 230.069 -70.7648 230.558C-70.5043 231.038 -70.1552 231.408 -69.7176 231.668C-69.2799 231.918 -68.7954 232.043 -68.2639 232.043C-67.7325 232.043 -67.2479 231.918 -66.8103 231.668C-66.3622 231.408 -66.0079 231.038 -65.7474 230.558C-65.4869 230.069 -65.3566 229.501 -65.3566 228.855ZM-62.0464 228.855C-62.0464 227.969 -61.8692 227.198 -61.5149 226.541C-61.1606 225.874 -60.6709 225.359 -60.0457 224.994C-59.41 224.629 -58.6858 224.447 -57.873 224.447C-56.8205 224.447 -55.9557 224.702 -55.2783 225.213C-54.5906 225.723 -54.1373 226.432 -53.9185 227.338H-55.4503C-55.5961 226.817 -55.8827 226.406 -56.3099 226.104C-56.7268 225.801 -57.2478 225.65 -57.873 225.65C-58.6858 225.65 -59.3423 225.932 -59.8425 226.494C-60.3426 227.047 -60.5927 227.833 -60.5927 228.855C-60.5927 229.886 -60.3426 230.683 -59.8425 231.246C-59.3423 231.809 -58.6858 232.09 -57.873 232.09C-57.2478 232.09 -56.7268 231.944 -56.3099 231.653C-55.8931 231.361 -55.6066 230.944 -55.4503 230.402H-53.9185C-54.1477 231.277 -54.6062 231.981 -55.294 232.512C-55.9817 233.033 -56.8414 233.294 -57.873 233.294C-58.6858 233.294 -59.41 233.111 -60.0457 232.747C-60.6709 232.382 -61.1606 231.866 -61.5149 231.199C-61.8692 230.532 -62.0464 229.751 -62.0464 228.855ZM-47.769 224.431C-47.123 224.431 -46.5394 224.572 -46.0184 224.853C-45.4974 225.124 -45.091 225.536 -44.7992 226.088C-44.497 226.64 -44.3459 227.312 -44.3459 228.104V233.153H-45.7527V228.308C-45.7527 227.453 -45.9663 226.802 -46.3936 226.354C-46.8208 225.895 -47.4043 225.666 -48.1442 225.666C-48.8944 225.666 -49.4936 225.9 -49.9417 226.369C-50.3794 226.838 -50.5982 227.521 -50.5982 228.417V233.153H-52.0206V221.586H-50.5982V225.807C-50.3168 225.369 -49.9313 225.03 -49.4415 224.791C-48.9413 224.551 -48.3838 224.431 -47.769 224.431ZM-40.5532 231.184L-42.3038 235.388H-43.2573L-42.1163 231.184H-40.5532ZM-23.3464 224.588L-26.0192 233.153H-27.4885L-29.5517 226.354L-31.6149 233.153H-33.0842L-35.7727 224.588H-34.319L-32.3496 231.778L-30.2238 224.588H-28.7702L-26.6913 231.793L-24.7531 224.588H-23.3464ZM-14.1194 228.542C-14.1194 228.813 -14.1351 229.1 -14.1663 229.402H-21.0125C-20.9604 230.246 -20.6739 230.907 -20.1528 231.387C-19.6214 231.856 -18.9805 232.09 -18.2303 232.09C-17.6155 232.09 -17.1049 231.95 -16.6985 231.668C-16.2817 231.376 -15.9899 230.991 -15.8232 230.512H-14.2914C-14.5206 231.335 -14.9791 232.007 -15.6668 232.528C-16.3546 233.038 -17.2091 233.294 -18.2303 233.294C-19.0431 233.294 -19.7725 233.111 -20.4186 232.747C-21.0542 232.382 -21.5544 231.866 -21.9191 231.199C-22.2838 230.522 -22.4662 229.74 -22.4662 228.855C-22.4662 227.969 -22.289 227.193 -21.9347 226.526C-21.5804 225.859 -21.0855 225.348 -20.4498 224.994C-19.8037 224.629 -19.0639 224.447 -18.2303 224.447C-17.4175 224.447 -16.6985 224.624 -16.0732 224.978C-15.448 225.333 -14.9687 225.822 -14.6352 226.448C-14.2914 227.062 -14.1194 227.761 -14.1194 228.542ZM-15.5887 228.245C-15.5887 227.703 -15.7085 227.239 -15.9482 226.854C-16.1879 226.458 -16.5161 226.161 -16.9329 225.963C-17.3393 225.755 -17.7926 225.65 -18.2928 225.65C-19.0118 225.65 -19.6266 225.88 -20.1372 226.338C-20.6374 226.797 -20.9239 227.432 -20.9969 228.245H-15.5887ZM-6.6524 226.166C-6.37104 225.676 -5.95423 225.27 -5.40195 224.947C-4.83925 224.614 -4.18797 224.447 -3.44812 224.447C-2.68743 224.447 -1.99969 224.629 -1.38488 224.994C-0.75966 225.359 -0.269901 225.874 0.0843927 226.541C0.438686 227.198 0.615833 227.964 0.615833 228.839C0.615833 229.704 0.438686 230.475 0.0843927 231.152C-0.269901 231.83 -0.75966 232.356 -1.38488 232.731C-1.99969 233.106 -2.68743 233.294 -3.44812 233.294C-4.17755 233.294 -4.82362 233.132 -5.38632 232.809C-5.9386 232.476 -6.36062 232.064 -6.6524 231.574V237.217H-8.07478V224.588H-6.6524V226.166ZM-0.837813 228.839C-0.837813 228.193 -0.968068 227.63 -1.22858 227.151C-1.48909 226.672 -1.84338 226.307 -2.29146 226.057C-2.72911 225.807 -3.21366 225.682 -3.7451 225.682C-4.26612 225.682 -4.75067 225.812 -5.19875 226.072C-5.63641 226.323 -5.9907 226.692 -6.26163 227.182C-6.52214 227.662 -6.6524 228.219 -6.6524 228.855C-6.6524 229.501 -6.52214 230.069 -6.26163 230.558C-5.9907 231.038 -5.63641 231.408 -5.19875 231.668C-4.75067 231.918 -4.26612 232.043 -3.7451 232.043C-3.21366 232.043 -2.72911 231.918 -2.29146 231.668C-1.84338 231.408 -1.48909 231.038 -1.22858 230.558C-0.968068 230.069 -0.837813 229.496 -0.837813 228.839ZM3.91047 225.979C4.16056 225.489 4.51485 225.109 4.97335 224.838C5.44227 224.567 6.01018 224.431 6.67709 224.431V225.9H6.30195C4.70763 225.9 3.91047 226.765 3.91047 228.495V233.153H2.48809V224.588H3.91047V225.979ZM12.0547 233.294C11.2524 233.294 10.5229 233.111 9.86646 232.747C9.2204 232.382 8.7098 231.866 8.33467 231.199C7.96995 230.522 7.78759 229.74 7.78759 228.855C7.78759 227.979 7.97516 227.208 8.3503 226.541C8.73585 225.864 9.25687 225.348 9.91336 224.994C10.5698 224.629 11.3045 224.447 12.1173 224.447C12.9301 224.447 13.6647 224.629 14.3212 224.994C14.9777 225.348 15.4935 225.859 15.8686 226.526C16.2542 227.193 16.4469 227.969 16.4469 228.855C16.4469 229.74 16.249 230.522 15.853 231.199C15.4674 231.866 14.9412 232.382 14.2743 232.747C13.6074 233.111 12.8675 233.294 12.0547 233.294ZM12.0547 232.043C12.5653 232.043 13.0447 231.923 13.4928 231.684C13.9408 231.444 14.3003 231.085 14.5713 230.605C14.8526 230.126 14.9933 229.542 14.9933 228.855C14.9933 228.167 14.8578 227.583 14.5869 227.104C14.316 226.625 13.9617 226.27 13.524 226.041C13.0864 225.801 12.6122 225.682 12.1016 225.682C11.5806 225.682 11.1013 225.801 10.6636 226.041C10.2364 226.27 9.89251 226.625 9.632 227.104C9.37149 227.583 9.24124 228.167 9.24124 228.855C9.24124 229.553 9.36628 230.142 9.61637 230.621C9.87688 231.1 10.2208 231.46 10.648 231.699C11.0752 231.929 11.5441 232.043 12.0547 232.043ZM21.5058 231.84L24.163 224.588H25.6791L22.3186 233.153H20.6617L17.3011 224.588H18.8329L21.5058 231.84ZM27.8134 223.196C27.5425 223.196 27.3133 223.103 27.1257 222.915C26.9381 222.727 26.8443 222.498 26.8443 222.227C26.8443 221.956 26.9381 221.727 27.1257 221.54C27.3133 221.352 27.5425 221.258 27.8134 221.258C28.0739 221.258 28.2928 221.352 28.4699 221.54C28.6575 221.727 28.7513 221.956 28.7513 222.227C28.7513 222.498 28.6575 222.727 28.4699 222.915C28.2928 223.103 28.0739 223.196 27.8134 223.196ZM28.5012 224.588V233.153H27.0788V224.588H28.5012ZM30.3939 228.839C30.3939 227.964 30.5711 227.198 30.9254 226.541C31.2797 225.874 31.7642 225.359 32.379 224.994C33.0043 224.629 33.7024 224.447 34.4735 224.447C35.1404 224.447 35.7605 224.603 36.3336 224.916C36.9067 225.218 37.3444 225.619 37.6465 226.119V221.586H39.0846V233.153H37.6465V231.543C37.3652 232.054 36.9484 232.476 36.3961 232.809C35.8438 233.132 35.1978 233.294 34.4579 233.294C33.6972 233.294 33.0043 233.106 32.379 232.731C31.7642 232.356 31.2797 231.83 30.9254 231.152C30.5711 230.475 30.3939 229.704 30.3939 228.839ZM37.6465 228.855C37.6465 228.209 37.5163 227.646 37.2558 227.167C36.9953 226.687 36.641 226.323 36.1929 226.072C35.7552 225.812 35.2707 225.682 34.7393 225.682C34.2078 225.682 33.7233 225.807 33.2856 226.057C32.848 226.307 32.4989 226.672 32.2384 227.151C31.9778 227.63 31.8476 228.193 31.8476 228.839C31.8476 229.496 31.9778 230.069 32.2384 230.558C32.4989 231.038 32.848 231.408 33.2856 231.668C33.7233 231.918 34.2078 232.043 34.7393 232.043C35.2707 232.043 35.7552 231.918 36.1929 231.668C36.641 231.408 36.9953 231.038 37.2558 230.558C37.5163 230.069 37.6465 229.501 37.6465 228.855ZM49.3036 228.542C49.3036 228.813 49.2879 229.1 49.2567 229.402H42.4105C42.4626 230.246 42.7491 230.907 43.2701 231.387C43.8016 231.856 44.4424 232.09 45.1927 232.09C45.8075 232.09 46.3181 231.95 46.7245 231.668C47.1413 231.376 47.4331 230.991 47.5998 230.512H49.1316C48.9024 231.335 48.4439 232.007 47.7561 232.528C47.0684 233.038 46.2139 233.294 45.1927 233.294C44.3799 233.294 43.6505 233.111 43.0044 232.747C42.3688 232.382 41.8686 231.866 41.5039 231.199C41.1392 230.522 40.9568 229.74 40.9568 228.855C40.9568 227.969 41.134 227.193 41.4883 226.526C41.8425 225.859 42.3375 225.348 42.9732 224.994C43.6192 224.629 44.3591 224.447 45.1927 224.447C46.0055 224.447 46.7245 224.624 47.3497 224.978C47.975 225.333 48.4543 225.822 48.7877 226.448C49.1316 227.062 49.3036 227.761 49.3036 228.542ZM47.8343 228.245C47.8343 227.703 47.7144 227.239 47.4748 226.854C47.2351 226.458 46.9069 226.161 46.49 225.963C46.0837 225.755 45.6304 225.65 45.1302 225.65C44.4112 225.65 43.7964 225.88 43.2858 226.338C42.7856 226.797 42.499 227.432 42.4261 228.245H47.8343ZM-140.596 246.166C-140.315 245.676 -139.898 245.27 -139.346 244.947C-138.783 244.614 -138.132 244.447 -137.392 244.447C-136.631 244.447 -135.944 244.629 -135.329 244.994C-134.703 245.359 -134.214 245.874 -133.859 246.541C-133.505 247.198 -133.328 247.964 -133.328 248.839C-133.328 249.704 -133.505 250.475 -133.859 251.152C-134.214 251.83 -134.703 252.356 -135.329 252.731C-135.944 253.106 -136.631 253.294 -137.392 253.294C-138.121 253.294 -138.767 253.132 -139.33 252.809C-139.882 252.476 -140.304 252.064 -140.596 251.574V257.217H-142.019V244.588H-140.596V246.166ZM-134.782 248.839C-134.782 248.193 -134.912 247.63 -135.172 247.151C-135.433 246.672 -135.787 246.307 -136.235 246.057C-136.673 245.807 -137.157 245.682 -137.689 245.682C-138.21 245.682 -138.695 245.812 -139.143 246.072C-139.58 246.323 -139.935 246.692 -140.205 247.182C-140.466 247.662 -140.596 248.219 -140.596 248.855C-140.596 249.501 -140.466 250.069 -140.205 250.558C-139.935 251.038 -139.58 251.408 -139.143 251.668C-138.695 251.918 -138.21 252.043 -137.689 252.043C-137.157 252.043 -136.673 251.918 -136.235 251.668C-135.787 251.408 -135.433 251.038 -135.172 250.558C-134.912 250.069 -134.782 249.496 -134.782 248.839ZM-123.64 248.542C-123.64 248.813 -123.656 249.1 -123.687 249.402H-130.534C-130.481 250.246 -130.195 250.907 -129.674 251.387C-129.142 251.856 -128.502 252.09 -127.751 252.09C-127.136 252.09 -126.626 251.95 -126.219 251.668C-125.803 251.376 -125.511 250.991 -125.344 250.512H-123.812C-124.042 251.335 -124.5 252.007 -125.188 252.528C-125.876 253.038 -126.73 253.294 -127.751 253.294C-128.564 253.294 -129.294 253.111 -129.94 252.747C-130.575 252.382 -131.075 251.866 -131.44 251.199C-131.805 250.522 -131.987 249.74 -131.987 248.855C-131.987 247.969 -131.81 247.193 -131.456 246.526C-131.101 245.859 -130.606 245.348 -129.971 244.994C-129.325 244.629 -128.585 244.447 -127.751 244.447C-126.939 244.447 -126.219 244.624 -125.594 244.978C-124.969 245.333 -124.49 245.822 -124.156 246.448C-123.812 247.062 -123.64 247.761 -123.64 248.542ZM-125.11 248.245C-125.11 247.703 -125.23 247.239 -125.469 246.854C-125.709 246.458 -126.037 246.161 -126.454 245.963C-126.86 245.755 -127.314 245.65 -127.814 245.65C-128.533 245.65 -129.148 245.88 -129.658 246.338C-130.158 246.797 -130.445 247.432 -130.518 248.245H-125.11ZM-120.341 245.979C-120.09 245.489 -119.736 245.109 -119.278 244.838C-118.809 244.567 -118.241 244.431 -117.574 244.431V245.9H-117.949C-119.543 245.9 -120.341 246.765 -120.341 248.495V253.153H-121.763V244.588H-120.341V245.979ZM-112.9 253.294C-113.556 253.294 -114.145 253.184 -114.666 252.966C-115.187 252.736 -115.599 252.424 -115.901 252.028C-116.203 251.621 -116.37 251.158 -116.401 250.637H-114.932C-114.89 251.064 -114.692 251.413 -114.338 251.684C-113.973 251.955 -113.499 252.09 -112.915 252.09C-112.373 252.09 -111.946 251.97 -111.634 251.731C-111.321 251.491 -111.165 251.189 -111.165 250.824C-111.165 250.449 -111.331 250.173 -111.665 249.996C-111.998 249.808 -112.514 249.626 -113.212 249.449C-113.848 249.282 -114.369 249.115 -114.775 248.948C-115.171 248.771 -115.515 248.516 -115.807 248.183C-116.088 247.839 -116.229 247.391 -116.229 246.838C-116.229 246.401 -116.099 245.999 -115.838 245.635C-115.578 245.27 -115.208 244.983 -114.728 244.775C-114.249 244.556 -113.702 244.447 -113.087 244.447C-112.139 244.447 -111.373 244.687 -110.79 245.166C-110.206 245.645 -109.893 246.302 -109.852 247.135H-111.274C-111.305 246.687 -111.488 246.328 -111.821 246.057C-112.144 245.786 -112.582 245.65 -113.134 245.65C-113.645 245.65 -114.051 245.76 -114.353 245.979C-114.656 246.197 -114.807 246.484 -114.807 246.838C-114.807 247.12 -114.718 247.354 -114.541 247.542C-114.353 247.719 -114.124 247.865 -113.853 247.979C-113.572 248.084 -113.186 248.203 -112.696 248.339C-112.082 248.506 -111.581 248.672 -111.196 248.839C-110.81 248.995 -110.482 249.235 -110.211 249.558C-109.93 249.881 -109.784 250.303 -109.774 250.824C-109.774 251.293 -109.904 251.715 -110.164 252.09C-110.425 252.465 -110.795 252.762 -111.274 252.981C-111.743 253.19 -112.285 253.294 -112.9 253.294ZM-104.03 253.294C-104.832 253.294 -105.562 253.111 -106.218 252.747C-106.864 252.382 -107.375 251.866 -107.75 251.199C-108.115 250.522 -108.297 249.74 -108.297 248.855C-108.297 247.979 -108.109 247.208 -107.734 246.541C-107.349 245.864 -106.828 245.348 -106.171 244.994C-105.515 244.629 -104.78 244.447 -103.967 244.447C-103.155 244.447 -102.42 244.629 -101.763 244.994C-101.107 245.348 -100.591 245.859 -100.216 246.526C-99.8305 247.193 -99.6377 247.969 -99.6377 248.855C-99.6377 249.74 -99.8357 250.522 -100.232 251.199C-100.617 251.866 -101.143 252.382 -101.81 252.747C-102.477 253.111 -103.217 253.294 -104.03 253.294ZM-104.03 252.043C-103.519 252.043 -103.04 251.923 -102.592 251.684C-102.144 251.444 -101.784 251.085 -101.513 250.605C-101.232 250.126 -101.091 249.542 -101.091 248.855C-101.091 248.167 -101.227 247.583 -101.498 247.104C-101.769 246.625 -102.123 246.27 -102.561 246.041C-102.998 245.801 -103.472 245.682 -103.983 245.682C-104.504 245.682 -104.983 245.801 -105.421 246.041C-105.848 246.27 -106.192 246.625 -106.453 247.104C-106.713 247.583 -106.843 248.167 -106.843 248.855C-106.843 249.553 -106.718 250.142 -106.468 250.621C-106.208 251.1 -105.864 251.46 -105.437 251.699C-105.009 251.929 -104.541 252.043 -104.03 252.043ZM-93.5942 244.431C-92.5521 244.431 -91.7081 244.749 -91.062 245.385C-90.4159 246.01 -90.0929 246.916 -90.0929 248.104V253.153H-91.4997V248.308C-91.4997 247.453 -91.7133 246.802 -92.1405 246.354C-92.5678 245.895 -93.1513 245.666 -93.8911 245.666C-94.6414 245.666 -95.2406 245.9 -95.6887 246.369C-96.1263 246.838 -96.3452 247.521 -96.3452 248.417V253.153H-97.7675V244.588H-96.3452V245.807C-96.0638 245.369 -95.6835 245.03 -95.2041 244.791C-94.7144 244.551 -94.1777 244.431 -93.5942 244.431ZM-88.3009 248.839C-88.3009 247.964 -88.1237 247.198 -87.7695 246.541C-87.4152 245.874 -86.9306 245.359 -86.3158 244.994C-85.6906 244.629 -84.9976 244.447 -84.2369 244.447C-83.4867 244.447 -82.8354 244.608 -82.2831 244.931C-81.7308 245.254 -81.3192 245.661 -81.0483 246.151V244.588H-79.6103V253.153H-81.0483V251.559C-81.3296 252.059 -81.7517 252.476 -82.3144 252.809C-82.8667 253.132 -83.5127 253.294 -84.2526 253.294C-85.0133 253.294 -85.701 253.106 -86.3158 252.731C-86.9306 252.356 -87.4152 251.83 -87.7695 251.152C-88.1237 250.475 -88.3009 249.704 -88.3009 248.839ZM-81.0483 248.855C-81.0483 248.209 -81.1785 247.646 -81.4391 247.167C-81.6996 246.687 -82.0539 246.323 -82.5019 246.072C-82.9396 245.812 -83.4241 245.682 -83.9556 245.682C-84.487 245.682 -84.9716 245.807 -85.4092 246.057C-85.8469 246.307 -86.196 246.672 -86.4565 247.151C-86.717 247.63 -86.8472 248.193 -86.8472 248.839C-86.8472 249.496 -86.717 250.069 -86.4565 250.558C-86.196 251.038 -85.8469 251.408 -85.4092 251.668C-84.9716 251.918 -84.487 252.043 -83.9556 252.043C-83.4241 252.043 -82.9396 251.918 -82.5019 251.668C-82.0539 251.408 -81.6996 251.038 -81.4391 250.558C-81.1785 250.069 -81.0483 249.501 -81.0483 248.855ZM-75.7842 241.586V253.153H-77.2066V241.586H-75.7842ZM-72.6254 243.196C-72.8963 243.196 -73.1255 243.103 -73.3131 242.915C-73.5007 242.727 -73.5945 242.498 -73.5945 242.227C-73.5945 241.956 -73.5007 241.727 -73.3131 241.54C-73.1255 241.352 -72.8963 241.258 -72.6254 241.258C-72.3648 241.258 -72.146 241.352 -71.9689 241.54C-71.7813 241.727 -71.6875 241.956 -71.6875 242.227C-71.6875 242.498 -71.7813 242.727 -71.9689 242.915C-72.146 243.103 -72.3648 243.196 -72.6254 243.196ZM-71.9376 244.588V253.153H-73.36V244.588H-71.9376ZM-68.4505 251.981H-64.2459V253.153H-70.0761V251.981L-65.9184 245.744H-70.0448V244.588H-64.2772V245.744L-68.4505 251.981ZM-54.585 248.542C-54.585 248.813 -54.6006 249.1 -54.6319 249.402H-61.4781C-61.4259 250.246 -61.1394 250.907 -60.6184 251.387C-60.0869 251.856 -59.4461 252.09 -58.6958 252.09C-58.081 252.09 -57.5704 251.95 -57.164 251.668C-56.7472 251.376 -56.4554 250.991 -56.2887 250.512H-54.7569C-54.9861 251.335 -55.4446 252.007 -56.1324 252.528C-56.8201 253.038 -57.6746 253.294 -58.6958 253.294C-59.5086 253.294 -60.238 253.111 -60.8841 252.747C-61.5197 252.382 -62.0199 251.866 -62.3846 251.199C-62.7493 250.522 -62.9317 249.74 -62.9317 248.855C-62.9317 247.969 -62.7546 247.193 -62.4003 246.526C-62.046 245.859 -61.551 245.348 -60.9154 244.994C-60.2693 244.629 -59.5294 244.447 -58.6958 244.447C-57.883 244.447 -57.164 244.624 -56.5388 244.978C-55.9136 245.333 -55.4342 245.822 -55.1008 246.448C-54.7569 247.062 -54.585 247.761 -54.585 248.542ZM-56.0542 248.245C-56.0542 247.703 -56.1741 247.239 -56.4137 246.854C-56.6534 246.458 -56.9817 246.161 -57.3985 245.963C-57.8049 245.755 -58.2581 245.65 -58.7583 245.65C-59.4773 245.65 -60.0921 245.88 -60.6027 246.338C-61.1029 246.797 -61.3895 247.432 -61.4624 248.245H-56.0542ZM-53.2389 248.839C-53.2389 247.964 -53.0617 247.198 -52.7075 246.541C-52.3532 245.874 -51.8686 245.359 -51.2538 244.994C-50.6286 244.629 -49.9304 244.447 -49.1593 244.447C-48.4924 244.447 -47.8724 244.603 -47.2993 244.916C-46.7261 245.218 -46.2885 245.619 -45.9863 246.119V241.586H-44.5483V253.153H-45.9863V251.543C-46.2676 252.054 -46.6845 252.476 -47.2367 252.809C-47.789 253.132 -48.4351 253.294 -49.1749 253.294C-49.9356 253.294 -50.6286 253.106 -51.2538 252.731C-51.8686 252.356 -52.3532 251.83 -52.7075 251.152C-53.0617 250.475 -53.2389 249.704 -53.2389 248.839ZM-45.9863 248.855C-45.9863 248.209 -46.1166 247.646 -46.3771 247.167C-46.6376 246.687 -46.9919 246.323 -47.4399 246.072C-47.8776 245.812 -48.3621 245.682 -48.8936 245.682C-49.425 245.682 -49.9096 245.807 -50.3472 246.057C-50.7849 246.307 -51.134 246.672 -51.3945 247.151C-51.655 247.63 -51.7852 248.193 -51.7852 248.839C-51.7852 249.496 -51.655 250.069 -51.3945 250.558C-51.134 251.038 -50.7849 251.408 -50.3472 251.668C-49.9096 251.918 -49.425 252.043 -48.8936 252.043C-48.3621 252.043 -47.8776 251.918 -47.4399 251.668C-46.9919 251.408 -46.6376 251.038 -46.3771 250.558C-46.1166 250.069 -45.9863 249.501 -45.9863 248.855ZM-34.9451 253.294C-35.6016 253.294 -36.1904 253.184 -36.7114 252.966C-37.2324 252.736 -37.644 252.424 -37.9462 252.028C-38.2484 251.621 -38.4151 251.158 -38.4464 250.637H-36.9771C-36.9354 251.064 -36.7374 251.413 -36.3831 251.684C-36.0184 251.955 -35.5443 252.09 -34.9607 252.09C-34.4189 252.09 -33.9916 251.97 -33.679 251.731C-33.3664 251.491 -33.2101 251.189 -33.2101 250.824C-33.2101 250.449 -33.3768 250.173 -33.7103 249.996C-34.0438 249.808 -34.5596 249.626 -35.2577 249.449C-35.8934 249.282 -36.4144 249.115 -36.8208 248.948C-37.2168 248.771 -37.5606 248.516 -37.8524 248.183C-38.1338 247.839 -38.2744 247.391 -38.2744 246.838C-38.2744 246.401 -38.1442 245.999 -37.8837 245.635C-37.6232 245.27 -37.2532 244.983 -36.7739 244.775C-36.2946 244.556 -35.7475 244.447 -35.1327 244.447C-34.1844 244.447 -33.4185 244.687 -32.835 245.166C-32.2514 245.645 -31.9388 246.302 -31.8971 247.135H-33.3195C-33.3508 246.687 -33.5332 246.328 -33.8666 246.057C-34.1896 245.786 -34.6273 245.65 -35.1796 245.65C-35.6902 245.65 -36.0966 245.76 -36.3988 245.979C-36.701 246.197 -36.852 246.484 -36.852 246.838C-36.852 247.12 -36.7635 247.354 -36.5863 247.542C-36.3988 247.719 -36.1695 247.865 -35.8986 247.979C-35.6172 248.084 -35.2317 248.203 -34.7419 248.339C-34.1271 248.506 -33.6269 248.672 -33.2414 248.839C-32.8558 248.995 -32.5276 249.235 -32.2567 249.558C-31.9753 249.881 -31.8294 250.303 -31.819 250.824C-31.819 251.293 -31.9493 251.715 -32.2098 252.09C-32.4703 252.465 -32.8402 252.762 -33.3195 252.981C-33.7885 253.19 -34.3303 253.294 -34.9451 253.294ZM-26.0754 253.294C-26.8777 253.294 -27.6072 253.111 -28.2636 252.747C-28.9097 252.382 -29.4203 251.866 -29.7954 251.199C-30.1602 250.522 -30.3425 249.74 -30.3425 248.855C-30.3425 247.979 -30.155 247.208 -29.7798 246.541C-29.3943 245.864 -28.8732 245.348 -28.2168 244.994C-27.5603 244.629 -26.8256 244.447 -26.0128 244.447C-25.2001 244.447 -24.4654 244.629 -23.8089 244.994C-23.1524 245.348 -22.6366 245.859 -22.2615 246.526C-21.8759 247.193 -21.6832 247.969 -21.6832 248.855C-21.6832 249.74 -21.8812 250.522 -22.2771 251.199C-22.6627 251.866 -23.1889 252.382 -23.8558 252.747C-24.5227 253.111 -25.2626 253.294 -26.0754 253.294ZM-26.0754 252.043C-25.5648 252.043 -25.0854 251.923 -24.6373 251.684C-24.1893 251.444 -23.8298 251.085 -23.5588 250.605C-23.2775 250.126 -23.1368 249.542 -23.1368 248.855C-23.1368 248.167 -23.2723 247.583 -23.5432 247.104C-23.8141 246.625 -24.1684 246.27 -24.6061 246.041C-25.0437 245.801 -25.5179 245.682 -26.0285 245.682C-26.5495 245.682 -27.0288 245.801 -27.4665 246.041C-27.8937 246.27 -28.2376 246.625 -28.4981 247.104C-28.7586 247.583 -28.8889 248.167 -28.8889 248.855C-28.8889 249.553 -28.7638 250.142 -28.5137 250.621C-28.2532 251.1 -27.9094 251.46 -27.4821 251.699C-27.0549 251.929 -26.586 252.043 -26.0754 252.043ZM-18.3906 241.586V253.153H-19.813V241.586H-18.3906ZM-8.36993 244.588V253.153H-9.79231V251.887C-10.0632 252.325 -10.4436 252.669 -10.9333 252.919C-11.4127 253.158 -11.9441 253.278 -12.5277 253.278C-13.1946 253.278 -13.7937 253.143 -14.3252 252.872C-14.8566 252.59 -15.2786 252.174 -15.5913 251.621C-15.8935 251.069 -16.0445 250.397 -16.0445 249.605V244.588H-14.6378V249.417C-14.6378 250.261 -14.4242 250.913 -13.9969 251.371C-13.5697 251.819 -12.9862 252.043 -12.2463 252.043C-11.4856 252.043 -10.8865 251.809 -10.4488 251.34C-10.0111 250.871 -9.79231 250.188 -9.79231 249.292V244.588H-8.36993ZM-4.23331 245.76V250.808C-4.23331 251.225 -4.14473 251.522 -3.96759 251.699C-3.79044 251.866 -3.48304 251.95 -3.04538 251.95H-1.99813V253.153H-3.27984C-4.07179 253.153 -4.66575 252.971 -5.06173 252.606C-5.4577 252.241 -5.65569 251.642 -5.65569 250.808V245.76H-6.76546V244.588H-5.65569V242.43H-4.23331V244.588H-1.99813V245.76H-4.23331ZM0.459892 243.196C0.188962 243.196 -0.040287 243.103 -0.227854 242.915C-0.415421 242.727 -0.509205 242.498 -0.509205 242.227C-0.509205 241.956 -0.415421 241.727 -0.227854 241.54C-0.040287 241.352 0.188962 241.258 0.459892 241.258C0.720402 241.258 0.93923 241.352 1.11638 241.54C1.30394 241.727 1.39773 241.956 1.39773 242.227C1.39773 242.498 1.30394 242.727 1.11638 242.915C0.93923 243.103 0.720402 243.196 0.459892 243.196ZM1.14764 244.588V253.153H-0.274746V244.588H1.14764ZM7.30756 253.294C6.50518 253.294 5.77576 253.111 5.11927 252.747C4.47321 252.382 3.96261 251.866 3.58747 251.199C3.22276 250.522 3.0404 249.74 3.0404 248.855C3.0404 247.979 3.22797 247.208 3.6031 246.541C3.98866 245.864 4.50968 245.348 5.16616 244.994C5.82265 244.629 6.55729 244.447 7.37008 244.447C8.18287 244.447 8.91751 244.629 9.57399 244.994C10.2305 245.348 10.7463 245.859 11.1214 246.526C11.507 247.193 11.6998 247.969 11.6998 248.855C11.6998 249.74 11.5018 250.522 11.1058 251.199C10.7202 251.866 10.194 252.382 9.5271 252.747C8.86019 253.111 8.12035 253.294 7.30756 253.294ZM7.30756 252.043C7.81815 252.043 8.29749 251.923 8.74557 251.684C9.19365 251.444 9.55315 251.085 9.82408 250.605C10.1054 250.126 10.2461 249.542 10.2461 248.855C10.2461 248.167 10.1106 247.583 9.83971 247.104C9.56878 246.625 9.21449 246.27 8.77683 246.041C8.33917 245.801 7.86505 245.682 7.35445 245.682C6.83343 245.682 6.35409 245.801 5.91643 246.041C5.4892 246.27 5.14532 246.625 4.88481 247.104C4.6243 247.583 4.49405 248.167 4.49405 248.855C4.49405 249.553 4.61909 250.142 4.86918 250.621C5.12969 251.1 5.47356 251.46 5.9008 251.699C6.32804 251.929 6.79696 252.043 7.30756 252.043ZM17.7433 244.431C18.7853 244.431 19.6294 244.749 20.2755 245.385C20.9215 246.01 21.2446 246.916 21.2446 248.104V253.153H19.8378V248.308C19.8378 247.453 19.6242 246.802 19.1969 246.354C18.7697 245.895 18.1862 245.666 17.4463 245.666C16.6961 245.666 16.0969 245.9 15.6488 246.369C15.2111 246.838 14.9923 247.521 14.9923 248.417V253.153H13.5699V244.588H14.9923V245.807C15.2737 245.369 15.654 245.03 16.1334 244.791C16.6231 244.551 17.1598 244.431 17.7433 244.431ZM26.6004 253.294C25.9439 253.294 25.3551 253.184 24.8341 252.966C24.3131 252.736 23.9015 252.424 23.5993 252.028C23.2971 251.621 23.1304 251.158 23.0991 250.637H24.5684C24.6101 251.064 24.8081 251.413 25.1623 251.684C25.5271 251.955 26.0012 252.09 26.5847 252.09C27.1266 252.09 27.5538 251.97 27.8664 251.731C28.1791 251.491 28.3354 251.189 28.3354 250.824C28.3354 250.449 28.1686 250.173 27.8352 249.996C27.5017 249.808 26.9859 249.626 26.2878 249.449C25.6521 249.282 25.1311 249.115 24.7247 248.948C24.3287 248.771 23.9848 248.516 23.6931 248.183C23.4117 247.839 23.271 247.391 23.271 246.838C23.271 246.401 23.4013 245.999 23.6618 245.635C23.9223 245.27 24.2922 244.983 24.7716 244.775C25.2509 244.556 25.798 244.447 26.4128 244.447C27.3611 244.447 28.127 244.687 28.7105 245.166C29.294 245.645 29.6066 246.302 29.6483 247.135H28.2259C28.1947 246.687 28.0123 246.328 27.6789 246.057C27.3558 245.786 26.9182 245.65 26.3659 245.65C25.8553 245.65 25.4489 245.76 25.1467 245.979C24.8445 246.197 24.6934 246.484 24.6934 246.838C24.6934 247.12 24.782 247.354 24.9592 247.542C25.1467 247.719 25.376 247.865 25.6469 247.979C25.9282 248.084 26.3138 248.203 26.8036 248.339C27.4184 248.506 27.9185 248.672 28.3041 248.839C28.6897 248.995 29.0179 249.235 29.2888 249.558C29.5702 249.881 29.7161 250.303 29.7265 250.824C29.7265 251.293 29.5962 251.715 29.3357 252.09C29.0752 252.465 28.7053 252.762 28.2259 252.981C27.757 253.19 27.2152 253.294 26.6004 253.294ZM39.3872 245.76H37.5896V253.153H36.1673V245.76H35.0575V244.588H36.1673V243.978C36.1673 243.019 36.4121 242.321 36.9019 241.883C37.4021 241.435 38.1992 241.211 39.2934 241.211V242.399C38.6682 242.399 38.2253 242.524 37.9648 242.774C37.7147 243.014 37.5896 243.415 37.5896 243.978V244.588H39.3872V245.76ZM44.7813 253.294C43.9789 253.294 43.2495 253.111 42.593 252.747C41.947 252.382 41.4364 251.866 41.0612 251.199C40.6965 250.522 40.5142 249.74 40.5142 248.855C40.5142 247.979 40.7017 247.208 41.0769 246.541C41.4624 245.864 41.9834 245.348 42.6399 244.994C43.2964 244.629 44.031 244.447 44.8438 244.447C45.6566 244.447 46.3913 244.629 47.0477 244.994C47.7042 245.348 48.22 245.859 48.5952 246.526C48.9807 247.193 49.1735 247.969 49.1735 248.855C49.1735 249.74 48.9755 250.522 48.5795 251.199C48.194 251.866 47.6678 252.382 47.0009 252.747C46.3339 253.111 45.5941 253.294 44.7813 253.294ZM44.7813 252.043C45.2919 252.043 45.7712 251.923 46.2193 251.684C46.6674 251.444 47.0269 251.085 47.2978 250.605C47.5792 250.126 47.7199 249.542 47.7199 248.855C47.7199 248.167 47.5844 247.583 47.3135 247.104C47.0425 246.625 46.6882 246.27 46.2506 246.041C45.8129 245.801 45.3388 245.682 44.8282 245.682C44.3072 245.682 43.8278 245.801 43.3902 246.041C42.963 246.27 42.6191 246.625 42.3586 247.104C42.0981 247.583 41.9678 248.167 41.9678 248.855C41.9678 249.553 42.0928 250.142 42.3429 250.621C42.6034 251.1 42.9473 251.46 43.3746 251.699C43.8018 251.929 44.2707 252.043 44.7813 252.043ZM52.4661 245.979C52.7161 245.489 53.0704 245.109 53.5289 244.838C53.9979 244.567 54.5658 244.431 55.2327 244.431V245.9H54.8575C53.2632 245.9 52.4661 246.765 52.4661 248.495V253.153H51.0437V244.588H52.4661V245.979ZM60.5103 248.839C60.5103 247.964 60.6875 247.198 61.0418 246.541C61.3961 245.874 61.8806 245.359 62.4954 244.994C63.1206 244.629 63.8136 244.447 64.5743 244.447C65.3246 244.447 65.9758 244.608 66.5281 244.931C67.0804 245.254 67.492 245.661 67.7629 246.151V244.588H69.2009V253.153H67.7629V251.559C67.4816 252.059 67.0595 252.476 66.4968 252.809C65.9446 253.132 65.2985 253.294 64.5587 253.294C63.798 253.294 63.1102 253.106 62.4954 252.731C61.8806 252.356 61.3961 251.83 61.0418 251.152C60.6875 250.475 60.5103 249.704 60.5103 248.839ZM67.7629 248.855C67.7629 248.209 67.6327 247.646 67.3722 247.167C67.1116 246.687 66.7574 246.323 66.3093 246.072C65.8716 245.812 65.3871 245.682 64.8556 245.682C64.3242 245.682 63.8396 245.807 63.402 246.057C62.9643 246.307 62.6152 246.672 62.3547 247.151C62.0942 247.63 61.964 248.193 61.964 248.839C61.964 249.496 62.0942 250.069 62.3547 250.558C62.6152 251.038 62.9643 251.408 63.402 251.668C63.8396 251.918 64.3242 252.043 64.8556 252.043C65.3871 252.043 65.8716 251.918 66.3093 251.668C66.7574 251.408 67.1116 251.038 67.3722 250.558C67.6327 250.069 67.7629 249.501 67.7629 248.855ZM73.027 241.586V253.153H71.6046V241.586H73.027ZM76.8736 241.586V253.153H75.4512V241.586H76.8736ZM-138.283 273.294C-139.085 273.294 -139.815 273.111 -140.471 272.747C-141.117 272.382 -141.628 271.866 -142.003 271.199C-142.368 270.522 -142.55 269.74 -142.55 268.855C-142.55 267.979 -142.362 267.208 -141.987 266.541C-141.602 265.864 -141.081 265.348 -140.424 264.994C-139.768 264.629 -139.033 264.447 -138.22 264.447C-137.408 264.447 -136.673 264.629 -136.016 264.994C-135.36 265.348 -134.844 265.859 -134.469 266.526C-134.083 267.193 -133.891 267.969 -133.891 268.855C-133.891 269.74 -134.089 270.522 -134.485 271.199C-134.87 271.866 -135.396 272.382 -136.063 272.747C-136.73 273.111 -137.47 273.294 -138.283 273.294ZM-138.283 272.043C-137.772 272.043 -137.293 271.923 -136.845 271.684C-136.397 271.444 -136.037 271.085 -135.766 270.605C-135.485 270.126 -135.344 269.542 -135.344 268.855C-135.344 268.167 -135.48 267.583 -135.751 267.104C-136.022 266.625 -136.376 266.27 -136.814 266.041C-137.251 265.801 -137.725 265.682 -138.236 265.682C-138.757 265.682 -139.236 265.801 -139.674 266.041C-140.101 266.27 -140.445 266.625 -140.706 267.104C-140.966 267.583 -141.096 268.167 -141.096 268.855C-141.096 269.553 -140.971 270.142 -140.721 270.621C-140.461 271.1 -140.117 271.46 -139.69 271.699C-139.262 271.929 -138.793 272.043 -138.283 272.043ZM-128.535 265.76H-130.332V273.153H-131.755V265.76H-132.865V264.588H-131.755V263.978C-131.755 263.019 -131.51 262.321 -131.02 261.883C-130.52 261.435 -129.723 261.211 -128.629 261.211V262.399C-129.254 262.399 -129.697 262.524 -129.957 262.774C-130.207 263.014 -130.332 263.415 -130.332 263.978V264.588H-128.535V265.76ZM-118.974 273.294C-119.776 273.294 -120.505 273.111 -121.162 272.747C-121.808 272.382 -122.319 271.866 -122.694 271.199C-123.058 270.522 -123.241 269.74 -123.241 268.855C-123.241 267.979 -123.053 267.208 -122.678 266.541C-122.293 265.864 -121.771 265.348 -121.115 264.994C-120.459 264.629 -119.724 264.447 -118.911 264.447C-118.098 264.447 -117.364 264.629 -116.707 264.994C-116.051 265.348 -115.535 265.859 -115.16 266.526C-114.774 267.193 -114.581 267.969 -114.581 268.855C-114.581 269.74 -114.779 270.522 -115.175 271.199C-115.561 271.866 -116.087 272.382 -116.754 272.747C-117.421 273.111 -118.161 273.294 -118.974 273.294ZM-118.974 272.043C-118.463 272.043 -117.984 271.923 -117.536 271.684C-117.088 271.444 -116.728 271.085 -116.457 270.605C-116.176 270.126 -116.035 269.542 -116.035 268.855C-116.035 268.167 -116.171 267.583 -116.441 267.104C-116.712 266.625 -117.067 266.27 -117.504 266.041C-117.942 265.801 -118.416 265.682 -118.927 265.682C-119.448 265.682 -119.927 265.801 -120.365 266.041C-120.792 266.27 -121.136 266.625 -121.396 267.104C-121.657 267.583 -121.787 268.167 -121.787 268.855C-121.787 269.553 -121.662 270.142 -121.412 270.621C-121.151 271.1 -120.808 271.46 -120.38 271.699C-119.953 271.929 -119.484 272.043 -118.974 272.043ZM-105.115 264.588V273.153H-106.537V271.887C-106.808 272.325 -107.188 272.669 -107.678 272.919C-108.158 273.158 -108.689 273.278 -109.273 273.278C-109.939 273.278 -110.539 273.143 -111.07 272.872C-111.601 272.59 -112.023 272.174 -112.336 271.621C-112.638 271.069 -112.789 270.397 -112.789 269.605V264.588H-111.383V269.417C-111.383 270.261 -111.169 270.913 -110.742 271.371C-110.315 271.819 -109.731 272.043 -108.991 272.043C-108.23 272.043 -107.631 271.809 -107.194 271.34C-106.756 270.871 -106.537 270.188 -106.537 269.292V264.588H-105.115ZM-101.291 265.979C-101.041 265.489 -100.686 265.109 -100.228 264.838C-99.759 264.567 -99.1911 264.431 -98.5242 264.431V265.9H-98.8993C-100.494 265.9 -101.291 266.765 -101.291 268.495V273.153H-102.713V264.588H-101.291V265.979ZM-93.2465 268.855C-93.2465 267.969 -93.0694 267.198 -92.7151 266.541C-92.3608 265.874 -91.871 265.359 -91.2458 264.994C-90.6101 264.629 -89.8859 264.447 -89.0731 264.447C-88.0207 264.447 -87.1558 264.702 -86.4785 265.213C-85.7907 265.723 -85.3374 266.432 -85.1186 267.338H-86.6504C-86.7963 266.817 -87.0828 266.406 -87.5101 266.104C-87.9269 265.801 -88.4479 265.65 -89.0731 265.65C-89.8859 265.65 -90.5424 265.932 -91.0426 266.494C-91.5428 267.047 -91.7929 267.833 -91.7929 268.855C-91.7929 269.886 -91.5428 270.683 -91.0426 271.246C-90.5424 271.809 -89.8859 272.09 -89.0731 272.09C-88.4479 272.09 -87.9269 271.944 -87.5101 271.653C-87.0933 271.361 -86.8067 270.944 -86.6504 270.402H-85.1186C-85.3478 271.277 -85.8063 271.981 -86.4941 272.512C-87.1818 273.033 -88.0415 273.294 -89.0731 273.294C-89.8859 273.294 -90.6101 273.111 -91.2458 272.747C-91.871 272.382 -92.3608 271.866 -92.7151 271.199C-93.0694 270.532 -93.2465 269.751 -93.2465 268.855ZM-81.7983 261.586V273.153H-83.2207V261.586H-81.7983ZM-78.6395 263.196C-78.9104 263.196 -79.1397 263.103 -79.3272 262.915C-79.5148 262.727 -79.6086 262.498 -79.6086 262.227C-79.6086 261.956 -79.5148 261.727 -79.3272 261.54C-79.1397 261.352 -78.9104 261.258 -78.6395 261.258C-78.379 261.258 -78.1601 261.352 -77.983 261.54C-77.7954 261.727 -77.7016 261.956 -77.7016 262.227C-77.7016 262.498 -77.7954 262.727 -77.983 262.915C-78.1601 263.103 -78.379 263.196 -78.6395 263.196ZM-77.9517 264.588V273.153H-79.3741V264.588H-77.9517ZM-67.7122 268.542C-67.7122 268.813 -67.7278 269.1 -67.7591 269.402H-74.6053C-74.5532 270.246 -74.2666 270.907 -73.7456 271.387C-73.2142 271.856 -72.5733 272.09 -71.8231 272.09C-71.2083 272.09 -70.6977 271.95 -70.2913 271.668C-69.8744 271.376 -69.5827 270.991 -69.416 270.512H-67.8842C-68.1134 271.335 -68.5719 272.007 -69.2596 272.528C-69.9474 273.038 -70.8019 273.294 -71.8231 273.294C-72.6359 273.294 -73.3653 273.111 -74.0113 272.747C-74.647 272.382 -75.1472 271.866 -75.5119 271.199C-75.8766 270.522 -76.059 269.74 -76.059 268.855C-76.059 267.969 -75.8818 267.193 -75.5275 266.526C-75.1732 265.859 -74.6783 265.348 -74.0426 264.994C-73.3965 264.629 -72.6567 264.447 -71.8231 264.447C-71.0103 264.447 -70.2913 264.624 -69.666 264.978C-69.0408 265.333 -68.5615 265.822 -68.228 266.448C-67.8842 267.062 -67.7122 267.761 -67.7122 268.542ZM-69.1815 268.245C-69.1815 267.703 -69.3013 267.239 -69.541 266.854C-69.7807 266.458 -70.1089 266.161 -70.5257 265.963C-70.9321 265.755 -71.3854 265.65 -71.8856 265.65C-72.6046 265.65 -73.2194 265.88 -73.73 266.338C-74.2302 266.797 -74.5167 267.432 -74.5897 268.245H-69.1815ZM-61.6613 264.431C-60.6193 264.431 -59.7753 264.749 -59.1292 265.385C-58.4831 266.01 -58.1601 266.916 -58.1601 268.104V273.153H-59.5668V268.308C-59.5668 267.453 -59.7805 266.802 -60.2077 266.354C-60.6349 265.895 -61.2185 265.666 -61.9583 265.666C-62.7086 265.666 -63.3078 265.9 -63.7558 266.369C-64.1935 266.838 -64.4123 267.521 -64.4123 268.417V273.153H-65.8347V264.588H-64.4123V265.807C-64.131 265.369 -63.7506 265.03 -63.2713 264.791C-62.7815 264.551 -62.2449 264.431 -61.6613 264.431ZM-54.1016 265.76V270.808C-54.1016 271.225 -54.0131 271.522 -53.8359 271.699C-53.6588 271.866 -53.3514 271.95 -52.9137 271.95H-51.8665V273.153H-53.1482C-53.9401 273.153 -54.5341 272.971 -54.9301 272.606C-55.326 272.241 -55.524 271.642 -55.524 270.808V265.76H-56.6338V264.588H-55.524V262.43H-54.1016V264.588H-51.8665V265.76H-54.1016ZM-47.1107 273.294C-47.7672 273.294 -48.356 273.184 -48.877 272.966C-49.398 272.736 -49.8096 272.424 -50.1118 272.028C-50.414 271.621 -50.5807 271.158 -50.612 270.637H-49.1427C-49.101 271.064 -48.903 271.413 -48.5487 271.684C-48.184 271.955 -47.7099 272.09 -47.1264 272.09C-46.5845 272.09 -46.1573 271.97 -45.8446 271.731C-45.532 271.491 -45.3757 271.189 -45.3757 270.824C-45.3757 270.449 -45.5425 270.173 -45.8759 269.996C-46.2094 269.808 -46.7252 269.626 -47.4233 269.449C-48.059 269.282 -48.58 269.115 -48.9864 268.948C-49.3824 268.771 -49.7262 268.516 -50.018 268.183C-50.2994 267.839 -50.44 267.391 -50.44 266.838C-50.44 266.401 -50.3098 265.999 -50.0493 265.635C-49.7888 265.27 -49.4188 264.983 -48.9395 264.775C-48.4602 264.556 -47.9131 264.447 -47.2983 264.447C-46.35 264.447 -45.5841 264.687 -45.0006 265.166C-44.4171 265.645 -44.1044 266.302 -44.0628 267.135H-45.4851C-45.5164 266.687 -45.6988 266.328 -46.0322 266.057C-46.3552 265.786 -46.7929 265.65 -47.3452 265.65C-47.8558 265.65 -48.2622 265.76 -48.5644 265.979C-48.8666 266.197 -49.0177 266.484 -49.0177 266.838C-49.0177 267.12 -48.9291 267.354 -48.7519 267.542C-48.5644 267.719 -48.3351 267.865 -48.0642 267.979C-47.7828 268.084 -47.3973 268.203 -46.9075 268.339C-46.2927 268.506 -45.7925 268.672 -45.407 268.839C-45.0214 268.995 -44.6932 269.235 -44.4223 269.558C-44.1409 269.881 -43.995 270.303 -43.9846 270.824C-43.9846 271.293 -44.1149 271.715 -44.3754 272.09C-44.6359 272.465 -45.0058 272.762 -45.4851 272.981C-45.9541 273.19 -46.4959 273.294 -47.1107 273.294ZM-41.5234 273.247C-41.7943 273.247 -42.0236 273.153 -42.2111 272.966C-42.3987 272.778 -42.4925 272.549 -42.4925 272.278C-42.4925 272.007 -42.3987 271.778 -42.2111 271.59C-42.0236 271.402 -41.7943 271.309 -41.5234 271.309C-41.2629 271.309 -41.0441 271.402 -40.8669 271.59C-40.6793 271.778 -40.5856 272.007 -40.5856 272.278C-40.5856 272.549 -40.6793 272.778 -40.8669 272.966C-41.0441 273.153 -41.2629 273.247 -41.5234 273.247Z" fill="#7D7D7D"/>
</g>
<defs>
<filter id="filter0_d_0_1" x="-191" y="-39.2874" width="375" height="422.471" filterUnits="userSpaceOnUse" color-interpolation-filters="sRGB">
<feFlood flood-opacity="0" result="BackgroundImageFix"/>
<feColorMatrix in="SourceAlpha" type="matrix" values="0 0 0 0 0 0 0 0 0 0 0 0 0 0 0 0 0 0 127 0" result="hardAlpha"/>
<feOffset dx="25"/>
<feGaussianBlur stdDeviation="20"/>
<feColorMatrix type="matrix" values="0 0 0 0 0 0 0 0 0 0 0 0 0 0 0 0 0 0 0.07 0"/>
<feBlend mode="normal" in2="BackgroundImageFix" result="effect1_dropShadow_0_1"/>
<feBlend mode="normal" in="SourceGraphic" in2="effect1_dropShadow_0_1" result="shape"/>
</filter>
<linearGradient id="paint0_linear_0_1" x1="74.2509" y1="12.157" x2="132.82" y2="12.1571" gradientUnits="userSpaceOnUse">
<stop stop-color="#00A4CC"/>
<stop offset="1" stop-color="#4DD3A0"/>
</linearGradient>
<clipPath id="clip0_0_1">
<rect width="1440" height="10135" fill="white" transform="translate(-276 -4061)"/>
</clipPath>
</defs>
</svg>
