<svg width="195" height="50" viewBox="0 0 195 50" fill="none" xmlns="http://www.w3.org/2000/svg">
<g clip-path="url(#clip0_36_251)">
<path d="M102.193 19.595C102.194 19.6512 102.184 19.7072 102.163 19.7594C102.142 19.8116 102.11 19.859 102.071 19.8988C102.031 19.9386 101.983 19.9699 101.931 19.9909C101.879 20.0119 101.823 20.0221 101.767 20.021H101.71C101.79 19.7686 101.937 19.5428 102.136 19.3678C102.172 19.4384 102.191 19.5159 102.193 19.595Z" fill="url(#paint0_linear_36_251)"/>
<path d="M104.72 19.595C104.72 19.7185 104.684 19.8393 104.615 19.9421C104.546 20.0449 104.449 20.1249 104.335 20.1722C104.22 20.2195 104.095 20.2319 103.974 20.2078C103.852 20.1837 103.741 20.1242 103.654 20.0368C103.566 19.9495 103.507 19.838 103.483 19.7168C103.459 19.5956 103.471 19.47 103.518 19.3558C103.566 19.2416 103.646 19.1441 103.748 19.0754C103.851 19.0067 103.972 18.9701 104.096 18.9701C104.183 18.9754 104.269 18.9945 104.351 19.0269C104.408 19.0553 104.436 19.0837 104.493 19.1121C104.565 19.17 104.623 19.2436 104.663 19.3273C104.702 19.411 104.722 19.5025 104.72 19.595Z" fill="url(#paint1_linear_36_251)"/>
<path d="M105.316 20.6458C105.316 21.1392 105.12 21.6124 104.772 21.9613C104.423 22.3102 103.949 22.5062 103.456 22.5062C102.963 22.5062 102.49 22.3102 102.141 21.9613C101.792 21.6124 101.596 21.1392 101.596 20.6458C101.596 20.4719 101.625 20.2993 101.681 20.1346C101.692 20.1453 101.706 20.1534 101.72 20.1583C101.735 20.1632 101.751 20.1649 101.766 20.163C101.917 20.163 102.061 20.1031 102.168 19.9966C102.274 19.8901 102.334 19.7456 102.334 19.5949C102.336 19.4717 102.296 19.3516 102.221 19.2541C102.557 18.9348 103.006 18.7612 103.47 18.7712C103.335 18.8612 103.225 18.984 103.151 19.1281C103.076 19.2722 103.04 19.4328 103.044 19.5949C103.044 19.733 103.071 19.8699 103.123 19.9975C103.176 20.1252 103.254 20.2412 103.351 20.3389C103.449 20.4365 103.565 20.5139 103.693 20.5666C103.82 20.6193 103.957 20.6462 104.095 20.6458C104.337 20.6415 104.57 20.5548 104.756 20.3998C104.942 20.2449 105.07 20.031 105.118 19.7938C105.243 20.0606 105.311 20.3509 105.316 20.6458Z" fill="url(#paint2_linear_36_251)"/>
<path d="M8.38988 17.1665C8.38988 17.1665 8.38988 17.1666 8.38988 17.1893L8.4353 17.3029C8.50347 17.4704 8.57444 17.6409 8.62556 17.8C8.93692 18.3764 9.08313 19.0276 9.04803 19.6818C9.01293 20.3361 8.79789 20.968 8.42664 21.5078C8.05539 22.0476 7.54236 22.4745 6.94401 22.7414C6.34566 23.0083 5.68524 23.1048 5.03554 23.0203C4.89412 23.004 4.75177 22.9965 4.60943 22.9976H4.56115C4.30748 22.997 4.05441 23.0217 3.80566 23.0715C5.60781 25.9595 8.45776 28.0379 11.7584 28.8713C11.6704 28.7189 11.5935 28.5604 11.5283 28.397C11.282 27.8318 11.1147 27.2355 11.0313 26.6247C10.9422 26.1377 10.9626 25.6371 11.0911 25.1591C11.2196 24.6811 11.4529 24.2376 11.774 23.8609C12.0952 23.4843 12.4962 23.1839 12.9479 22.9815C13.3997 22.7791 13.8908 22.6798 14.3857 22.6909C14.8416 22.6521 15.3003 22.6597 15.7546 22.7136C15.9292 22.7332 16.1027 22.7616 16.2744 22.7988C14.5015 19.8435 11.6399 17.7019 8.30459 16.8343L8.38988 17.1665Z" fill="url(#paint3_linear_36_251)"/>
<path d="M32.1888 48.1255C31.4591 49.108 30.369 49.7604 29.1584 49.9394C27.9477 50.1184 26.7156 49.8092 25.7329 49.0798L1.85197 31.3253C1.13119 30.7868 0.583604 30.0493 0.276686 29.2035C-0.0302314 28.3578 -0.0831191 27.4407 0.124567 26.5653C0.332252 25.6899 0.791416 24.8943 1.44554 24.2766C2.09966 23.6588 2.92018 23.2459 3.80604 23.0886C4.05478 23.0388 4.30785 23.0141 4.56152 23.0147H4.6098C4.75214 23.0135 4.8945 23.0211 5.03591 23.0374C5.87472 23.1126 6.67606 23.4193 7.35064 23.9235L11.009 26.6417L31.2316 41.678C31.7183 42.0381 32.1293 42.4906 32.4409 43.0097C32.7525 43.5288 32.9586 44.1043 33.0475 44.7032C33.1364 45.3021 33.1063 45.9126 32.9589 46.4998C32.8116 47.0871 32.5499 47.6395 32.1888 48.1255Z" fill="url(#paint4_linear_36_251)"/>
<path d="M28.6754 27.5875C28.3144 28.0739 27.8611 28.4844 27.3414 28.7956C26.8217 29.1068 26.2457 29.3125 25.6465 29.4011C25.0473 29.4898 24.4365 29.4595 23.849 29.312C23.2614 29.1646 22.7087 28.9029 22.2224 28.5418L10.0348 19.4956C9.31276 18.9578 8.76407 18.2204 8.45636 17.3743C8.14864 16.5283 8.09538 15.6106 8.3032 14.7346C8.51101 13.8587 8.97076 13.0627 9.62573 12.445C10.2807 11.8274 11.1023 11.415 11.9889 11.2588C12.2374 11.2068 12.4906 11.1811 12.7444 11.1821H12.7927C12.935 11.1824 13.0772 11.19 13.2187 11.2048C14.0571 11.2819 14.858 11.5886 15.5335 12.091L19.1918 14.812L27.7125 21.1373C28.2001 21.4969 28.6119 21.9493 28.9243 22.4685C29.2367 22.9876 29.4435 23.5633 29.533 24.1625C29.6224 24.7617 29.5927 25.3727 29.4456 25.9605C29.2984 26.5482 29.0367 27.1011 28.6754 27.5875Z" fill="url(#paint5_linear_36_251)"/>
<path d="M17.1684 1.87346L17.1667 1.87575C15.6459 3.92144 16.0714 6.81262 18.1171 8.33338L21.7163 11.009C23.762 12.5298 26.6532 12.1043 28.174 10.0586L28.1757 10.0563C29.6964 8.01057 29.2709 5.1194 27.2252 3.59864L23.626 0.922988C21.5803 -0.597772 18.6891 -0.172232 17.1684 1.87346Z" fill="url(#paint6_linear_36_251)"/>
<path d="M43.6494 28.3856V7.50964H57.8507V11.5485H48.1938V15.7919H56.479V19.8307H48.1938V24.3439H57.8507V28.3827L43.6494 28.3856Z" fill="#282828"/>
<path d="M64.7297 28.3856L59.5859 12.6874H63.9514L65.897 19.0241L67.3626 24.7046H67.6011L69.0667 19.0241L70.9498 12.6874H75.1364L69.9927 28.3856H64.7297Z" fill="#282828"/>
<path d="M83.4217 28.7435C82.3623 28.7613 81.3099 28.5682 80.3258 28.1754C79.4413 27.8126 78.6528 27.2497 78.0224 26.5309C77.3718 25.7683 76.8794 24.884 76.5738 23.9292C75.896 21.7076 75.896 19.3343 76.5738 17.1126C76.8775 16.1614 77.3702 15.2813 78.0224 14.5251C78.6574 13.8149 79.4449 13.2575 80.3258 12.8948C82.3203 12.1373 84.5232 12.1373 86.5176 12.8948C87.3987 13.2558 88.1856 13.8135 88.8182 14.5251C89.4743 15.2789 89.9683 16.1597 90.2695 17.1126C90.9474 19.3343 90.9474 21.7076 90.2695 23.9292C89.9665 24.8856 89.4728 25.7706 88.8182 26.5309C88.19 27.2509 87.4022 27.8141 86.5176 28.1754C85.5334 28.5679 84.4811 28.761 83.4217 28.7435ZM83.4217 25.2443C83.7991 25.2673 84.177 25.207 84.5284 25.0676C84.8799 24.9282 85.1963 24.7131 85.4554 24.4376C85.9726 23.7868 86.2288 22.9665 86.1739 22.137V18.9361C86.2287 18.1057 85.9726 17.2846 85.4554 16.6326C84.9048 16.1148 84.1775 15.8264 83.4217 15.8264C82.6659 15.8264 81.9386 16.1148 81.3881 16.6326C80.8721 17.2852 80.6161 18.1058 80.6695 18.9361V22.137C80.616 22.9664 80.872 23.7861 81.3881 24.4376C81.6471 24.7131 81.9636 24.9282 82.315 25.0676C82.6665 25.207 83.0443 25.2673 83.4217 25.2443Z" fill="#282828"/>
<path d="M98.1341 28.3856C97.5437 28.4775 96.9399 28.4305 96.3709 28.248C95.8019 28.0656 95.2833 27.7529 94.8564 27.3348C94.4294 26.9167 94.106 26.4048 93.9117 25.8397C93.7175 25.2746 93.6577 24.672 93.7373 24.0798V6.25714H98.1596V24.946H100.148V28.3856H98.1341Z" fill="#282828"/>
<path d="M124.656 28.7435C123.562 28.767 122.474 28.5739 121.455 28.1754C120.552 27.8093 119.741 27.2476 119.081 26.5308C118.411 25.7844 117.911 24.9017 117.615 23.9434C117.273 22.8402 117.106 21.69 117.121 20.5351C117.108 19.3952 117.27 18.2601 117.601 17.1693C117.888 16.2179 118.372 15.3374 119.021 14.5847C119.655 13.8614 120.447 13.2939 121.336 12.926C122.333 12.5205 123.401 12.3214 124.477 12.341C125.624 12.31 126.763 12.535 127.812 12.9999C128.695 13.4044 129.473 14.0081 130.084 14.7637C130.68 15.5203 131.117 16.3899 131.368 17.3199C131.639 18.3091 131.774 19.3305 131.771 20.3562V21.6711H121.694V21.9098C121.644 22.3723 121.7 22.8401 121.858 23.2775C122.017 23.715 122.273 24.1105 122.608 24.4337C122.942 24.7568 123.346 24.9991 123.789 25.1421C124.232 25.285 124.701 25.3248 125.162 25.2584C125.947 25.2925 126.725 25.1024 127.406 24.7102C127.994 24.3363 128.535 23.894 129.019 23.3924L131.234 26.1503C130.49 27.0013 129.551 27.6591 128.496 28.0675C127.272 28.5401 125.968 28.7698 124.656 28.7435ZM124.568 15.5845C124.173 15.565 123.779 15.6342 123.414 15.787C123.05 15.9399 122.724 16.1725 122.461 16.4678C121.926 17.1301 121.654 17.9664 121.697 18.8168V19.0553H127.198V18.7855C127.237 17.9642 127.012 17.1521 126.556 16.4678C126.323 16.1681 126.02 15.9307 125.673 15.7766C125.326 15.6225 124.947 15.5566 124.568 15.5845Z" fill="#282828"/>
<path d="M143.252 10.8243V29.4833H140.74V10.8243H134.102V8.61151H149.891V10.8243H143.252ZM156.943 29.8421C155.886 29.8421 154.929 29.6528 154.072 29.274C153.235 28.8952 152.507 28.357 151.889 27.6593C151.291 26.9416 150.823 26.0944 150.484 25.1176C150.165 24.1208 150.005 23.0045 150.005 21.7685C150.005 20.5525 150.165 19.4461 150.484 18.4494C150.823 17.4526 151.291 16.6054 151.889 15.9077C152.507 15.19 153.235 14.6418 154.072 14.263C154.929 13.8843 155.886 13.6949 156.943 13.6949C157.979 13.6949 158.906 13.8843 159.724 14.263C160.541 14.6418 161.239 15.1701 161.817 15.8479C162.395 16.5057 162.833 17.2931 163.132 18.2101C163.451 19.1271 163.611 20.1339 163.611 21.2303V22.3666H152.517V23.0842C152.517 23.7421 152.617 24.36 152.816 24.9382C153.035 25.4963 153.334 25.9847 153.713 26.4034C154.112 26.822 154.59 27.1509 155.148 27.3901C155.727 27.6294 156.374 27.749 157.092 27.749C158.069 27.749 158.916 27.5197 159.634 27.0612C160.371 26.6027 160.94 25.9449 161.338 25.0877L163.043 26.3137C162.544 27.3702 161.767 28.2274 160.71 28.8853C159.654 29.5232 158.398 29.8421 156.943 29.8421ZM156.943 15.6984C156.285 15.6984 155.687 15.818 155.148 16.0572C154.61 16.2765 154.142 16.5954 153.743 17.0141C153.364 17.4327 153.065 17.9311 152.846 18.5092C152.627 19.0673 152.517 19.6853 152.517 20.3631V20.5724H161.039V20.2435C161.039 18.868 160.66 17.7716 159.903 16.9542C159.165 16.117 158.179 15.6984 156.943 15.6984ZM173.294 29.8421C172.218 29.8421 171.251 29.6528 170.394 29.274C169.536 28.8952 168.809 28.357 168.211 27.6593C167.633 26.9615 167.184 26.1143 166.865 25.1176C166.566 24.1208 166.417 23.0045 166.417 21.7685C166.417 20.5326 166.566 19.4162 166.865 18.4195C167.184 17.4227 167.633 16.5755 168.211 15.8778C168.809 15.18 169.536 14.6418 170.394 14.263C171.251 13.8843 172.218 13.6949 173.294 13.6949C174.829 13.6949 176.055 14.0338 176.972 14.7116C177.909 15.3694 178.607 16.2366 179.065 17.3131L177.062 18.3298C176.783 17.5324 176.324 16.9144 175.686 16.4758C175.048 16.0372 174.251 15.818 173.294 15.818C172.576 15.818 171.948 15.9376 171.41 16.1768C170.872 16.3961 170.423 16.715 170.065 17.1337C169.706 17.5324 169.437 18.0208 169.257 18.5989C169.078 19.1571 168.988 19.775 168.988 20.4528V23.0842C168.988 24.4398 169.347 25.5561 170.065 26.4333C170.802 27.2905 171.879 27.7191 173.294 27.7191C175.228 27.7191 176.623 26.822 177.48 25.0279L179.215 26.1941C178.716 27.3104 177.969 28.1975 176.972 28.8554C175.995 29.5132 174.769 29.8421 173.294 29.8421ZM182.592 7.35562H184.984V16.5655H185.103C185.482 15.6884 186.01 14.9907 186.688 14.4724C187.386 13.9541 188.313 13.6949 189.469 13.6949C191.064 13.6949 192.32 14.2132 193.237 15.2498C194.174 16.2665 194.642 17.7118 194.642 19.5857V29.4833H192.25V20.0043C192.25 17.2333 191.084 15.8479 188.751 15.8479C188.273 15.8479 187.805 15.9077 187.346 16.0273C186.907 16.1469 186.509 16.3263 186.15 16.5655C185.791 16.8047 185.502 17.1137 185.283 17.4925C185.083 17.8513 184.984 18.2799 184.984 18.7783V29.4833H182.592V7.35562Z" fill="#4DBDE4"/>
<path d="M44.8247 43.7603V42.7662H46.2165V34.8419H44.8247V33.8478H48.8011V34.8419H47.4094V42.7662H48.8011V43.7603H44.8247ZM57.4979 37.7105L56.3049 35.5093H56.2623V43.7603H55.0978V33.8478H56.4754L60.0967 39.8975L61.2896 42.0987H61.3322V33.8478H62.4967V43.7603H61.1192L57.4979 37.7105ZM71.657 37.7105L70.4641 35.5093H70.4215V43.7603H69.257V33.8478H70.6345L74.2558 39.8975L75.4488 42.0987H75.4914V33.8478H76.6559V43.7603H75.2783L71.657 37.7105ZM87.1227 43.9307C86.4789 43.9307 85.8966 43.8218 85.3759 43.6041C84.8647 43.3768 84.4244 43.0502 84.0552 42.6242C83.6954 42.1887 83.4161 41.6538 83.2173 41.0194C83.0185 40.3756 82.9191 39.6372 82.9191 38.804C82.9191 37.9709 83.0185 37.2371 83.2173 36.6028C83.4161 35.9685 83.6954 35.4336 84.0552 34.9981C84.4244 34.5626 84.8647 34.2359 85.3759 34.0182C85.8966 33.791 86.4789 33.6774 87.1227 33.6774C87.757 33.6774 88.3345 33.791 88.8552 34.0182C89.376 34.2359 89.8162 34.5626 90.176 34.9981C90.5452 35.4336 90.8292 35.9685 91.028 36.6028C91.2269 37.2371 91.3263 37.9709 91.3263 38.804C91.3263 39.6372 91.2269 40.3756 91.028 41.0194C90.8292 41.6538 90.5452 42.1887 90.176 42.6242C89.8162 43.0502 89.376 43.3768 88.8552 43.6041C88.3345 43.8218 87.757 43.9307 87.1227 43.9307ZM87.1227 42.8656C87.5487 42.8656 87.9416 42.7899 88.3014 42.6384C88.6612 42.4869 88.9688 42.2691 89.2245 41.9851C89.4896 41.7011 89.6931 41.3603 89.8351 40.9626C89.9771 40.565 90.0481 40.12 90.0481 39.6277V37.9804C90.0481 37.488 89.9771 37.0431 89.8351 36.6454C89.6931 36.2478 89.4896 35.907 89.2245 35.6229C88.9688 35.3389 88.6612 35.1212 88.3014 34.9697C87.9416 34.8182 87.5487 34.7425 87.1227 34.7425C86.6966 34.7425 86.3037 34.8182 85.944 34.9697C85.5842 35.1212 85.2718 35.3389 85.0067 35.6229C84.7511 35.907 84.5522 36.2478 84.4102 36.6454C84.2682 37.0431 84.1972 37.488 84.1972 37.9804V39.6277C84.1972 40.12 84.2682 40.565 84.4102 40.9626C84.5522 41.3603 84.7511 41.7011 85.0067 41.9851C85.2718 42.2691 85.5842 42.4869 85.944 42.6384C86.3037 42.7899 86.6966 42.8656 87.1227 42.8656ZM99.6807 43.7603L96.386 33.8478H97.6642L99.2973 38.8466L100.391 42.5674H100.462L101.584 38.8466L103.231 33.8478H104.467L101.129 43.7603H99.6807ZM115.819 43.7603L114.824 40.8348H110.82L109.826 43.7603H108.618L112.084 33.8478H113.603L117.068 43.7603H115.819ZM112.85 34.9555H112.779L111.104 39.7839H114.526L112.85 34.9555ZM125.237 34.8987V43.7603H124.044V34.8987H120.891V33.8478H128.389V34.8987H125.237ZM133.579 43.7603V42.7662H134.971V34.8419H133.579V33.8478H137.555V34.8419H136.164V42.7662H137.555V43.7603H133.579ZM147.559 43.9307C146.915 43.9307 146.333 43.8218 145.812 43.6041C145.301 43.3768 144.86 43.0502 144.491 42.6242C144.131 42.1887 143.852 41.6538 143.653 41.0194C143.455 40.3756 143.355 39.6372 143.355 38.804C143.355 37.9709 143.455 37.2371 143.653 36.6028C143.852 35.9685 144.131 35.4336 144.491 34.9981C144.86 34.5626 145.301 34.2359 145.812 34.0182C146.333 33.791 146.915 33.6774 147.559 33.6774C148.193 33.6774 148.771 33.791 149.291 34.0182C149.812 34.2359 150.252 34.5626 150.612 34.9981C150.981 35.4336 151.265 35.9685 151.464 36.6028C151.663 37.2371 151.762 37.9709 151.762 38.804C151.762 39.6372 151.663 40.3756 151.464 41.0194C151.265 41.6538 150.981 42.1887 150.612 42.6242C150.252 43.0502 149.812 43.3768 149.291 43.6041C148.771 43.8218 148.193 43.9307 147.559 43.9307ZM147.559 42.8656C147.985 42.8656 148.378 42.7899 148.737 42.6384C149.097 42.4869 149.405 42.2691 149.66 41.9851C149.926 41.7011 150.129 41.3603 150.271 40.9626C150.413 40.565 150.484 40.12 150.484 39.6277V37.9804C150.484 37.488 150.413 37.0431 150.271 36.6454C150.129 36.2478 149.926 35.907 149.66 35.6229C149.405 35.3389 149.097 35.1212 148.737 34.9697C148.378 34.8182 147.985 34.7425 147.559 34.7425C147.133 34.7425 146.74 34.8182 146.38 34.9697C146.02 35.1212 145.708 35.3389 145.443 35.6229C145.187 35.907 144.988 36.2478 144.846 36.6454C144.704 37.0431 144.633 37.488 144.633 37.9804V39.6277C144.633 40.12 144.704 40.565 144.846 40.9626C144.988 41.3603 145.187 41.7011 145.443 41.9851C145.708 42.2691 146.02 42.4869 146.38 42.6384C146.74 42.7899 147.133 42.8656 147.559 42.8656ZM160.425 37.7105L159.232 35.5093H159.19V43.7603H158.025V33.8478H159.403L163.024 39.8975L164.217 42.0987H164.26V33.8478H165.424V43.7603H164.047L160.425 37.7105ZM174.968 43.9307C174.163 43.9307 173.477 43.7792 172.909 43.4763C172.341 43.1638 171.858 42.7378 171.46 42.1981L172.341 41.4597C172.691 41.9236 173.079 42.2786 173.505 42.5248C173.931 42.7615 174.433 42.8798 175.01 42.8798C175.72 42.8798 176.26 42.7094 176.629 42.3686C177.008 42.0277 177.197 41.5733 177.197 41.0052C177.197 40.5319 177.055 40.1674 176.771 39.9117C176.487 39.6561 176.019 39.4526 175.365 39.3011L174.556 39.1165C173.647 38.9082 172.951 38.5957 172.468 38.1792C171.995 37.7531 171.758 37.1567 171.758 36.3898C171.758 35.9543 171.839 35.5661 172 35.2253C172.161 34.8845 172.383 34.6004 172.667 34.3732C172.961 34.146 173.306 33.9756 173.704 33.862C174.111 33.7389 174.556 33.6774 175.039 33.6774C175.787 33.6774 176.426 33.8146 176.956 34.0892C177.496 34.3637 177.95 34.7661 178.319 35.2963L177.425 35.9496C177.15 35.5709 176.819 35.2726 176.431 35.0549C176.042 34.8371 175.56 34.7282 174.982 34.7282C174.348 34.7282 173.846 34.8655 173.477 35.1401C173.117 35.4052 172.937 35.8075 172.937 36.3472C172.937 36.8206 173.088 37.1803 173.391 37.4265C173.704 37.6632 174.173 37.8525 174.797 37.9946L175.607 38.1792C176.582 38.3969 177.287 38.7283 177.723 39.1733C178.158 39.6182 178.376 40.21 178.376 40.9484C178.376 41.4029 178.296 41.8147 178.135 42.1839C177.983 42.5532 177.761 42.8656 177.467 43.1212C177.174 43.3768 176.814 43.5757 176.388 43.7177C175.971 43.8597 175.498 43.9307 174.968 43.9307Z" fill="#282828"/>
<path d="M109.095 28.3998H104.664L102.988 23.1737C103.147 23.2066 103.309 23.2256 103.471 23.2305C103.809 23.2305 104.144 23.1635 104.456 23.0332C104.768 22.903 105.051 22.7122 105.289 22.4718C105.526 22.2314 105.714 21.9463 105.841 21.6329C105.968 21.3194 106.031 20.9839 106.027 20.6459C106.038 20.5107 106.019 20.3749 105.971 20.2483C106.385 20.4901 106.697 20.8734 106.851 21.3276L107.845 24.4518L109.095 28.3998Z" fill="#4DD3A0"/>
<path opacity="0.7" d="M116.195 12.2756L110.997 28.3856H106.566L107.85 24.4433L110.906 14.9966C111.177 14.1462 111.71 13.4037 112.43 12.8763C113.15 12.349 114.019 12.064 114.911 12.0626C115.347 12.0738 115.779 12.1455 116.195 12.2756Z" fill="#00A4CC"/>
<path d="M104.72 19.595C104.72 19.7185 104.684 19.8393 104.615 19.9421C104.546 20.0449 104.449 20.1249 104.335 20.1722C104.22 20.2195 104.095 20.2319 103.974 20.2078C103.852 20.1837 103.741 20.1242 103.654 20.0368C103.566 19.9495 103.507 19.838 103.483 19.7168C103.459 19.5956 103.471 19.47 103.518 19.3558C103.566 19.2416 103.646 19.1441 103.748 19.0754C103.851 19.0067 103.972 18.9701 104.096 18.9701C104.183 18.9754 104.269 18.9945 104.351 19.0269C104.408 19.0553 104.436 19.0837 104.493 19.1121C104.565 19.17 104.623 19.2436 104.663 19.3273C104.702 19.411 104.722 19.5025 104.72 19.595Z" fill="url(#paint7_linear_36_251)"/>
<path d="M102.193 19.595C102.194 19.6513 102.184 19.7072 102.163 19.7595C102.142 19.8117 102.111 19.859 102.071 19.8988C102.031 19.9386 101.984 19.97 101.931 19.991C101.879 20.012 101.823 20.0222 101.767 20.0211H101.71C101.61 20.002 101.519 19.9495 101.452 19.8722C101.385 19.7949 101.346 19.6972 101.341 19.595C101.338 19.4785 101.381 19.3654 101.461 19.2803C101.54 19.1952 101.65 19.145 101.767 19.1406C101.844 19.1364 101.921 19.1559 101.987 19.1965C102.053 19.2371 102.105 19.2969 102.136 19.3678C102.172 19.4384 102.191 19.516 102.193 19.595Z" fill="url(#paint8_linear_36_251)"/>
</g>
<defs>
<linearGradient id="paint0_linear_36_251" x1="101.71" y1="19.6944" x2="102.193" y2="19.6944" gradientUnits="userSpaceOnUse">
<stop stop-color="#4DD3A0"/>
<stop offset="1" stop-color="#00A4CC"/>
</linearGradient>
<linearGradient id="paint1_linear_36_251" x1="103.471" y1="19.5949" x2="104.72" y2="19.5949" gradientUnits="userSpaceOnUse">
<stop stop-color="#4DD3A0"/>
<stop offset="1" stop-color="#00A4CC"/>
</linearGradient>
<linearGradient id="paint2_linear_36_251" x1="101.596" y1="20.6458" x2="105.316" y2="20.6458" gradientUnits="userSpaceOnUse">
<stop stop-color="#4DD3A0"/>
<stop offset="1" stop-color="#00A4CC"/>
</linearGradient>
<linearGradient id="paint3_linear_36_251" x1="3.81418" y1="22.8755" x2="16.2687" y2="22.8755" gradientUnits="userSpaceOnUse">
<stop stop-color="#00A4CC"/>
<stop offset="1" stop-color="#4DD3A0"/>
</linearGradient>
<linearGradient id="paint4_linear_36_251" x1="8.92123e-05" y1="36.5088" x2="33.1147" y2="36.5088" gradientUnits="userSpaceOnUse">
<stop stop-color="#00A4CC"/>
<stop offset="1" stop-color="#4DD3A0"/>
</linearGradient>
<linearGradient id="paint5_linear_36_251" x1="8.18577" y1="20.3136" x2="29.5928" y2="20.3136" gradientUnits="userSpaceOnUse">
<stop stop-color="#00A4CC"/>
<stop offset="1" stop-color="#4DD3A0"/>
</linearGradient>
<linearGradient id="paint6_linear_36_251" x1="16.2647" y1="5.95997" x2="29.0942" y2="5.95997" gradientUnits="userSpaceOnUse">
<stop stop-color="#00A4CC"/>
<stop offset="1" stop-color="#4DD3A0"/>
</linearGradient>
<linearGradient id="paint7_linear_36_251" x1="104.374" y1="19.0979" x2="103.84" y2="20.0522" gradientUnits="userSpaceOnUse">
<stop stop-color="#00A0D8"/>
<stop offset="1" stop-color="#4DD3A0"/>
</linearGradient>
<linearGradient id="paint8_linear_36_251" x1="102.102" y1="19.7967" x2="101.54" y2="19.4246" gradientUnits="userSpaceOnUse">
<stop stop-color="#00A0D8"/>
<stop offset="1" stop-color="#4DD3A0"/>
</linearGradient>
<clipPath id="clip0_36_251">
<rect width="194.657" height="50" fill="white"/>
</clipPath>
</defs>
</svg>
